<?xml version="1.0" encoding="utf-8"?>
<!-- Generator: Adobe Illustrator 19.1.0, SVG Export Plug-In . SVG Version: 6.00 Build 0)  -->
<svg version="1.1" xmlns="http://www.w3.org/2000/svg" xmlns:xlink="http://www.w3.org/1999/xlink" x="0px" y="0px"
	 viewBox="0 0 612 792" style="enable-background:new 0 0 612 792;" xml:space="preserve">
<style type="text/css">
	.st0{display:none;}
	.st1{display:inline;fill:none;stroke:#EB2627;stroke-width:7.200000e-02;}
	.st2{display:inline;fill:none;stroke:#ED2224;stroke-width:7.200000e-02;}
	.st3{display:inline;}
	.st4{fill:none;stroke:#ED2224;stroke-width:7.200000e-02;}
	.st5{fill:none;stroke:#EB2627;stroke-width:7.200000e-02;}
</style>
<g id="TubeLayer" class="st0">
	
		<path id="path4598-6_137_" sodipodi:ry="30.40559" sodipodi:cx="1163.1907" sodipodi:type="arc" sodipodi:cy="257.40527" sodipodi:rx="28.991377" class="st1" d="
		M137.3,260.1c0,19.9-16.1,36-36,36c-19.9,0-36-16.1-36-36s16.1-36,36-36C121.1,224.1,137.3,240.2,137.3,260.1z"/>
	<circle class="st1" cx="167.9" cy="195" r="5.4"/>
	<circle class="st1" cx="34.7" cy="195" r="5.4"/>
	<circle class="st1" cx="101.3" cy="325.3" r="5.4"/>
	<circle class="st1" cx="167.9" cy="325.3" r="5.4"/>
	<circle class="st1" cx="34.7" cy="325.3" r="5.4"/>
	<circle class="st1" cx="146.9" cy="260.1" r="6.7"/>
	<circle class="st1" cx="55.5" cy="260.1" r="6.7"/>
	<circle class="st1" cx="101.3" cy="195" r="5.4"/>
	<circle class="st1" cx="167.9" cy="260.1" r="5.4"/>
	<circle class="st1" cx="34.7" cy="260.1" r="5.4"/>
	
		<path id="path4598-6_126_" sodipodi:ry="30.40559" sodipodi:cx="1163.1907" sodipodi:type="arc" sodipodi:cy="257.40527" sodipodi:rx="28.991377" class="st1" d="
		M137.3,390.4c0,19.9-16.1,36-36,36c-19.9,0-36-16.1-36-36s16.1-36,36-36C121.1,354.4,137.3,370.5,137.3,390.4z"/>
	<circle class="st1" cx="101.3" cy="455.6" r="5.4"/>
	<circle class="st1" cx="167.9" cy="455.6" r="5.4"/>
	<circle class="st1" cx="34.7" cy="455.6" r="5.4"/>
	<circle class="st1" cx="146.9" cy="390.4" r="6.7"/>
	<circle class="st1" cx="55.5" cy="390.4" r="6.7"/>
	<circle class="st1" cx="167.9" cy="390.4" r="5.4"/>
	<circle class="st1" cx="34.7" cy="390.4" r="5.4"/>
	
		<path id="path4598-6_127_" sodipodi:ry="30.40559" sodipodi:cx="1163.1907" sodipodi:type="arc" sodipodi:cy="257.40527" sodipodi:rx="28.991377" class="st1" d="
		M137.3,520.7c0,19.9-16.1,36-36,36c-19.9,0-36-16.1-36-36c0-19.9,16.1-36,36-36C121.1,484.7,137.3,500.8,137.3,520.7z"/>
	<circle class="st1" cx="101.3" cy="585.9" r="5.4"/>
	<circle class="st1" cx="167.9" cy="585.9" r="5.4"/>
	<circle class="st1" cx="34.7" cy="585.9" r="5.4"/>
	<circle class="st1" cx="146.9" cy="520.7" r="6.7"/>
	<circle class="st1" cx="55.5" cy="520.7" r="6.7"/>
	<circle class="st1" cx="167.9" cy="520.7" r="5.4"/>
	<circle class="st1" cx="34.7" cy="520.7" r="5.4"/>
	
		<path id="path4598-6_130_" sodipodi:ry="30.40559" sodipodi:cx="1163.1907" sodipodi:type="arc" sodipodi:cy="257.40527" sodipodi:rx="28.991377" class="st1" d="
		M270.5,260.1c0,19.9-16.1,36-36,36c-19.9,0-36-16.1-36-36s16.1-36,36-36C254.3,224.1,270.5,240.2,270.5,260.1z"/>
	<circle class="st1" cx="301.1" cy="195" r="5.4"/>
	<circle class="st1" cx="234.5" cy="325.3" r="5.4"/>
	<circle class="st1" cx="301.1" cy="325.3" r="5.4"/>
	<circle class="st1" cx="280.1" cy="260.1" r="6.7"/>
	<circle class="st1" cx="188.7" cy="260.1" r="6.7"/>
	<circle class="st1" cx="234.5" cy="195" r="5.4"/>
	<circle class="st1" cx="301.1" cy="260.1" r="5.4"/>
	
		<path id="path4598-6_129_" sodipodi:ry="30.40559" sodipodi:cx="1163.1907" sodipodi:type="arc" sodipodi:cy="257.40527" sodipodi:rx="28.991377" class="st1" d="
		M270.5,390.4c0,19.9-16.1,36-36,36c-19.9,0-36-16.1-36-36s16.1-36,36-36C254.3,354.4,270.5,370.5,270.5,390.4z"/>
	<circle class="st1" cx="234.5" cy="455.6" r="5.4"/>
	<circle class="st1" cx="301.1" cy="455.6" r="5.4"/>
	<circle class="st1" cx="280.1" cy="390.4" r="6.7"/>
	<circle class="st1" cx="188.7" cy="390.4" r="6.7"/>
	<circle class="st1" cx="301.1" cy="390.4" r="5.4"/>
	
		<path id="path4598-6_128_" sodipodi:ry="30.40559" sodipodi:cx="1163.1907" sodipodi:type="arc" sodipodi:cy="257.40527" sodipodi:rx="28.991377" class="st1" d="
		M270.5,520.7c0,19.9-16.1,36-36,36c-19.9,0-36-16.1-36-36c0-19.9,16.1-36,36-36C254.3,484.7,270.5,500.8,270.5,520.7z"/>
	<circle class="st1" cx="234.5" cy="585.9" r="5.4"/>
	<circle class="st1" cx="301.1" cy="585.9" r="5.4"/>
	<circle class="st1" cx="280.1" cy="520.7" r="6.7"/>
	<circle class="st1" cx="188.7" cy="520.7" r="6.7"/>
	<circle class="st1" cx="301.1" cy="520.7" r="5.4"/>
	
		<path id="path4598-6_136_" sodipodi:ry="30.40559" sodipodi:cx="1163.1907" sodipodi:type="arc" sodipodi:cy="257.40527" sodipodi:rx="28.991377" class="st1" d="
		M403.7,260.1c0,19.9-16.1,36-36,36c-19.9,0-36-16.1-36-36c0-19.9,16.1-36,36-36C387.5,224.1,403.7,240.2,403.7,260.1z"/>
	<circle class="st1" cx="434.3" cy="195" r="5.4"/>
	<circle class="st1" cx="367.7" cy="325.3" r="5.4"/>
	<circle class="st1" cx="434.3" cy="325.3" r="5.4"/>
	<circle class="st1" cx="413.3" cy="260.1" r="6.7"/>
	<circle class="st1" cx="321.9" cy="260.1" r="6.7"/>
	<circle class="st1" cx="367.7" cy="195" r="5.4"/>
	<circle class="st1" cx="434.3" cy="260.1" r="5.4"/>
	
		<path id="path4598-6_135_" sodipodi:ry="30.40559" sodipodi:cx="1163.1907" sodipodi:type="arc" sodipodi:cy="257.40527" sodipodi:rx="28.991377" class="st1" d="
		M403.7,390.4c0,19.9-16.1,36-36,36c-19.9,0-36-16.1-36-36s16.1-36,36-36C387.5,354.4,403.7,370.5,403.7,390.4z"/>
	<circle class="st1" cx="367.7" cy="455.6" r="5.4"/>
	<circle class="st1" cx="434.3" cy="455.6" r="5.4"/>
	<circle class="st1" cx="413.3" cy="390.4" r="6.7"/>
	<circle class="st1" cx="321.9" cy="390.4" r="6.7"/>
	<circle class="st1" cx="434.3" cy="390.4" r="5.4"/>
	
		<path id="path4598-6_134_" sodipodi:ry="30.40559" sodipodi:cx="1163.1907" sodipodi:type="arc" sodipodi:cy="257.40527" sodipodi:rx="28.991377" class="st1" d="
		M403.7,520.7c0,19.9-16.1,36-36,36c-19.9,0-36-16.1-36-36c0-19.9,16.1-36,36-36C387.5,484.7,403.7,500.8,403.7,520.7z"/>
	<circle class="st1" cx="367.7" cy="585.9" r="5.4"/>
	<circle class="st1" cx="434.3" cy="585.9" r="5.4"/>
	<circle class="st1" cx="413.3" cy="520.7" r="6.7"/>
	<circle class="st1" cx="321.9" cy="520.7" r="6.7"/>
	<circle class="st1" cx="434.3" cy="520.7" r="5.4"/>
	
		<path id="path4598-6_133_" sodipodi:ry="30.40559" sodipodi:cx="1163.1907" sodipodi:type="arc" sodipodi:cy="257.40527" sodipodi:rx="28.991377" class="st1" d="
		M536.9,260.1c0,19.9-16.1,36-36,36c-19.9,0-36-16.1-36-36s16.1-36,36-36C520.7,224.1,536.9,240.2,536.9,260.1z"/>
	<circle class="st1" cx="567.5" cy="195" r="5.4"/>
	<circle class="st1" cx="500.9" cy="325.3" r="5.4"/>
	<circle class="st1" cx="567.5" cy="325.3" r="5.4"/>
	<circle class="st1" cx="546.5" cy="260.1" r="6.7"/>
	<circle class="st1" cx="455.1" cy="260.1" r="6.7"/>
	<circle class="st1" cx="500.9" cy="195" r="5.4"/>
	<circle class="st1" cx="567.5" cy="260.1" r="5.4"/>
	
		<path id="path4598-6_132_" sodipodi:ry="30.40559" sodipodi:cx="1163.1907" sodipodi:type="arc" sodipodi:cy="257.40527" sodipodi:rx="28.991377" class="st1" d="
		M536.9,390.4c0,19.9-16.1,36-36,36c-19.9,0-36-16.1-36-36s16.1-36,36-36C520.7,354.4,536.9,370.5,536.9,390.4z"/>
	<circle class="st1" cx="500.9" cy="455.6" r="5.4"/>
	<circle class="st1" cx="567.5" cy="455.6" r="5.4"/>
	<circle class="st1" cx="546.5" cy="390.4" r="6.7"/>
	<circle class="st1" cx="455.1" cy="390.4" r="6.7"/>
	<circle class="st1" cx="567.5" cy="390.4" r="5.4"/>
	
		<path id="path4598-6_131_" sodipodi:ry="30.40559" sodipodi:cx="1163.1907" sodipodi:type="arc" sodipodi:cy="257.40527" sodipodi:rx="28.991377" class="st1" d="
		M536.9,520.7c0,19.9-16.1,36-36,36c-19.9,0-36-16.1-36-36c0-19.9,16.1-36,36-36C520.7,484.7,536.9,500.8,536.9,520.7z"/>
	<circle class="st1" cx="500.9" cy="585.9" r="5.4"/>
	<circle class="st1" cx="567.5" cy="585.9" r="5.4"/>
	<circle class="st1" cx="546.5" cy="520.7" r="6.7"/>
	<circle class="st1" cx="455.1" cy="520.7" r="6.7"/>
	<circle class="st1" cx="567.5" cy="520.7" r="5.4"/>
	<rect x="20.4" y="180.7" class="st1" width="561.3" height="419.5"/>
</g>
<g id="BathFloorLayer" class="st0">
	<circle class="st1" cx="167.9" cy="195" r="5.4"/>
	<circle class="st1" cx="34.7" cy="195" r="5.4"/>
	<circle class="st1" cx="101.3" cy="325.3" r="5.4"/>
	<circle class="st1" cx="167.9" cy="325.3" r="5.4"/>
	<circle class="st1" cx="34.7" cy="325.3" r="5.4"/>
	<circle class="st1" cx="146.9" cy="260.1" r="6.7"/>
	<circle class="st1" cx="55.5" cy="260.1" r="6.7"/>
	<circle class="st1" cx="101.3" cy="195" r="5.4"/>
	<circle class="st1" cx="167.9" cy="260.1" r="5.4"/>
	<circle class="st1" cx="34.7" cy="260.1" r="5.4"/>
	<circle class="st1" cx="101.3" cy="455.6" r="5.4"/>
	<circle class="st1" cx="167.9" cy="455.6" r="5.4"/>
	<circle class="st1" cx="34.7" cy="455.6" r="5.4"/>
	<circle class="st1" cx="146.9" cy="390.4" r="6.7"/>
	<circle class="st1" cx="55.5" cy="390.4" r="6.7"/>
	<circle class="st1" cx="167.9" cy="390.4" r="5.4"/>
	<circle class="st1" cx="34.7" cy="390.4" r="5.4"/>
	<circle class="st1" cx="101.3" cy="585.9" r="5.4"/>
	<circle class="st1" cx="167.9" cy="585.9" r="5.4"/>
	<circle class="st1" cx="34.7" cy="585.9" r="5.4"/>
	<circle class="st1" cx="146.9" cy="520.7" r="6.7"/>
	<circle class="st1" cx="55.5" cy="520.7" r="6.7"/>
	<circle class="st1" cx="167.9" cy="520.7" r="5.4"/>
	<circle class="st1" cx="34.7" cy="520.7" r="5.4"/>
	<circle class="st1" cx="301.1" cy="195" r="5.4"/>
	<circle class="st1" cx="234.5" cy="325.3" r="5.4"/>
	<circle class="st1" cx="301.1" cy="325.3" r="5.4"/>
	<circle class="st1" cx="280.1" cy="260.1" r="6.7"/>
	<circle class="st1" cx="188.7" cy="260.1" r="6.7"/>
	<circle class="st1" cx="234.5" cy="195" r="5.4"/>
	<circle class="st1" cx="301.1" cy="260.1" r="5.4"/>
	<circle class="st1" cx="234.5" cy="455.6" r="5.4"/>
	<circle class="st1" cx="301.1" cy="455.6" r="5.4"/>
	<circle class="st1" cx="280.1" cy="390.4" r="6.7"/>
	<circle class="st1" cx="188.7" cy="390.4" r="6.7"/>
	<circle class="st1" cx="301.1" cy="390.4" r="5.4"/>
	<circle class="st1" cx="234.5" cy="585.9" r="5.4"/>
	<circle class="st1" cx="301.1" cy="585.9" r="5.4"/>
	<circle class="st1" cx="280.1" cy="520.7" r="6.7"/>
	<circle class="st1" cx="188.7" cy="520.7" r="6.7"/>
	<circle class="st1" cx="301.1" cy="520.7" r="5.4"/>
	<circle class="st1" cx="434.3" cy="195" r="5.4"/>
	<circle class="st1" cx="367.7" cy="325.3" r="5.4"/>
	<circle class="st1" cx="434.3" cy="325.3" r="5.4"/>
	<circle class="st1" cx="413.3" cy="260.1" r="6.7"/>
	<circle class="st1" cx="321.9" cy="260.1" r="6.7"/>
	<circle class="st1" cx="367.7" cy="195" r="5.4"/>
	<circle class="st1" cx="434.3" cy="260.1" r="5.4"/>
	<circle class="st1" cx="367.7" cy="455.6" r="5.4"/>
	<circle class="st1" cx="434.3" cy="455.6" r="5.4"/>
	<circle class="st1" cx="413.3" cy="390.4" r="6.7"/>
	<circle class="st1" cx="321.9" cy="390.4" r="6.7"/>
	<circle class="st1" cx="434.3" cy="390.4" r="5.4"/>
	<circle class="st1" cx="367.7" cy="585.9" r="5.4"/>
	<circle class="st1" cx="434.3" cy="585.9" r="5.4"/>
	<circle class="st1" cx="413.3" cy="520.7" r="6.7"/>
	<circle class="st1" cx="321.9" cy="520.7" r="6.7"/>
	<circle class="st1" cx="434.3" cy="520.7" r="5.4"/>
	<circle class="st1" cx="567.5" cy="195" r="5.4"/>
	<circle class="st1" cx="500.9" cy="325.3" r="5.4"/>
	<circle class="st1" cx="567.5" cy="325.3" r="5.4"/>
	<circle class="st1" cx="546.5" cy="260.1" r="6.7"/>
	<circle class="st1" cx="455.1" cy="260.1" r="6.7"/>
	<circle class="st1" cx="500.9" cy="195" r="5.4"/>
	<circle class="st1" cx="567.5" cy="260.1" r="5.4"/>
	<circle class="st1" cx="500.9" cy="455.6" r="5.4"/>
	<circle class="st1" cx="567.5" cy="455.6" r="5.4"/>
	<circle class="st1" cx="546.5" cy="390.4" r="6.7"/>
	<circle class="st1" cx="455.1" cy="390.4" r="6.7"/>
	<circle class="st1" cx="567.5" cy="390.4" r="5.4"/>
	<circle class="st1" cx="500.9" cy="585.9" r="5.4"/>
	<circle class="st1" cx="567.5" cy="585.9" r="5.4"/>
	<circle class="st1" cx="546.5" cy="520.7" r="6.7"/>
	<circle class="st1" cx="455.1" cy="520.7" r="6.7"/>
	<circle class="st1" cx="567.5" cy="520.7" r="5.4"/>
	<rect x="20.4" y="180.7" class="st1" width="561.3" height="419.5"/>
</g>
<g id="BathLayer" class="st0">
	<circle class="st1" cx="167.9" cy="195" r="5.4"/>
	<circle class="st1" cx="34.7" cy="195" r="5.4"/>
	<circle class="st1" cx="101.3" cy="325.3" r="5.4"/>
	<circle class="st1" cx="167.9" cy="325.3" r="5.4"/>
	<circle class="st1" cx="34.7" cy="325.3" r="5.4"/>
	<circle class="st1" cx="101.3" cy="195" r="5.4"/>
	<circle class="st1" cx="167.9" cy="260.1" r="5.4"/>
	<circle class="st1" cx="34.7" cy="260.1" r="5.4"/>
	<circle class="st1" cx="101.3" cy="455.6" r="5.4"/>
	<circle class="st1" cx="167.9" cy="455.6" r="5.4"/>
	<circle class="st1" cx="34.7" cy="455.6" r="5.4"/>
	<circle class="st1" cx="167.9" cy="390.4" r="5.4"/>
	<circle class="st1" cx="34.7" cy="390.4" r="5.4"/>
	<circle class="st1" cx="101.3" cy="585.9" r="5.4"/>
	<circle class="st1" cx="167.9" cy="585.9" r="5.4"/>
	<circle class="st1" cx="34.7" cy="585.9" r="5.4"/>
	<circle class="st1" cx="167.9" cy="520.7" r="5.4"/>
	<circle class="st1" cx="34.7" cy="520.7" r="5.4"/>
	<circle class="st1" cx="301.1" cy="195" r="5.4"/>
	<circle class="st1" cx="234.5" cy="325.3" r="5.4"/>
	<circle class="st1" cx="301.1" cy="325.3" r="5.4"/>
	<circle class="st1" cx="234.5" cy="195" r="5.4"/>
	<circle class="st1" cx="301.1" cy="260.1" r="5.4"/>
	<circle class="st1" cx="234.5" cy="455.6" r="5.4"/>
	<circle class="st1" cx="301.1" cy="455.6" r="5.4"/>
	<circle class="st1" cx="301.1" cy="390.4" r="5.4"/>
	<circle class="st1" cx="234.5" cy="585.9" r="5.4"/>
	<circle class="st1" cx="301.1" cy="585.9" r="5.4"/>
	<circle class="st1" cx="301.1" cy="520.7" r="5.4"/>
	<circle class="st1" cx="434.3" cy="195" r="5.4"/>
	<circle class="st1" cx="367.7" cy="325.3" r="5.4"/>
	<circle class="st1" cx="434.3" cy="325.3" r="5.4"/>
	<circle class="st1" cx="367.7" cy="195" r="5.4"/>
	<circle class="st1" cx="434.3" cy="260.1" r="5.4"/>
	<circle class="st1" cx="367.7" cy="455.6" r="5.4"/>
	<circle class="st1" cx="434.3" cy="455.6" r="5.4"/>
	<circle class="st1" cx="434.3" cy="390.4" r="5.4"/>
	<circle class="st1" cx="367.7" cy="585.9" r="5.4"/>
	<circle class="st1" cx="434.3" cy="585.9" r="5.4"/>
	<circle class="st1" cx="434.3" cy="520.7" r="5.4"/>
	<circle class="st1" cx="567.5" cy="195" r="5.4"/>
	<circle class="st1" cx="500.9" cy="325.3" r="5.4"/>
	<circle class="st1" cx="567.5" cy="325.3" r="5.4"/>
	<circle class="st1" cx="500.9" cy="195" r="5.4"/>
	<circle class="st1" cx="567.5" cy="260.1" r="5.4"/>
	<circle class="st1" cx="500.9" cy="455.6" r="5.4"/>
	<circle class="st1" cx="567.5" cy="455.6" r="5.4"/>
	<circle class="st1" cx="567.5" cy="390.4" r="5.4"/>
	<circle class="st1" cx="500.9" cy="585.9" r="5.4"/>
	<circle class="st1" cx="567.5" cy="585.9" r="5.4"/>
	<circle class="st1" cx="567.5" cy="520.7" r="5.4"/>
	<rect x="20.4" y="180.7" class="st1" width="561.3" height="419.5"/>
	<circle class="st2" cx="101.3" cy="260.1" r="55.3"/>
	<circle class="st2" cx="101.3" cy="390.4" r="55.3"/>
	<circle class="st2" cx="101.3" cy="520.7" r="55.3"/>
	<circle class="st2" cx="234.5" cy="520.7" r="55.3"/>
	<circle class="st2" cx="234.5" cy="390.4" r="55.3"/>
	<circle class="st2" cx="234.5" cy="260.1" r="55.3"/>
	<circle class="st2" cx="367.7" cy="260.1" r="55.3"/>
	<circle class="st2" cx="500.9" cy="260.1" r="55.3"/>
	<circle class="st2" cx="367.7" cy="390.4" r="55.3"/>
	<circle class="st2" cx="367.7" cy="520.7" r="55.3"/>
	<circle class="st2" cx="500.9" cy="520.7" r="55.3"/>
	<circle class="st2" cx="500.9" cy="390.4" r="55.3"/>
</g>
<g id="WellTopLayer" class="st0">
	<circle class="st1" cx="167.9" cy="195" r="5.4"/>
	<circle class="st1" cx="34.7" cy="195" r="5.4"/>
	<circle class="st1" cx="101.3" cy="325.3" r="5.4"/>
	<circle class="st1" cx="167.9" cy="325.3" r="5.4"/>
	<circle class="st1" cx="34.7" cy="325.3" r="5.4"/>
	<circle class="st1" cx="101.3" cy="195" r="5.4"/>
	<circle class="st1" cx="167.9" cy="260.1" r="5.4"/>
	<circle class="st1" cx="34.7" cy="260.1" r="5.4"/>
	<circle class="st1" cx="101.3" cy="455.6" r="5.4"/>
	<circle class="st1" cx="167.9" cy="455.6" r="5.4"/>
	<circle class="st1" cx="34.7" cy="455.6" r="5.4"/>
	<circle class="st1" cx="167.9" cy="390.4" r="5.4"/>
	<circle class="st1" cx="34.7" cy="390.4" r="5.4"/>
	<circle class="st1" cx="101.3" cy="585.9" r="5.4"/>
	<circle class="st1" cx="167.9" cy="585.9" r="5.4"/>
	<circle class="st1" cx="34.7" cy="585.9" r="5.4"/>
	<circle class="st1" cx="167.9" cy="520.7" r="5.4"/>
	<circle class="st1" cx="34.7" cy="520.7" r="5.4"/>
	<circle class="st1" cx="301.1" cy="195" r="5.4"/>
	<circle class="st1" cx="234.5" cy="325.3" r="5.4"/>
	<circle class="st1" cx="301.1" cy="325.3" r="5.4"/>
	<circle class="st1" cx="234.5" cy="195" r="5.4"/>
	<circle class="st1" cx="301.1" cy="260.1" r="5.4"/>
	<circle class="st1" cx="234.5" cy="455.6" r="5.4"/>
	<circle class="st1" cx="301.1" cy="455.6" r="5.4"/>
	<circle class="st1" cx="301.1" cy="390.4" r="5.4"/>
	<circle class="st1" cx="234.5" cy="585.9" r="5.4"/>
	<circle class="st1" cx="301.1" cy="585.9" r="5.4"/>
	<circle class="st1" cx="301.1" cy="520.7" r="5.4"/>
	<circle class="st1" cx="434.3" cy="195" r="5.4"/>
	<circle class="st1" cx="367.7" cy="325.3" r="5.4"/>
	<circle class="st1" cx="434.3" cy="325.3" r="5.4"/>
	<circle class="st1" cx="367.7" cy="195" r="5.4"/>
	<circle class="st1" cx="434.3" cy="260.1" r="5.4"/>
	<circle class="st1" cx="367.7" cy="455.6" r="5.4"/>
	<circle class="st1" cx="434.3" cy="455.6" r="5.4"/>
	<circle class="st1" cx="434.3" cy="390.4" r="5.4"/>
	<circle class="st1" cx="367.7" cy="585.9" r="5.4"/>
	<circle class="st1" cx="434.3" cy="585.9" r="5.4"/>
	<circle class="st1" cx="434.3" cy="520.7" r="5.4"/>
	<circle class="st1" cx="567.5" cy="195" r="5.4"/>
	<circle class="st1" cx="500.9" cy="325.3" r="5.4"/>
	<circle class="st1" cx="567.5" cy="325.3" r="5.4"/>
	<circle class="st1" cx="500.9" cy="195" r="5.4"/>
	<circle class="st1" cx="567.5" cy="260.1" r="5.4"/>
	<circle class="st1" cx="500.9" cy="455.6" r="5.4"/>
	<circle class="st1" cx="567.5" cy="455.6" r="5.4"/>
	<circle class="st1" cx="567.5" cy="390.4" r="5.4"/>
	<circle class="st1" cx="500.9" cy="585.9" r="5.4"/>
	<circle class="st1" cx="567.5" cy="585.9" r="5.4"/>
	<circle class="st1" cx="567.5" cy="520.7" r="5.4"/>
	<rect x="20.4" y="180.7" class="st1" width="561.3" height="419.5"/>
	<g class="st3">
		
			<path id="path4598-6_114_" sodipodi:ry="30.40559" sodipodi:cx="1163.1907" sodipodi:type="arc" sodipodi:cy="257.40527" sodipodi:rx="28.991377" class="st4" d="
			M101.1,229.1c17.1,0,31,13.9,31,31c0,17.1-13.9,31-31,31s-31-13.9-31-31C70.1,243,84,229.1,101.1,229.1z"/>
		<circle class="st4" cx="101.1" cy="209.8" r="2.5"/>
		<circle class="st4" cx="101.1" cy="310.4" r="2.5"/>
		<circle class="st4" cx="151.6" cy="260.1" r="2.5"/>
		<circle class="st4" cx="51" cy="260.1" r="2.5"/>
	</g>
	<g class="st3">
		
			<path id="path4598-6_115_" sodipodi:ry="30.40559" sodipodi:cx="1163.1907" sodipodi:type="arc" sodipodi:cy="257.40527" sodipodi:rx="28.991377" class="st4" d="
			M101.1,359.4c17.1,0,31,13.9,31,31c0,17.1-13.9,31-31,31s-31-13.9-31-31C70.1,373.3,84,359.4,101.1,359.4z"/>
		<circle class="st4" cx="101.1" cy="340.1" r="2.5"/>
		<circle class="st4" cx="101.1" cy="440.7" r="2.5"/>
		<circle class="st4" cx="151.6" cy="390.4" r="2.5"/>
		<circle class="st4" cx="51" cy="390.4" r="2.5"/>
	</g>
	<g class="st3">
		
			<path id="path4598-6_116_" sodipodi:ry="30.40559" sodipodi:cx="1163.1907" sodipodi:type="arc" sodipodi:cy="257.40527" sodipodi:rx="28.991377" class="st4" d="
			M101.1,489.7c17.1,0,31,13.9,31,31c0,17.1-13.9,31-31,31s-31-13.9-31-31C70.1,503.6,84,489.7,101.1,489.7z"/>
		<circle class="st4" cx="101.1" cy="470.4" r="2.5"/>
		<circle class="st4" cx="101.1" cy="571" r="2.5"/>
		<circle class="st4" cx="151.6" cy="520.7" r="2.5"/>
		<circle class="st4" cx="51" cy="520.7" r="2.5"/>
	</g>
	<g class="st3">
		
			<path id="path4598-6_117_" sodipodi:ry="30.40559" sodipodi:cx="1163.1907" sodipodi:type="arc" sodipodi:cy="257.40527" sodipodi:rx="28.991377" class="st4" d="
			M234.3,489.7c17.1,0,31,13.9,31,31c0,17.1-13.9,31-31,31s-31-13.9-31-31C203.3,503.6,217.2,489.7,234.3,489.7z"/>
		<circle class="st4" cx="234.3" cy="470.5" r="2.5"/>
		<circle class="st4" cx="234.3" cy="571" r="2.5"/>
		<circle class="st4" cx="284.8" cy="520.8" r="2.5"/>
		<circle class="st4" cx="184.2" cy="520.8" r="2.5"/>
	</g>
	<g class="st3">
		
			<path id="path4598-6_118_" sodipodi:ry="30.40559" sodipodi:cx="1163.1907" sodipodi:type="arc" sodipodi:cy="257.40527" sodipodi:rx="28.991377" class="st4" d="
			M234.2,359.4c17.1,0,31,13.9,31,31c0,17.1-13.9,31-31,31s-31-13.9-31-31C203.2,373.3,217.1,359.4,234.2,359.4z"/>
		<circle class="st4" cx="234.2" cy="340.1" r="2.5"/>
		<circle class="st4" cx="234.2" cy="440.7" r="2.5"/>
		<circle class="st4" cx="284.6" cy="390.4" r="2.5"/>
		<circle class="st4" cx="184" cy="390.4" r="2.5"/>
	</g>
	<g class="st3">
		
			<path id="path4598-6_119_" sodipodi:ry="30.40559" sodipodi:cx="1163.1907" sodipodi:type="arc" sodipodi:cy="257.40527" sodipodi:rx="28.991377" class="st4" d="
			M234.3,229.1c17.1,0,31,13.9,31,31c0,17.1-13.9,31-31,31s-31-13.9-31-31C203.3,243,217.2,229.1,234.3,229.1z"/>
		<circle class="st4" cx="234.3" cy="209.8" r="2.5"/>
		<circle class="st4" cx="234.3" cy="310.4" r="2.5"/>
		<circle class="st4" cx="284.8" cy="260.1" r="2.5"/>
		<circle class="st4" cx="184.2" cy="260.1" r="2.5"/>
	</g>
	<g class="st3">
		
			<path id="path4598-6_120_" sodipodi:ry="30.40559" sodipodi:cx="1163.1907" sodipodi:type="arc" sodipodi:cy="257.40527" sodipodi:rx="28.991377" class="st4" d="
			M367.5,229.5c17.1,0,31,13.9,31,31c0,17.1-13.9,31-31,31c-17.1,0-31-13.9-31-31C336.5,243.4,350.4,229.5,367.5,229.5z"/>
		<circle class="st4" cx="367.5" cy="210.3" r="2.5"/>
		<circle class="st4" cx="367.5" cy="310.8" r="2.5"/>
		<circle class="st4" cx="418" cy="260.5" r="2.5"/>
		<circle class="st4" cx="317.4" cy="260.5" r="2.5"/>
	</g>
	<g class="st3">
		
			<path id="path4598-6_121_" sodipodi:ry="30.40559" sodipodi:cx="1163.1907" sodipodi:type="arc" sodipodi:cy="257.40527" sodipodi:rx="28.991377" class="st4" d="
			M367.5,359.4c17.1,0,31,13.9,31,31c0,17.1-13.9,31-31,31c-17.1,0-31-13.9-31-31C336.5,373.3,350.4,359.4,367.5,359.4z"/>
		<circle class="st4" cx="367.5" cy="340.2" r="2.5"/>
		<circle class="st4" cx="367.5" cy="440.7" r="2.5"/>
		<circle class="st4" cx="418" cy="390.5" r="2.5"/>
		<circle class="st4" cx="317.4" cy="390.5" r="2.5"/>
	</g>
	<g class="st3">
		
			<path id="path4598-6_122_" sodipodi:ry="30.40559" sodipodi:cx="1163.1907" sodipodi:type="arc" sodipodi:cy="257.40527" sodipodi:rx="28.991377" class="st4" d="
			M367.5,489.8c17.1,0,31,13.9,31,31c0,17.1-13.9,31-31,31s-31-13.9-31-31C336.5,503.6,350.4,489.8,367.5,489.8z"/>
		<circle class="st4" cx="367.5" cy="470.5" r="2.5"/>
		<circle class="st4" cx="367.5" cy="571" r="2.5"/>
		<circle class="st4" cx="418" cy="520.8" r="2.5"/>
		<circle class="st4" cx="317.4" cy="520.8" r="2.5"/>
	</g>
	<g class="st3">
		
			<path id="path4598-6_123_" sodipodi:ry="30.40559" sodipodi:cx="1163.1907" sodipodi:type="arc" sodipodi:cy="257.40527" sodipodi:rx="28.991377" class="st4" d="
			M500.7,489.8c17.1,0,31,13.9,31,31c0,17.1-13.9,31-31,31s-31-13.9-31-31C469.7,503.7,483.6,489.8,500.7,489.8z"/>
		<circle class="st4" cx="500.7" cy="470.5" r="2.5"/>
		<circle class="st4" cx="500.7" cy="571.1" r="2.5"/>
		<circle class="st4" cx="551.2" cy="520.8" r="2.5"/>
		<circle class="st4" cx="450.6" cy="520.8" r="2.5"/>
	</g>
	<g class="st3">
		
			<path id="path4598-6_124_" sodipodi:ry="30.40559" sodipodi:cx="1163.1907" sodipodi:type="arc" sodipodi:cy="257.40527" sodipodi:rx="28.991377" class="st4" d="
			M500.6,359.5c17.1,0,31,13.9,31,31c0,17.1-13.9,31-31,31c-17.1,0-31-13.9-31-31C469.6,373.3,483.5,359.5,500.6,359.5z"/>
		<circle class="st4" cx="500.6" cy="340.2" r="2.5"/>
		<circle class="st4" cx="500.6" cy="440.7" r="2.5"/>
		<circle class="st4" cx="551" cy="390.5" r="2.5"/>
		<circle class="st4" cx="450.4" cy="390.5" r="2.5"/>
	</g>
	<g class="st3">
		
			<path id="path4598-6_125_" sodipodi:ry="30.40559" sodipodi:cx="1163.1907" sodipodi:type="arc" sodipodi:cy="257.40527" sodipodi:rx="28.991377" class="st4" d="
			M500.7,229.1c17.1,0,31,13.9,31,31c0,17.1-13.9,31-31,31s-31-13.9-31-31C469.7,243,483.6,229.1,500.7,229.1z"/>
		<circle class="st4" cx="500.7" cy="209.8" r="2.5"/>
		<circle class="st4" cx="500.7" cy="310.4" r="2.5"/>
		<circle class="st4" cx="551.2" cy="260.1" r="2.5"/>
		<circle class="st4" cx="450.6" cy="260.1" r="2.5"/>
	</g>
</g>
<g id="Well_Walls" class="st0">
	<g class="st3">
		
			<path id="path4598-6_140_" sodipodi:ry="30.40559" sodipodi:cx="1163.1907" sodipodi:type="arc" sodipodi:cy="257.40527" sodipodi:rx="28.991377" class="st4" d="
			M235.1,210.3c0,17.1-13.9,31-31,31s-31-13.9-31-31s13.9-31,31-31S235.1,193.2,235.1,210.3z"/>
		<circle class="st4" cx="204.1" cy="160" r="2.5"/>
		<path class="st4" d="M245.6,197.6L245.6,197.6c-0.1,0-0.1,0-0.1,0h-5.8c-1.9-5.3-5-10.1-8.9-14c-3.9-3.9-8.7-7-14-8.9v-6
			c0-7.7-5.7-14-12.7-14h0h0c-7,0-12.7,6.3-12.7,14v0.1v5.8c-5.3,1.9-10.1,5-14,8.9c-3.9,3.9-7,8.7-8.9,14h-5.8h-0.1
			c-7.7,0-14,5.7-14,12.7c0,7,6.3,12.7,14,12.7h0.1h5.8c1.9,5.3,5,10.1,8.9,14c3.9,3.9,8.7,7,14,8.9v6c0,7.7,5.7,14,12.7,14h0h0
			c7,0,12.7-6.3,12.7-14v-0.1v-5.8c5.3-1.9,10.1-5,14-8.9c3.9-3.9,7-8.7,8.9-14h6c7.7,0,14-5.7,14-12.7
			C259.6,203.3,253.3,197.6,245.6,197.6z"/>
		<circle class="st4" cx="254.5" cy="210.3" r="2.5"/>
		<circle class="st4" cx="204.1" cy="260.5" r="2.5"/>
		<circle class="st4" cx="153.9" cy="210.3" r="2.5"/>
	</g>
	<g class="st3">
		
			<path id="path4598-6_139_" sodipodi:ry="30.40559" sodipodi:cx="1163.1907" sodipodi:type="arc" sodipodi:cy="257.40527" sodipodi:rx="28.991377" class="st4" d="
			M235.1,354.2c0,17.1-13.9,31-31,31s-31-13.9-31-31c0-17.1,13.9-31,31-31S235.1,337.1,235.1,354.2z"/>
		<circle class="st4" cx="204.1" cy="303.9" r="2.5"/>
		<path class="st4" d="M245.6,341.5L245.6,341.5c-0.1,0-0.1,0-0.1,0h-5.8c-1.9-5.3-5-10.1-8.9-14c-3.9-3.9-8.7-7-14-8.9v-6
			c0-7.7-5.7-14-12.7-14h0h0c-7,0-12.7,6.3-12.7,14v0.1v5.8c-5.3,1.9-10.1,5-14,8.9c-3.9,3.9-7,8.7-8.9,14h-5.8h-0.1
			c-7.7,0-14,5.7-14,12.7c0,7,6.3,12.7,14,12.7h0.1h5.8c1.9,5.3,5,10.1,8.9,14c3.9,3.9,8.7,7,14,8.9v6c0,7.7,5.7,14,12.7,14h0h0
			c7,0,12.7-6.3,12.7-14v-0.1v-5.8c5.3-1.9,10.1-5,14-8.9c3.9-3.9,7-8.7,8.9-14h6c7.7,0,14-5.7,14-12.7
			C259.6,347.2,253.3,341.5,245.6,341.5z"/>
		<circle class="st4" cx="254.5" cy="354.2" r="2.5"/>
		<circle class="st4" cx="204.1" cy="404.4" r="2.5"/>
		<circle class="st4" cx="153.9" cy="354.2" r="2.5"/>
	</g>
	<g class="st3">
		
			<path id="path4598-6_138_" sodipodi:ry="30.40559" sodipodi:cx="1163.1907" sodipodi:type="arc" sodipodi:cy="257.40527" sodipodi:rx="28.991377" class="st4" d="
			M235.1,498.3c0,17.1-13.9,31-31,31s-31-13.9-31-31s13.9-31,31-31S235.1,481.2,235.1,498.3z"/>
		<circle class="st4" cx="204.1" cy="448" r="2.5"/>
		<path class="st4" d="M245.6,485.6L245.6,485.6c-0.1,0-0.1,0-0.1,0h-5.8c-1.9-5.3-5-10.1-8.9-14c-3.9-3.9-8.7-7-14-8.9v-6
			c0-7.7-5.7-14-12.7-14h0h0c-7,0-12.7,6.3-12.7,14v0.1v5.8c-5.3,1.9-10.1,5-14,8.9c-3.9,3.9-7,8.7-8.9,14h-5.8h-0.1
			c-7.7,0-14,5.7-14,12.7s6.3,12.7,14,12.7h0.1h5.8c1.9,5.3,5,10.1,8.9,14c3.9,3.9,8.7,7,14,8.9v6c0,7.7,5.7,14,12.7,14h0h0
			c7,0,12.7-6.3,12.7-14v-0.1v-5.8c5.3-1.9,10.1-5,14-8.9c3.9-3.9,7-8.7,8.9-14h6c7.7,0,14-5.7,14-12.7
			C259.6,491.3,253.3,485.6,245.6,485.6z"/>
		<circle class="st4" cx="254.5" cy="498.3" r="2.5"/>
		<circle class="st4" cx="204.1" cy="548.6" r="2.5"/>
		<circle class="st4" cx="153.9" cy="498.3" r="2.5"/>
	</g>
	<g class="st3">
		
			<path id="path4598-6_143_" sodipodi:ry="30.40559" sodipodi:cx="1163.1907" sodipodi:type="arc" sodipodi:cy="257.40527" sodipodi:rx="28.991377" class="st4" d="
			M332.2,282.4c0,17.1-13.9,31-31,31c-17.1,0-31-13.9-31-31c0-17.1,13.9-31,31-31C318.3,251.4,332.2,265.3,332.2,282.4z"/>
		<circle class="st4" cx="301.1" cy="232.1" r="2.5"/>
		<path class="st4" d="M342.7,269.8L342.7,269.8c-0.1,0-0.1,0-0.1,0h-5.8c-1.9-5.3-5-10.1-8.9-14c-3.9-3.9-8.7-7-14-8.9v-6
			c0-7.7-5.7-14-12.7-14h0h0c-7,0-12.7,6.3-12.7,14v0.1v5.8c-5.3,1.9-10.1,5-14,8.9c-3.9,3.9-7,8.7-8.9,14h-5.8h-0.1
			c-7.7,0-14,5.7-14,12.7c0,7,6.3,12.7,14,12.7h0.1h5.8c1.9,5.3,5,10.1,8.9,14c3.9,3.9,8.7,7,14,8.9v6c0,7.7,5.7,14,12.7,14h0h0
			c7,0,12.7-6.3,12.7-14v-0.1V318c5.3-1.9,10.1-5,14-8.9c3.9-3.9,7-8.7,8.9-14h6c7.7,0,14-5.7,14-12.7
			C356.7,275.4,350.4,269.8,342.7,269.8z"/>
		<circle class="st4" cx="351.5" cy="282.4" r="2.5"/>
		<circle class="st4" cx="301.1" cy="332.7" r="2.5"/>
		<circle class="st4" cx="251" cy="282.4" r="2.5"/>
	</g>
	<g class="st3">
		
			<path id="path4598-6_142_" sodipodi:ry="30.40559" sodipodi:cx="1163.1907" sodipodi:type="arc" sodipodi:cy="257.40527" sodipodi:rx="28.991377" class="st4" d="
			M332.2,426.3c0,17.1-13.9,31-31,31c-17.1,0-31-13.9-31-31c0-17.1,13.9-31,31-31C318.3,395.3,332.2,409.2,332.2,426.3z"/>
		<circle class="st4" cx="301.1" cy="376" r="2.5"/>
		<path class="st4" d="M342.7,413.7L342.7,413.7c-0.1,0-0.1,0-0.1,0h-5.8c-1.9-5.3-5-10.1-8.9-14c-3.9-3.9-8.7-7-14-8.9v-6
			c0-7.7-5.7-14-12.7-14h0h0c-7,0-12.7,6.3-12.7,14v0.1v5.8c-5.3,1.9-10.1,5-14,8.9c-3.9,3.9-7,8.7-8.9,14h-5.8h-0.1
			c-7.7,0-14,5.7-14,12.7s6.3,12.7,14,12.7h0.1h5.8c1.9,5.3,5,10.1,8.9,14c3.9,3.9,8.7,7,14,8.9v6c0,7.7,5.7,14,12.7,14h0h0
			c7,0,12.7-6.3,12.7-14v-0.1v-5.8c5.3-1.9,10.1-5,14-8.9c3.9-3.9,7-8.7,8.9-14h6c7.7,0,14-5.7,14-12.7
			C356.7,419.3,350.4,413.7,342.7,413.7z"/>
		<circle class="st4" cx="351.5" cy="426.3" r="2.5"/>
		<circle class="st4" cx="301.1" cy="476.6" r="2.5"/>
		<circle class="st4" cx="251" cy="426.3" r="2.5"/>
	</g>
	<g class="st3">
		
			<path id="path4598-6_141_" sodipodi:ry="30.40559" sodipodi:cx="1163.1907" sodipodi:type="arc" sodipodi:cy="257.40527" sodipodi:rx="28.991377" class="st4" d="
			M332.2,570.5c0,17.1-13.9,31-31,31c-17.1,0-31-13.9-31-31c0-17.1,13.9-31,31-31C318.3,539.4,332.2,553.3,332.2,570.5z"/>
		<circle class="st4" cx="301.1" cy="520.2" r="2.5"/>
		<path class="st4" d="M342.7,557.8L342.7,557.8c-0.1,0-0.1,0-0.1,0h-5.8c-1.9-5.3-5-10.1-8.9-14c-3.9-3.9-8.7-7-14-8.9v-6
			c0-7.7-5.7-14-12.7-14h0h0c-7,0-12.7,6.3-12.7,14v0.1v5.8c-5.3,1.9-10.1,5-14,8.9c-3.9,3.9-7,8.7-8.9,14h-5.8h-0.1
			c-7.7,0-14,5.7-14,12.7c0,7,6.3,12.7,14,12.7h0.1h5.8c1.9,5.3,5,10.1,8.9,14c3.9,3.9,8.7,7,14,8.9v6c0,7.7,5.7,14,12.7,14h0h0
			c7,0,12.7-6.3,12.7-14v-0.1v-5.8c5.3-1.9,10.1-5,14-8.9c3.9-3.9,7-8.7,8.9-14h6c7.7,0,14-5.7,14-12.7
			C356.7,563.5,350.4,557.8,342.7,557.8z"/>
		<circle class="st4" cx="351.5" cy="570.5" r="2.5"/>
		<circle class="st4" cx="301.1" cy="620.7" r="2.5"/>
		<circle class="st4" cx="251" cy="570.5" r="2.5"/>
	</g>
	<g class="st3">
		
			<path id="path4598-6_146_" sodipodi:ry="30.40559" sodipodi:cx="1163.1907" sodipodi:type="arc" sodipodi:cy="257.40527" sodipodi:rx="28.991377" class="st4" d="
			M405.8,210.2c0,17.1-13.9,31-31,31c-17.1,0-31-13.9-31-31s13.9-31,31-31C391.9,179.2,405.8,193,405.8,210.2z"/>
		<circle class="st4" cx="374.8" cy="159.9" r="2.5"/>
		<path class="st4" d="M416.4,197.5L416.4,197.5c-0.1,0-0.1,0-0.1,0h-5.8c-1.9-5.3-5-10.1-8.9-14c-3.9-3.9-8.7-7-14-8.9v-6
			c0-7.7-5.7-14-12.7-14h0h0c-7,0-12.7,6.3-12.7,14v0.1v5.8c-5.3,1.9-10.1,5-14,8.9c-3.9,3.9-7,8.7-8.9,14h-5.8h-0.1
			c-7.7,0-14,5.7-14,12.7c0,7,6.3,12.7,14,12.7h0.1h5.8c1.9,5.3,5,10.1,8.9,14c3.9,3.9,8.7,7,14,8.9v6c0,7.7,5.7,14,12.7,14h0
			c0,0,0,0,0,0c7,0,12.7-6.3,12.7-14v-0.1v-5.8c5.3-1.9,10.1-5,14-8.9c3.9-3.9,7-8.7,8.9-14h6c7.7,0,14-5.7,14-12.7
			C430.4,203.2,424.1,197.5,416.4,197.5z"/>
		<circle class="st4" cx="425.2" cy="210.2" r="2.5"/>
		<circle class="st4" cx="374.8" cy="260.4" r="2.5"/>
		<circle class="st4" cx="324.6" cy="210.2" r="2.5"/>
	</g>
	<g class="st3">
		
			<path id="path4598-6_145_" sodipodi:ry="30.40559" sodipodi:cx="1163.1907" sodipodi:type="arc" sodipodi:cy="257.40527" sodipodi:rx="28.991377" class="st4" d="
			M405.8,354.1c0,17.1-13.9,31-31,31c-17.1,0-31-13.9-31-31c0-17.1,13.9-31,31-31C391.9,323.1,405.8,336.9,405.8,354.1z"/>
		<circle class="st4" cx="374.8" cy="303.8" r="2.5"/>
		<path class="st4" d="M416.4,341.4L416.4,341.4c-0.1,0-0.1,0-0.1,0h-5.8c-1.9-5.3-5-10.1-8.9-14c-3.9-3.9-8.7-7-14-8.9v-6
			c0-7.7-5.7-14-12.7-14h0h0c-7,0-12.7,6.3-12.7,14v0.1v5.8c-5.3,1.9-10.1,5-14,8.9c-3.9,3.9-7,8.7-8.9,14h-5.8h-0.1
			c-7.7,0-14,5.7-14,12.7s6.3,12.7,14,12.7h0.1h5.8c1.9,5.3,5,10.1,8.9,14c3.9,3.9,8.7,7,14,8.9v6c0,7.7,5.7,14,12.7,14h0
			c0,0,0,0,0,0c7,0,12.7-6.3,12.7-14v-0.1v-5.8c5.3-1.9,10.1-5,14-8.9c3.9-3.9,7-8.7,8.9-14h6c7.7,0,14-5.7,14-12.7
			C430.4,347.1,424.1,341.4,416.4,341.4z"/>
		<circle class="st4" cx="425.2" cy="354.1" r="2.5"/>
		<circle class="st4" cx="374.8" cy="404.3" r="2.5"/>
		<circle class="st4" cx="324.6" cy="354.1" r="2.5"/>
	</g>
	<g class="st3">
		
			<path id="path4598-6_144_" sodipodi:ry="30.40559" sodipodi:cx="1163.1907" sodipodi:type="arc" sodipodi:cy="257.40527" sodipodi:rx="28.991377" class="st4" d="
			M405.8,498.2c0,17.1-13.9,31-31,31c-17.1,0-31-13.9-31-31c0-17.1,13.9-31,31-31C391.9,467.2,405.8,481.1,405.8,498.2z"/>
		<circle class="st4" cx="374.8" cy="447.9" r="2.5"/>
		<path class="st4" d="M416.4,485.5L416.4,485.5c-0.1,0-0.1,0-0.1,0h-5.8c-1.9-5.3-5-10.1-8.9-14c-3.9-3.9-8.7-7-14-8.9v-6
			c0-7.7-5.7-14-12.7-14h0h0c-7,0-12.7,6.3-12.7,14v0.1v5.8c-5.3,1.9-10.1,5-14,8.9c-3.9,3.9-7,8.7-8.9,14h-5.8h-0.1
			c-7.7,0-14,5.7-14,12.7s6.3,12.7,14,12.7h0.1h5.8c1.9,5.3,5,10.1,8.9,14c3.9,3.9,8.7,7,14,8.9v6c0,7.7,5.7,14,12.7,14h0
			c0,0,0,0,0,0c7,0,12.7-6.3,12.7-14v-0.1v-5.8c5.3-1.9,10.1-5,14-8.9c3.9-3.9,7-8.7,8.9-14h6c7.7,0,14-5.7,14-12.7
			C430.4,491.2,424.1,485.5,416.4,485.5z"/>
		<circle class="st4" cx="425.2" cy="498.2" r="2.5"/>
		<circle class="st4" cx="374.8" cy="548.5" r="2.5"/>
		<circle class="st4" cx="324.6" cy="498.2" r="2.5"/>
	</g>
	<g class="st3">
		
			<path id="path4598-6_149_" sodipodi:ry="30.40559" sodipodi:cx="1163.1907" sodipodi:type="arc" sodipodi:cy="257.40527" sodipodi:rx="28.991377" class="st4" d="
			M489.9,282.3c0,17.1-13.9,31-31,31c-17.1,0-31-13.9-31-31c0-17.1,13.9-31,31-31C476,251.3,489.9,265.2,489.9,282.3z"/>
		<circle class="st4" cx="458.9" cy="232" r="2.5"/>
		<path class="st4" d="M500.4,269.6L500.4,269.6c-0.1,0-0.1,0-0.1,0h-5.8c-1.9-5.3-5-10.1-8.9-14c-3.9-3.9-8.7-7-14-8.9v-6
			c0-7.7-5.7-14-12.7-14h0h0c-7,0-12.7,6.3-12.7,14v0.1v5.8c-5.3,1.9-10.1,5-14,8.9c-3.9,3.9-7,8.7-8.9,14h-5.8h-0.1
			c-7.7,0-14,5.7-14,12.7s6.3,12.7,14,12.7h0.1h5.8c1.9,5.3,5,10.1,8.9,14c3.9,3.9,8.7,7,14,8.9v6c0,7.7,5.7,14,12.7,14h0h0
			c7,0,12.7-6.3,12.7-14v-0.1v-5.8c5.3-1.9,10.1-5,14-8.9c3.9-3.9,7-8.7,8.9-14h6c7.7,0,14-5.7,14-12.7
			C514.4,275.3,508.1,269.6,500.4,269.6z"/>
		<circle class="st4" cx="509.3" cy="282.3" r="2.5"/>
		<circle class="st4" cx="458.9" cy="332.6" r="2.5"/>
		<circle class="st4" cx="408.7" cy="282.3" r="2.5"/>
	</g>
	<g class="st3">
		
			<path id="path4598-6_148_" sodipodi:ry="30.40559" sodipodi:cx="1163.1907" sodipodi:type="arc" sodipodi:cy="257.40527" sodipodi:rx="28.991377" class="st4" d="
			M489.9,426.2c0,17.1-13.9,31-31,31c-17.1,0-31-13.9-31-31c0-17.1,13.9-31,31-31C476,395.2,489.9,409.1,489.9,426.2z"/>
		<circle class="st4" cx="458.9" cy="375.9" r="2.5"/>
		<path class="st4" d="M500.4,413.5L500.4,413.5c-0.1,0-0.1,0-0.1,0h-5.8c-1.9-5.3-5-10.1-8.9-14c-3.9-3.9-8.7-7-14-8.9v-6
			c0-7.7-5.7-14-12.7-14h0h0c-7,0-12.7,6.3-12.7,14v0.1v5.8c-5.3,1.9-10.1,5-14,8.9c-3.9,3.9-7,8.7-8.9,14h-5.8h-0.1
			c-7.7,0-14,5.7-14,12.7c0,7,6.3,12.7,14,12.7h0.1h5.8c1.9,5.3,5,10.1,8.9,14c3.9,3.9,8.7,7,14,8.9v6c0,7.7,5.7,14,12.7,14h0h0
			c7,0,12.7-6.3,12.7-14v-0.1v-5.8c5.3-1.9,10.1-5,14-8.9c3.9-3.9,7-8.7,8.9-14h6c7.7,0,14-5.7,14-12.7
			C514.4,419.2,508.1,413.5,500.4,413.5z"/>
		<circle class="st4" cx="509.3" cy="426.2" r="2.5"/>
		<circle class="st4" cx="458.9" cy="476.5" r="2.5"/>
		<circle class="st4" cx="408.7" cy="426.2" r="2.5"/>
	</g>
	<g class="st3">
		
			<path id="path4598-6_147_" sodipodi:ry="30.40559" sodipodi:cx="1163.1907" sodipodi:type="arc" sodipodi:cy="257.40527" sodipodi:rx="28.991377" class="st4" d="
			M489.9,570.4c0,17.1-13.9,31-31,31c-17.1,0-31-13.9-31-31s13.9-31,31-31C476,539.3,489.9,553.2,489.9,570.4z"/>
		<circle class="st4" cx="458.9" cy="520.1" r="2.5"/>
		<path class="st4" d="M500.4,557.7L500.4,557.7c-0.1,0-0.1,0-0.1,0h-5.8c-1.9-5.3-5-10.1-8.9-14c-3.9-3.9-8.7-7-14-8.9v-6
			c0-7.7-5.7-14-12.7-14h0h0c-7,0-12.7,6.3-12.7,14v0.1v5.8c-5.3,1.9-10.1,5-14,8.9c-3.9,3.9-7,8.7-8.9,14h-5.8h-0.1
			c-7.7,0-14,5.7-14,12.7s6.3,12.7,14,12.7h0.1h5.8c1.9,5.3,5,10.1,8.9,14c3.9,3.9,8.7,7,14,8.9v6c0,7.7,5.7,14,12.7,14h0h0
			c7,0,12.7-6.3,12.7-14v-0.1v-5.8c5.3-1.9,10.1-5,14-8.9c3.9-3.9,7-8.7,8.9-14h6c7.7,0,14-5.7,14-12.7
			C514.4,563.3,508.1,557.7,500.4,557.7z"/>
		<circle class="st4" cx="509.3" cy="570.4" r="2.5"/>
		<circle class="st4" cx="458.9" cy="620.6" r="2.5"/>
		<circle class="st4" cx="408.7" cy="570.4" r="2.5"/>
	</g>
</g>
<g id="WellBottoms" class="st0">
	<g class="st3">
		<circle class="st4" cx="288.5" cy="228.5" r="2.5"/>
		<path class="st4" d="M330,266.1L330,266.1c-0.1,0-0.1,0-0.1,0h-5.8c-1.9-5.3-5-10.1-8.9-14c-3.9-3.9-8.7-7-14-8.9v-6
			c0-7.7-5.7-14-12.7-14h0h0c-7,0-12.7,6.3-12.7,14v0.1v5.8c-5.3,1.9-10.1,5-14,8.9c-3.9,3.9-7,8.7-8.9,14h-5.8h-0.1
			c-7.7,0-14,5.7-14,12.7s6.3,12.7,14,12.7h0.1h5.8c1.9,5.3,5,10.1,8.9,14c3.9,3.9,8.7,7,14,8.9v6c0,7.7,5.7,14,12.7,14h0
			c0,0,0,0,0,0c7,0,12.7-6.3,12.7-14v-0.1v-5.8c5.3-1.9,10.1-5,14-8.9c3.9-3.9,7-8.7,8.9-14h6c7.7,0,14-5.7,14-12.7
			C344,271.8,337.8,266.1,330,266.1z"/>
		<circle class="st4" cx="338.9" cy="278.8" r="2.5"/>
		<circle class="st4" cx="288.5" cy="329.1" r="2.5"/>
		<circle class="st4" cx="238.3" cy="278.8" r="2.5"/>
	</g>
	<g class="st3">
		<circle class="st4" cx="288.5" cy="372.4" r="2.5"/>
		<path class="st4" d="M330,410L330,410c-0.1,0-0.1,0-0.1,0h-5.8c-1.9-5.3-5-10.1-8.9-14c-3.9-3.9-8.7-7-14-8.9v-6
			c0-7.7-5.7-14-12.7-14h0h0c-7,0-12.7,6.3-12.7,14v0.1v5.8c-5.3,1.9-10.1,5-14,8.9c-3.9,3.9-7,8.7-8.9,14h-5.8h-0.1
			c-7.7,0-14,5.7-14,12.7s6.3,12.7,14,12.7h0.1h5.8c1.9,5.3,5,10.1,8.9,14c3.9,3.9,8.7,7,14,8.9v6c0,7.7,5.7,14,12.7,14h0
			c0,0,0,0,0,0c7,0,12.7-6.3,12.7-14v-0.1v-5.8c5.3-1.9,10.1-5,14-8.9c3.9-3.9,7-8.7,8.9-14h6c7.7,0,14-5.7,14-12.7
			C344,415.7,337.8,410,330,410z"/>
		<circle class="st4" cx="338.9" cy="422.7" r="2.5"/>
		<circle class="st4" cx="288.5" cy="473" r="2.5"/>
		<circle class="st4" cx="238.3" cy="422.7" r="2.5"/>
	</g>
	<g class="st3">
		<circle class="st4" cx="288.5" cy="516.5" r="2.5"/>
		<path class="st4" d="M330,554.1L330,554.1c-0.1,0-0.1,0-0.1,0h-5.8c-1.9-5.3-5-10.1-8.9-14c-3.9-3.9-8.7-7-14-8.9v-6
			c0-7.7-5.7-14-12.7-14h0h0c-7,0-12.7,6.3-12.7,14v0.1v5.8c-5.3,1.9-10.1,5-14,8.9c-3.9,3.9-7,8.7-8.9,14h-5.8h-0.1
			c-7.7,0-14,5.7-14,12.7c0,7,6.3,12.7,14,12.7h0.1h5.8c1.9,5.3,5,10.1,8.9,14c3.9,3.9,8.7,7,14,8.9v6c0,7.7,5.7,14,12.7,14h0
			c0,0,0,0,0,0c7,0,12.7-6.3,12.7-14v-0.1v-5.8c5.3-1.9,10.1-5,14-8.9c3.9-3.9,7-8.7,8.9-14h6c7.7,0,14-5.7,14-12.7
			C344,559.8,337.8,554.1,330,554.1z"/>
		<circle class="st4" cx="338.9" cy="566.8" r="2.5"/>
		<circle class="st4" cx="288.5" cy="617.1" r="2.5"/>
		<circle class="st4" cx="238.3" cy="566.8" r="2.5"/>
	</g>
	<g class="st3">
		<circle class="st4" cx="210.6" cy="164.6" r="2.5"/>
		<path class="st4" d="M252.2,202.2L252.2,202.2c-0.1,0-0.1,0-0.1,0h-5.8c-1.9-5.3-5-10.1-8.9-14c-3.9-3.9-8.7-7-14-8.9v-6
			c0-7.7-5.7-14-12.7-14h0h0c-7,0-12.7,6.3-12.7,14v0.1v5.8c-5.3,1.9-10.1,5-14,8.9c-3.9,3.9-7,8.7-8.9,14h-5.8h-0.1
			c-7.7,0-14,5.7-14,12.7c0,7,6.3,12.7,14,12.7h0.1h5.8c1.9,5.3,5,10.1,8.9,14c3.9,3.9,8.7,7,14,8.9v6c0,7.7,5.7,14,12.7,14h0h0
			c7,0,12.7-6.3,12.7-14v-0.1v-5.8c5.3-1.9,10.1-5,14-8.9c3.9-3.9,7-8.7,8.9-14h6c7.7,0,14-5.7,14-12.7
			C266.2,207.9,259.9,202.2,252.2,202.2z"/>
		<circle class="st4" cx="261" cy="214.9" r="2.5"/>
		<circle class="st4" cx="210.6" cy="265.2" r="2.5"/>
		<circle class="st4" cx="160.4" cy="214.9" r="2.5"/>
	</g>
	<g class="st3">
		<circle class="st4" cx="210.6" cy="308.5" r="2.5"/>
		<path class="st4" d="M252.2,346.1L252.2,346.1c-0.1,0-0.1,0-0.1,0h-5.8c-1.9-5.3-5-10.1-8.9-14c-3.9-3.9-8.7-7-14-8.9v-6
			c0-7.7-5.7-14-12.7-14h0h0c-7,0-12.7,6.3-12.7,14v0.1v5.8c-5.3,1.9-10.1,5-14,8.9c-3.9,3.9-7,8.7-8.9,14h-5.8h-0.1
			c-7.7,0-14,5.7-14,12.7s6.3,12.7,14,12.7h0.1h5.8c1.9,5.3,5,10.1,8.9,14c3.9,3.9,8.7,7,14,8.9v6c0,7.7,5.7,14,12.7,14h0h0
			c7,0,12.7-6.3,12.7-14v-0.1v-5.8c5.3-1.9,10.1-5,14-8.9c3.9-3.9,7-8.7,8.9-14h6c7.7,0,14-5.7,14-12.7
			C266.2,351.8,259.9,346.1,252.2,346.1z"/>
		<circle class="st4" cx="261" cy="358.8" r="2.5"/>
		<circle class="st4" cx="210.6" cy="409.1" r="2.5"/>
		<circle class="st4" cx="160.4" cy="358.8" r="2.5"/>
	</g>
	<g class="st3">
		<circle class="st4" cx="210.6" cy="452.6" r="2.5"/>
		<path class="st4" d="M252.2,490.3L252.2,490.3c-0.1,0-0.1,0-0.1,0h-5.8c-1.9-5.3-5-10.1-8.9-14c-3.9-3.9-8.7-7-14-8.9v-6
			c0-7.7-5.7-14-12.7-14h0h0c-7,0-12.7,6.3-12.7,14v0.1v5.8c-5.3,1.9-10.1,5-14,8.9c-3.9,3.9-7,8.7-8.9,14h-5.8h-0.1
			c-7.7,0-14,5.7-14,12.7c0,7,6.3,12.7,14,12.7h0.1h5.8c1.9,5.3,5,10.1,8.9,14c3.9,3.9,8.7,7,14,8.9v6c0,7.7,5.7,14,12.7,14h0h0
			c7,0,12.7-6.3,12.7-14v-0.1v-5.8c5.3-1.9,10.1-5,14-8.9c3.9-3.9,7-8.7,8.9-14h6c7.7,0,14-5.7,14-12.7
			C266.2,495.9,259.9,490.3,252.2,490.3z"/>
		<circle class="st4" cx="261" cy="502.9" r="2.5"/>
		<circle class="st4" cx="210.6" cy="553.2" r="2.5"/>
		<circle class="st4" cx="160.4" cy="502.9" r="2.5"/>
	</g>
	<g class="st3">
		<circle class="st4" cx="378.4" cy="164.5" r="2.5"/>
		<path class="st4" d="M419.9,202.1L419.9,202.1c-0.1,0-0.1,0-0.1,0H414c-1.9-5.3-5-10.1-8.9-14c-3.9-3.9-8.7-7-14-8.9v-6
			c0-7.7-5.7-14-12.7-14h0h0c-7,0-12.7,6.3-12.7,14v0.1v5.8c-5.3,1.9-10.1,5-14,8.9c-3.9,3.9-7,8.7-8.9,14h-5.8h-0.1
			c-7.7,0-14,5.7-14,12.7c0,7,6.3,12.7,14,12.7h0.1h5.8c1.9,5.3,5,10.1,8.9,14c3.9,3.9,8.7,7,14,8.9v6c0,7.7,5.7,14,12.7,14h0h0
			c7,0,12.7-6.3,12.7-14v-0.1v-5.8c5.3-1.9,10.1-5,14-8.9c3.9-3.9,7-8.7,8.9-14h6c7.7,0,14-5.7,14-12.7
			C433.9,207.8,427.6,202.1,419.9,202.1z"/>
		<circle class="st4" cx="428.8" cy="214.8" r="2.5"/>
		<circle class="st4" cx="378.4" cy="265.1" r="2.5"/>
		<circle class="st4" cx="328.2" cy="214.8" r="2.5"/>
	</g>
	<g class="st3">
		<circle class="st4" cx="378.4" cy="308.4" r="2.5"/>
		<path class="st4" d="M419.9,346L419.9,346c-0.1,0-0.1,0-0.1,0H414c-1.9-5.3-5-10.1-8.9-14c-3.9-3.9-8.7-7-14-8.9v-6
			c0-7.7-5.7-14-12.7-14h0h0c-7,0-12.7,6.3-12.7,14v0.1v5.8c-5.3,1.9-10.1,5-14,8.9c-3.9,3.9-7,8.7-8.9,14h-5.8h-0.1
			c-7.7,0-14,5.7-14,12.7s6.3,12.7,14,12.7h0.1h5.8c1.9,5.3,5,10.1,8.9,14c3.9,3.9,8.7,7,14,8.9v6c0,7.7,5.7,14,12.7,14h0h0
			c7,0,12.7-6.3,12.7-14v-0.1v-5.8c5.3-1.9,10.1-5,14-8.9c3.9-3.9,7-8.7,8.9-14h6c7.7,0,14-5.7,14-12.7
			C433.9,351.7,427.6,346,419.9,346z"/>
		<circle class="st4" cx="428.8" cy="358.7" r="2.5"/>
		<circle class="st4" cx="378.4" cy="409" r="2.5"/>
		<circle class="st4" cx="328.2" cy="358.7" r="2.5"/>
	</g>
	<g class="st3">
		<circle class="st4" cx="378.4" cy="452.5" r="2.5"/>
		<path class="st4" d="M419.9,490.2L419.9,490.2c-0.1,0-0.1,0-0.1,0H414c-1.9-5.3-5-10.1-8.9-14c-3.9-3.9-8.7-7-14-8.9v-6
			c0-7.7-5.7-14-12.7-14h0h0c-7,0-12.7,6.3-12.7,14v0.1v5.8c-5.3,1.9-10.1,5-14,8.9c-3.9,3.9-7,8.7-8.9,14h-5.8h-0.1
			c-7.7,0-14,5.7-14,12.7c0,7,6.3,12.7,14,12.7h0.1h5.8c1.9,5.3,5,10.1,8.9,14c3.9,3.9,8.7,7,14,8.9v6c0,7.7,5.7,14,12.7,14h0h0
			c7,0,12.7-6.3,12.7-14v-0.1v-5.8c5.3-1.9,10.1-5,14-8.9c3.9-3.9,7-8.7,8.9-14h6c7.7,0,14-5.7,14-12.7
			C433.9,495.8,427.6,490.2,419.9,490.2z"/>
		<circle class="st4" cx="428.8" cy="502.8" r="2.5"/>
		<circle class="st4" cx="378.4" cy="553.1" r="2.5"/>
		<circle class="st4" cx="328.2" cy="502.8" r="2.5"/>
	</g>
	<g class="st3">
		<circle class="st4" cx="451.2" cy="228.4" r="2.5"/>
		<path class="st4" d="M492.7,266L492.7,266c-0.1,0-0.1,0-0.1,0h-5.8c-1.9-5.3-5-10.1-8.9-14c-3.9-3.9-8.7-7-14-8.9v-6
			c0-7.7-5.7-14-12.7-14h0h0c-7,0-12.7,6.3-12.7,14v0.1v5.8c-5.3,1.9-10.1,5-14,8.9c-3.9,3.9-7,8.7-8.9,14h-5.8h-0.1
			c-7.7,0-14,5.7-14,12.7c0,7,6.3,12.7,14,12.7h0.1h5.8c1.9,5.3,5,10.1,8.9,14c3.9,3.9,8.7,7,14,8.9v6c0,7.7,5.7,14,12.7,14h0
			c0,0,0,0,0,0c7,0,12.7-6.3,12.7-14v-0.1v-5.8c5.3-1.9,10.1-5,14-8.9c3.9-3.9,7-8.7,8.9-14h6c7.7,0,14-5.7,14-12.7
			C506.8,271.7,500.5,266,492.7,266z"/>
		<circle class="st4" cx="501.6" cy="278.7" r="2.5"/>
		<circle class="st4" cx="451.2" cy="329" r="2.5"/>
		<circle class="st4" cx="401" cy="278.7" r="2.5"/>
	</g>
	<g class="st3">
		<circle class="st4" cx="451.2" cy="372.3" r="2.5"/>
		<path class="st4" d="M492.7,409.9L492.7,409.9c-0.1,0-0.1,0-0.1,0h-5.8c-1.9-5.3-5-10.1-8.9-14c-3.9-3.9-8.7-7-14-8.9v-6
			c0-7.7-5.7-14-12.7-14h0h0c-7,0-12.7,6.3-12.7,14v0.1v5.8c-5.3,1.9-10.1,5-14,8.9c-3.9,3.9-7,8.7-8.9,14h-5.8h-0.1
			c-7.7,0-14,5.7-14,12.7s6.3,12.7,14,12.7h0.1h5.8c1.9,5.3,5,10.1,8.9,14c3.9,3.9,8.7,7,14,8.9v6c0,7.7,5.7,14,12.7,14h0
			c0,0,0,0,0,0c7,0,12.7-6.3,12.7-14V464v-5.8c5.3-1.9,10.1-5,14-8.9c3.9-3.9,7-8.7,8.9-14h6c7.7,0,14-5.7,14-12.7
			C506.8,415.6,500.5,409.9,492.7,409.9z"/>
		<circle class="st4" cx="501.6" cy="422.6" r="2.5"/>
		<circle class="st4" cx="451.2" cy="472.9" r="2.5"/>
		<circle class="st4" cx="401" cy="422.6" r="2.5"/>
	</g>
	<g class="st3">
		<circle class="st4" cx="451.2" cy="516.4" r="2.5"/>
		<path class="st4" d="M492.7,554L492.7,554c-0.1,0-0.1,0-0.1,0h-5.8c-1.9-5.3-5-10.1-8.9-14c-3.9-3.9-8.7-7-14-8.9v-6
			c0-7.7-5.7-14-12.7-14h0h0c-7,0-12.7,6.3-12.7,14v0.1v5.8c-5.3,1.9-10.1,5-14,8.9c-3.9,3.9-7,8.7-8.9,14h-5.8h-0.1
			c-7.7,0-14,5.7-14,12.7c0,7,6.3,12.7,14,12.7h0.1h5.8c1.9,5.3,5,10.1,8.9,14c3.9,3.9,8.7,7,14,8.9v6c0,7.7,5.7,14,12.7,14h0
			c0,0,0,0,0,0c7,0,12.7-6.3,12.7-14v-0.1v-5.8c5.3-1.9,10.1-5,14-8.9c3.9-3.9,7-8.7,8.9-14h6c7.7,0,14-5.7,14-12.7
			C506.8,559.7,500.5,554,492.7,554z"/>
		<circle class="st4" cx="501.6" cy="566.7" r="2.5"/>
		<circle class="st4" cx="451.2" cy="617" r="2.5"/>
		<circle class="st4" cx="401" cy="566.7" r="2.5"/>
	</g>
</g>
<g id="Doors" class="st0">
	<circle class="st1" cx="167.9" cy="195" r="5.4"/>
	<circle class="st1" cx="34.7" cy="195" r="5.4"/>
	<circle class="st1" cx="101.3" cy="325.3" r="5.4"/>
	<circle class="st1" cx="167.9" cy="325.3" r="5.4"/>
	<circle class="st1" cx="34.7" cy="325.3" r="5.4"/>
	<circle class="st1" cx="101.3" cy="195" r="5.4"/>
	<circle class="st1" cx="167.9" cy="260.1" r="5.4"/>
	<circle class="st1" cx="34.7" cy="260.1" r="5.4"/>
	<circle class="st1" cx="101.3" cy="455.6" r="5.4"/>
	<circle class="st1" cx="167.9" cy="455.6" r="5.4"/>
	<circle class="st1" cx="34.7" cy="455.6" r="5.4"/>
	<circle class="st1" cx="167.9" cy="390.4" r="5.4"/>
	<circle class="st1" cx="34.7" cy="390.4" r="5.4"/>
	<circle class="st1" cx="101.3" cy="585.9" r="5.4"/>
	<circle class="st1" cx="167.9" cy="585.9" r="5.4"/>
	<circle class="st1" cx="34.7" cy="585.9" r="5.4"/>
	<circle class="st1" cx="167.9" cy="520.7" r="5.4"/>
	<circle class="st1" cx="34.7" cy="520.7" r="5.4"/>
	<circle class="st1" cx="301.1" cy="195" r="5.4"/>
	<circle class="st1" cx="234.5" cy="325.3" r="5.4"/>
	<circle class="st1" cx="301.1" cy="325.3" r="5.4"/>
	<circle class="st1" cx="234.5" cy="195" r="5.4"/>
	<circle class="st1" cx="301.1" cy="260.1" r="5.4"/>
	<circle class="st1" cx="234.5" cy="455.6" r="5.4"/>
	<circle class="st1" cx="301.1" cy="455.6" r="5.4"/>
	<circle class="st1" cx="301.1" cy="390.4" r="5.4"/>
	<circle class="st1" cx="234.5" cy="585.9" r="5.4"/>
	<circle class="st1" cx="301.1" cy="585.9" r="5.4"/>
	<circle class="st1" cx="301.1" cy="520.7" r="5.4"/>
	<circle class="st1" cx="434.3" cy="195" r="5.4"/>
	<circle class="st1" cx="367.7" cy="325.3" r="5.4"/>
	<circle class="st1" cx="434.3" cy="325.3" r="5.4"/>
	<circle class="st1" cx="367.7" cy="195" r="5.4"/>
	<circle class="st1" cx="434.3" cy="260.1" r="5.4"/>
	<circle class="st1" cx="367.7" cy="455.6" r="5.4"/>
	<circle class="st1" cx="434.3" cy="455.6" r="5.4"/>
	<circle class="st1" cx="434.3" cy="390.4" r="5.4"/>
	<circle class="st1" cx="367.7" cy="585.9" r="5.4"/>
	<circle class="st1" cx="434.3" cy="585.9" r="5.4"/>
	<circle class="st1" cx="434.3" cy="520.7" r="5.4"/>
	<circle class="st1" cx="567.5" cy="195" r="5.4"/>
	<circle class="st1" cx="500.9" cy="325.3" r="5.4"/>
	<circle class="st1" cx="567.5" cy="325.3" r="5.4"/>
	<circle class="st1" cx="500.9" cy="195" r="5.4"/>
	<circle class="st1" cx="567.5" cy="260.1" r="5.4"/>
	<circle class="st1" cx="500.9" cy="455.6" r="5.4"/>
	<circle class="st1" cx="567.5" cy="455.6" r="5.4"/>
	<circle class="st1" cx="567.5" cy="390.4" r="5.4"/>
	<circle class="st1" cx="500.9" cy="585.9" r="5.4"/>
	<circle class="st1" cx="567.5" cy="585.9" r="5.4"/>
	<circle class="st1" cx="567.5" cy="520.7" r="5.4"/>
	<rect x="20.4" y="180.7" class="st1" width="561.3" height="419.5"/>
	<g class="st3">
		
			<path id="path4598-6_151_" sodipodi:ry="30.40559" sodipodi:cx="1163.1907" sodipodi:type="arc" sodipodi:cy="257.40527" sodipodi:rx="28.991377" class="st4" d="
			M139.1,255.7c0,20.9-17,37.9-37.9,37.9c-20.9,0-37.9-17-37.9-37.9c0-20.9,17-37.9,37.9-37.9C122.2,217.8,139.1,234.7,139.1,255.7z
			"/>
		
			<path id="path4598-6_150_" sodipodi:ry="30.40559" sodipodi:cx="1163.1907" sodipodi:type="arc" sodipodi:cy="257.40527" sodipodi:rx="28.991377" class="st4" d="
			M106.2,223.9c0,2.6-2.1,4.7-4.7,4.7c-2.6,0-4.7-2.1-4.7-4.7c0-2.6,2.1-4.7,4.7-4.7C104.1,219.2,106.2,221.3,106.2,223.9z"/>
	</g>
	<g class="st3">
		<circle class="st4" cx="101.1" cy="209.8" r="2.5"/>
		<circle class="st4" cx="151.5" cy="260.1" r="2.5"/>
		<circle class="st4" cx="101.1" cy="310.4" r="2.5"/>
		<circle class="st4" cx="51" cy="260.1" r="2.5"/>
	</g>
	<g class="st3">
		
			<path id="path4598-6_153_" sodipodi:ry="30.40559" sodipodi:cx="1163.1907" sodipodi:type="arc" sodipodi:cy="257.40527" sodipodi:rx="28.991377" class="st4" d="
			M139.2,386c0,20.9-17,37.9-37.9,37.9c-20.9,0-37.9-17-37.9-37.9c0-20.9,17-37.9,37.9-37.9C122.2,348.1,139.2,365,139.2,386z"/>
		
			<path id="path4598-6_152_" sodipodi:ry="30.40559" sodipodi:cx="1163.1907" sodipodi:type="arc" sodipodi:cy="257.40527" sodipodi:rx="28.991377" class="st4" d="
			M106.2,354.2c0,2.6-2.1,4.7-4.7,4.7c-2.6,0-4.7-2.1-4.7-4.7c0-2.6,2.1-4.7,4.7-4.7C104.1,349.5,106.2,351.6,106.2,354.2z"/>
	</g>
	<g class="st3">
		<circle class="st4" cx="101.2" cy="340.1" r="2.5"/>
		<circle class="st4" cx="151.6" cy="390.4" r="2.5"/>
		<circle class="st4" cx="101.2" cy="440.7" r="2.5"/>
		<circle class="st4" cx="51" cy="390.4" r="2.5"/>
	</g>
	<g class="st3">
		
			<path id="path4598-6_155_" sodipodi:ry="30.40559" sodipodi:cx="1163.1907" sodipodi:type="arc" sodipodi:cy="257.40527" sodipodi:rx="28.991377" class="st4" d="
			M139.2,516.3c0,20.9-17,37.9-37.9,37.9c-20.9,0-37.9-17-37.9-37.9c0-20.9,17-37.9,37.9-37.9C122.2,478.4,139.2,495.3,139.2,516.3z
			"/>
		
			<path id="path4598-6_154_" sodipodi:ry="30.40559" sodipodi:cx="1163.1907" sodipodi:type="arc" sodipodi:cy="257.40527" sodipodi:rx="28.991377" class="st4" d="
			M106.2,484.5c0,2.6-2.1,4.7-4.7,4.7c-2.6,0-4.7-2.1-4.7-4.7c0-2.6,2.1-4.7,4.7-4.7C104.1,479.8,106.2,481.9,106.2,484.5z"/>
	</g>
	<g class="st3">
		<circle class="st4" cx="101.2" cy="470.4" r="2.5"/>
		<circle class="st4" cx="151.6" cy="520.7" r="2.5"/>
		<circle class="st4" cx="101.2" cy="571" r="2.5"/>
		<circle class="st4" cx="51" cy="520.7" r="2.5"/>
	</g>
	<g class="st3">
		
			<path id="path4598-6_157_" sodipodi:ry="30.40559" sodipodi:cx="1163.1907" sodipodi:type="arc" sodipodi:cy="257.40527" sodipodi:rx="28.991377" class="st4" d="
			M272.4,516.3c0,20.9-17,37.9-37.9,37.9c-20.9,0-37.9-17-37.9-37.9c0-20.9,17-37.9,37.9-37.9C255.4,478.4,272.4,495.4,272.4,516.3z
			"/>
		
			<path id="path4598-6_156_" sodipodi:ry="30.40559" sodipodi:cx="1163.1907" sodipodi:type="arc" sodipodi:cy="257.40527" sodipodi:rx="28.991377" class="st4" d="
			M239.4,484.5c0,2.6-2.1,4.7-4.7,4.7c-2.6,0-4.7-2.1-4.7-4.7c0-2.6,2.1-4.7,4.7-4.7C237.3,479.8,239.4,481.9,239.4,484.5z"/>
	</g>
	<g class="st3">
		<circle class="st4" cx="234.4" cy="470.5" r="2.5"/>
		<circle class="st4" cx="284.8" cy="520.8" r="2.5"/>
		<circle class="st4" cx="234.4" cy="571" r="2.5"/>
		<circle class="st4" cx="184.2" cy="520.8" r="2.5"/>
	</g>
	<g class="st3">
		
			<path id="path4598-6_159_" sodipodi:ry="30.40559" sodipodi:cx="1163.1907" sodipodi:type="arc" sodipodi:cy="257.40527" sodipodi:rx="28.991377" class="st4" d="
			M272.2,386c0,20.9-17,37.9-37.9,37.9c-20.9,0-37.9-17-37.9-37.9c0-20.9,17-37.9,37.9-37.9C255.3,348.1,272.2,365,272.2,386z"/>
		
			<path id="path4598-6_158_" sodipodi:ry="30.40559" sodipodi:cx="1163.1907" sodipodi:type="arc" sodipodi:cy="257.40527" sodipodi:rx="28.991377" class="st4" d="
			M239.3,354.2c0,2.6-2.1,4.7-4.7,4.7c-2.6,0-4.7-2.1-4.7-4.7c0-2.6,2.1-4.7,4.7-4.7C237.2,349.5,239.3,351.6,239.3,354.2z"/>
	</g>
	<g class="st3">
		<circle class="st4" cx="234.2" cy="340.1" r="2.5"/>
		<circle class="st4" cx="284.6" cy="390.4" r="2.5"/>
		<circle class="st4" cx="234.2" cy="440.7" r="2.5"/>
		<circle class="st4" cx="184" cy="390.4" r="2.5"/>
	</g>
	<g class="st3">
		
			<path id="path4598-6_161_" sodipodi:ry="30.40559" sodipodi:cx="1163.1907" sodipodi:type="arc" sodipodi:cy="257.40527" sodipodi:rx="28.991377" class="st4" d="
			M272.4,255.7c0,20.9-17,37.9-37.9,37.9c-20.9,0-37.9-17-37.9-37.9c0-20.9,17-37.9,37.9-37.9C255.4,217.8,272.4,234.7,272.4,255.7z
			"/>
		
			<path id="path4598-6_160_" sodipodi:ry="30.40559" sodipodi:cx="1163.1907" sodipodi:type="arc" sodipodi:cy="257.40527" sodipodi:rx="28.991377" class="st4" d="
			M239.4,223.9c0,2.6-2.1,4.7-4.7,4.7c-2.6,0-4.7-2.1-4.7-4.7c0-2.6,2.1-4.7,4.7-4.7C237.3,219.2,239.4,221.3,239.4,223.9z"/>
	</g>
	<g class="st3">
		<circle class="st4" cx="234.4" cy="209.8" r="2.5"/>
		<circle class="st4" cx="284.8" cy="260.1" r="2.5"/>
		<circle class="st4" cx="234.4" cy="310.4" r="2.5"/>
		<circle class="st4" cx="184.2" cy="260.1" r="2.5"/>
	</g>
	<g class="st3">
		
			<path id="path4598-6_163_" sodipodi:ry="30.40559" sodipodi:cx="1163.1907" sodipodi:type="arc" sodipodi:cy="257.40527" sodipodi:rx="28.991377" class="st4" d="
			M405.5,256.1c0,20.9-17,37.9-37.9,37.9c-20.9,0-37.9-17-37.9-37.9c0-20.9,17-37.9,37.9-37.9C388.6,218.2,405.5,235.1,405.5,256.1z
			"/>
		
			<path id="path4598-6_162_" sodipodi:ry="30.40559" sodipodi:cx="1163.1907" sodipodi:type="arc" sodipodi:cy="257.40527" sodipodi:rx="28.991377" class="st4" d="
			M372.6,224.3c0,2.6-2.1,4.7-4.7,4.7c-2.6,0-4.7-2.1-4.7-4.7c0-2.6,2.1-4.7,4.7-4.7C370.5,219.6,372.6,221.7,372.6,224.3z"/>
	</g>
	<g class="st3">
		<circle class="st4" cx="367.5" cy="210.3" r="2.5"/>
		<circle class="st4" cx="417.9" cy="260.5" r="2.5"/>
		<circle class="st4" cx="367.5" cy="310.8" r="2.5"/>
		<circle class="st4" cx="317.4" cy="260.6" r="2.5"/>
	</g>
	<g class="st3">
		
			<path id="path4598-6_165_" sodipodi:ry="30.40559" sodipodi:cx="1163.1907" sodipodi:type="arc" sodipodi:cy="257.40527" sodipodi:rx="28.991377" class="st4" d="
			M405.5,386c0,20.9-17,37.9-37.9,37.9c-20.9,0-37.9-17-37.9-37.9c0-20.9,17-37.9,37.9-37.9C388.6,348.1,405.5,365.1,405.5,386z"/>
		
			<path id="path4598-6_164_" sodipodi:ry="30.40559" sodipodi:cx="1163.1907" sodipodi:type="arc" sodipodi:cy="257.40527" sodipodi:rx="28.991377" class="st4" d="
			M372.6,354.2c0,2.6-2.1,4.7-4.7,4.7c-2.6,0-4.7-2.1-4.7-4.7c0-2.6,2.1-4.7,4.7-4.7C370.5,349.5,372.6,351.6,372.6,354.2z"/>
	</g>
	<g class="st3">
		<circle class="st4" cx="367.5" cy="340.2" r="2.5"/>
		<circle class="st4" cx="417.9" cy="390.5" r="2.5"/>
		<circle class="st4" cx="367.5" cy="440.7" r="2.5"/>
		<circle class="st4" cx="317.4" cy="390.5" r="2.5"/>
	</g>
	<g class="st3">
		
			<path id="path4598-6_167_" sodipodi:ry="30.40559" sodipodi:cx="1163.1907" sodipodi:type="arc" sodipodi:cy="257.40527" sodipodi:rx="28.991377" class="st4" d="
			M405.6,516.3c0,20.9-17,37.9-37.9,37.9c-20.9,0-37.9-17-37.9-37.9c0-20.9,17-37.9,37.9-37.9C388.6,478.4,405.6,495.4,405.6,516.3z
			"/>
		
			<path id="path4598-6_166_" sodipodi:ry="30.40559" sodipodi:cx="1163.1907" sodipodi:type="arc" sodipodi:cy="257.40527" sodipodi:rx="28.991377" class="st4" d="
			M372.6,484.5c0,2.6-2.1,4.7-4.7,4.7c-2.6,0-4.7-2.1-4.7-4.7c0-2.6,2.1-4.7,4.7-4.7C370.5,479.9,372.6,482,372.6,484.5z"/>
	</g>
	<g class="st3">
		<circle class="st4" cx="367.6" cy="470.5" r="2.5"/>
		<circle class="st4" cx="418" cy="520.8" r="2.5"/>
		<circle class="st4" cx="367.6" cy="571" r="2.5"/>
		<circle class="st4" cx="317.4" cy="520.8" r="2.5"/>
	</g>
	<g class="st3">
		
			<path id="path4598-6_169_" sodipodi:ry="30.40559" sodipodi:cx="1163.1907" sodipodi:type="arc" sodipodi:cy="257.40527" sodipodi:rx="28.991377" class="st4" d="
			M538.7,516.3c0,20.9-17,37.9-37.9,37.9c-20.9,0-37.9-17-37.9-37.9c0-20.9,17-37.9,37.9-37.9C521.8,478.4,538.7,495.4,538.7,516.3z
			"/>
		
			<path id="path4598-6_168_" sodipodi:ry="30.40559" sodipodi:cx="1163.1907" sodipodi:type="arc" sodipodi:cy="257.40527" sodipodi:rx="28.991377" class="st4" d="
			M505.8,484.6c0,2.6-2.1,4.7-4.7,4.7c-2.6,0-4.7-2.1-4.7-4.7c0-2.6,2.1-4.7,4.7-4.7C503.7,479.9,505.8,482,505.8,484.6z"/>
	</g>
	<g class="st3">
		<circle class="st4" cx="500.7" cy="470.5" r="2.5"/>
		<circle class="st4" cx="551.1" cy="520.8" r="2.5"/>
		<circle class="st4" cx="500.7" cy="571.1" r="2.5"/>
		<circle class="st4" cx="450.6" cy="520.8" r="2.5"/>
	</g>
	<g class="st3">
		
			<path id="path4598-6_171_" sodipodi:ry="30.40559" sodipodi:cx="1163.1907" sodipodi:type="arc" sodipodi:cy="257.40527" sodipodi:rx="28.991377" class="st4" d="
			M538.6,386c0,20.9-17,37.9-37.9,37.9c-20.9,0-37.9-17-37.9-37.9c0-20.9,17-37.9,37.9-37.9C521.7,348.1,538.6,365.1,538.6,386z"/>
		
			<path id="path4598-6_170_" sodipodi:ry="30.40559" sodipodi:cx="1163.1907" sodipodi:type="arc" sodipodi:cy="257.40527" sodipodi:rx="28.991377" class="st4" d="
			M505.7,354.2c0,2.6-2.1,4.7-4.7,4.7c-2.6,0-4.7-2.1-4.7-4.7c0-2.6,2.1-4.7,4.7-4.7C503.6,349.6,505.7,351.7,505.7,354.2z"/>
	</g>
	<g class="st3">
		<circle class="st4" cx="500.6" cy="340.2" r="2.5"/>
		<circle class="st4" cx="551" cy="390.5" r="2.5"/>
		<circle class="st4" cx="500.6" cy="440.7" r="2.5"/>
		<circle class="st4" cx="450.4" cy="390.5" r="2.5"/>
	</g>
	<g class="st3">
		
			<path id="path4598-6_173_" sodipodi:ry="30.40559" sodipodi:cx="1163.1907" sodipodi:type="arc" sodipodi:cy="257.40527" sodipodi:rx="28.991377" class="st4" d="
			M538.7,255.7c0,20.9-17,37.9-37.9,37.9c-20.9,0-37.9-17-37.9-37.9c0-20.9,17-37.9,37.9-37.9C521.8,217.8,538.7,234.7,538.7,255.7z
			"/>
		
			<path id="path4598-6_172_" sodipodi:ry="30.40559" sodipodi:cx="1163.1907" sodipodi:type="arc" sodipodi:cy="257.40527" sodipodi:rx="28.991377" class="st4" d="
			M505.8,223.9c0,2.6-2.1,4.7-4.7,4.7c-2.6,0-4.7-2.1-4.7-4.7c0-2.6,2.1-4.7,4.7-4.7C503.7,219.2,505.8,221.3,505.8,223.9z"/>
	</g>
	<g class="st3">
		<circle class="st4" cx="500.7" cy="209.8" r="2.5"/>
		<circle class="st4" cx="551.1" cy="260.1" r="2.5"/>
		<circle class="st4" cx="500.7" cy="310.4" r="2.5"/>
		<circle class="st4" cx="450.6" cy="260.1" r="2.5"/>
	</g>
</g>
<g id="DoorHolders">
	<circle class="st5" cx="167.9" cy="195" r="5.4"/>
	<circle class="st5" cx="34.7" cy="195" r="5.4"/>
	<circle class="st5" cx="101.3" cy="325.3" r="5.4"/>
	<circle class="st5" cx="167.9" cy="325.3" r="5.4"/>
	<circle class="st5" cx="34.7" cy="325.3" r="5.4"/>
	<circle class="st5" cx="101.3" cy="195" r="5.4"/>
	<circle class="st5" cx="167.9" cy="260.1" r="5.4"/>
	<circle class="st5" cx="34.7" cy="260.1" r="5.4"/>
	<circle class="st5" cx="101.3" cy="455.6" r="5.4"/>
	<circle class="st5" cx="167.9" cy="455.6" r="5.4"/>
	<circle class="st5" cx="34.7" cy="455.6" r="5.4"/>
	<circle class="st5" cx="167.9" cy="390.4" r="5.4"/>
	<circle class="st5" cx="34.7" cy="390.4" r="5.4"/>
	<circle class="st5" cx="101.3" cy="585.9" r="5.4"/>
	<circle class="st5" cx="167.9" cy="585.9" r="5.4"/>
	<circle class="st5" cx="34.7" cy="585.9" r="5.4"/>
	<circle class="st5" cx="167.9" cy="520.7" r="5.4"/>
	<circle class="st5" cx="34.7" cy="520.7" r="5.4"/>
	<circle class="st5" cx="301.1" cy="195" r="5.4"/>
	<circle class="st5" cx="234.5" cy="325.3" r="5.4"/>
	<circle class="st5" cx="301.1" cy="325.3" r="5.4"/>
	<circle class="st5" cx="234.5" cy="195" r="5.4"/>
	<circle class="st5" cx="301.1" cy="260.1" r="5.4"/>
	<circle class="st5" cx="234.5" cy="455.6" r="5.4"/>
	<circle class="st5" cx="301.1" cy="455.6" r="5.4"/>
	<circle class="st5" cx="301.1" cy="390.4" r="5.4"/>
	<circle class="st5" cx="234.5" cy="585.9" r="5.4"/>
	<circle class="st5" cx="301.1" cy="585.9" r="5.4"/>
	<circle class="st5" cx="301.1" cy="520.7" r="5.4"/>
	<circle class="st5" cx="434.3" cy="195" r="5.4"/>
	<circle class="st5" cx="367.7" cy="325.3" r="5.4"/>
	<circle class="st5" cx="434.3" cy="325.3" r="5.4"/>
	<circle class="st5" cx="367.7" cy="195" r="5.4"/>
	<circle class="st5" cx="434.3" cy="260.1" r="5.4"/>
	<circle class="st5" cx="367.7" cy="455.6" r="5.4"/>
	<circle class="st5" cx="434.3" cy="455.6" r="5.4"/>
	<circle class="st5" cx="434.3" cy="390.4" r="5.4"/>
	<circle class="st5" cx="367.7" cy="585.9" r="5.4"/>
	<circle class="st5" cx="434.3" cy="585.9" r="5.4"/>
	<circle class="st5" cx="434.3" cy="520.7" r="5.4"/>
	<circle class="st5" cx="567.5" cy="195" r="5.4"/>
	<circle class="st5" cx="500.9" cy="325.3" r="5.4"/>
	<circle class="st5" cx="567.5" cy="325.3" r="5.4"/>
	<circle class="st5" cx="500.9" cy="195" r="5.4"/>
	<circle class="st5" cx="567.5" cy="260.1" r="5.4"/>
	<circle class="st5" cx="500.9" cy="455.6" r="5.4"/>
	<circle class="st5" cx="567.5" cy="455.6" r="5.4"/>
	<circle class="st5" cx="567.5" cy="390.4" r="5.4"/>
	<circle class="st5" cx="500.9" cy="585.9" r="5.4"/>
	<circle class="st5" cx="567.5" cy="585.9" r="5.4"/>
	<circle class="st5" cx="567.5" cy="520.7" r="5.4"/>
	<rect x="20.4" y="180.7" class="st5" width="561.3" height="419.5"/>
	
		<path id="path4598-6_174_" sodipodi:ry="30.40559" sodipodi:cx="1163.1907" sodipodi:type="arc" sodipodi:cy="257.40527" sodipodi:rx="28.991377" class="st4" d="
		M138.1,256.6c0,20.4-16.5,36.9-36.9,36.9c-20.4,0-36.9-16.5-36.9-36.9c0-20.4,16.5-36.9,36.9-36.9
		C121.6,219.7,138.1,236.2,138.1,256.6z"/>
	<g>
		<circle class="st4" cx="101.2" cy="209.9" r="2.5"/>
		<circle class="st4" cx="151.6" cy="260.2" r="2.5"/>
		<circle class="st4" cx="101.2" cy="310.4" r="2.5"/>
		<circle class="st4" cx="51" cy="260.2" r="2.5"/>
	</g>
	
		<path id="path4598-6_175_" sodipodi:ry="30.40559" sodipodi:cx="1163.1907" sodipodi:type="arc" sodipodi:cy="257.40527" sodipodi:rx="28.991377" class="st4" d="
		M138.1,386.9c0,20.4-16.5,36.9-36.9,36.9c-20.4,0-36.9-16.5-36.9-36.9c0-20.4,16.5-36.9,36.9-36.9
		C121.6,350,138.1,366.5,138.1,386.9z"/>
	<g>
		<circle class="st4" cx="101.2" cy="340.1" r="2.5"/>
		<circle class="st4" cx="151.6" cy="390.4" r="2.5"/>
		<circle class="st4" cx="101.2" cy="440.7" r="2.5"/>
		<circle class="st4" cx="51" cy="390.4" r="2.5"/>
	</g>
	
		<path id="path4598-6_176_" sodipodi:ry="30.40559" sodipodi:cx="1163.1907" sodipodi:type="arc" sodipodi:cy="257.40527" sodipodi:rx="28.991377" class="st4" d="
		M138.1,517.2c0,20.4-16.5,36.9-36.9,36.9c-20.4,0-36.9-16.5-36.9-36.9c0-20.4,16.5-36.9,36.9-36.9
		C121.6,480.3,138.1,496.8,138.1,517.2z"/>
	<g>
		<circle class="st4" cx="101.2" cy="470.4" r="2.5"/>
		<circle class="st4" cx="151.6" cy="520.7" r="2.5"/>
		<circle class="st4" cx="101.2" cy="571" r="2.5"/>
		<circle class="st4" cx="51" cy="520.7" r="2.5"/>
	</g>
	
		<path id="path4598-6_177_" sodipodi:ry="30.40559" sodipodi:cx="1163.1907" sodipodi:type="arc" sodipodi:cy="257.40527" sodipodi:rx="28.991377" class="st4" d="
		M271.3,517.2c0,20.4-16.5,36.9-36.9,36.9c-20.4,0-36.9-16.5-36.9-36.9c0-20.4,16.5-36.9,36.9-36.9
		C254.8,480.3,271.3,496.8,271.3,517.2z"/>
	<g>
		<circle class="st4" cx="234.4" cy="470.5" r="2.5"/>
		<circle class="st4" cx="284.8" cy="520.8" r="2.5"/>
		<circle class="st4" cx="234.4" cy="571" r="2.5"/>
		<circle class="st4" cx="184.2" cy="520.8" r="2.5"/>
	</g>
	
		<path id="path4598-6_178_" sodipodi:ry="30.40559" sodipodi:cx="1163.1907" sodipodi:type="arc" sodipodi:cy="257.40527" sodipodi:rx="28.991377" class="st4" d="
		M271.2,386.9c0,20.4-16.5,36.9-36.9,36.9c-20.4,0-36.9-16.5-36.9-36.9c0-20.4,16.5-36.9,36.9-36.9
		C254.6,350,271.2,366.5,271.2,386.9z"/>
	<g>
		<circle class="st4" cx="234.2" cy="340.1" r="2.5"/>
		<circle class="st4" cx="284.6" cy="390.4" r="2.5"/>
		<circle class="st4" cx="234.2" cy="440.7" r="2.5"/>
		<circle class="st4" cx="184" cy="390.4" r="2.5"/>
	</g>
	
		<path id="path4598-6_179_" sodipodi:ry="30.40559" sodipodi:cx="1163.1907" sodipodi:type="arc" sodipodi:cy="257.40527" sodipodi:rx="28.991377" class="st4" d="
		M271.3,256.6c0,20.4-16.5,36.9-36.9,36.9c-20.4,0-36.9-16.5-36.9-36.9c0-20.4,16.5-36.9,36.9-36.9
		C254.8,219.7,271.3,236.2,271.3,256.6z"/>
	<g>
		<circle class="st4" cx="234.4" cy="209.8" r="2.5"/>
		<circle class="st4" cx="284.8" cy="260.1" r="2.5"/>
		<circle class="st4" cx="234.4" cy="310.4" r="2.5"/>
		<circle class="st4" cx="184.2" cy="260.1" r="2.5"/>
	</g>
	
		<path id="path4598-6_180_" sodipodi:ry="30.40559" sodipodi:cx="1163.1907" sodipodi:type="arc" sodipodi:cy="257.40527" sodipodi:rx="28.991377" class="st4" d="
		M404.5,257c0,20.4-16.5,36.9-36.9,36.9c-20.4,0-36.9-16.5-36.9-36.9c0-20.4,16.5-36.9,36.9-36.9C387.9,220.1,404.5,236.6,404.5,257
		z"/>
	<g>
		<circle class="st4" cx="367.5" cy="210.3" r="2.5"/>
		<circle class="st4" cx="417.9" cy="260.5" r="2.5"/>
		<circle class="st4" cx="367.5" cy="310.8" r="2.5"/>
		<circle class="st4" cx="317.4" cy="260.6" r="2.5"/>
	</g>
	
		<path id="path4598-6_181_" sodipodi:ry="30.40559" sodipodi:cx="1163.1907" sodipodi:type="arc" sodipodi:cy="257.40527" sodipodi:rx="28.991377" class="st4" d="
		M404.5,386.9c0,20.4-16.5,36.9-36.9,36.9c-20.4,0-36.9-16.5-36.9-36.9c0-20.4,16.5-36.9,36.9-36.9
		C387.9,350,404.5,366.5,404.5,386.9z"/>
	<g>
		<circle class="st4" cx="367.5" cy="340.2" r="2.5"/>
		<circle class="st4" cx="417.9" cy="390.5" r="2.5"/>
		<circle class="st4" cx="367.5" cy="440.7" r="2.5"/>
		<circle class="st4" cx="317.4" cy="390.5" r="2.5"/>
	</g>
	
		<path id="path4598-6_182_" sodipodi:ry="30.40559" sodipodi:cx="1163.1907" sodipodi:type="arc" sodipodi:cy="257.40527" sodipodi:rx="28.991377" class="st4" d="
		M404.5,517.3c0,20.4-16.5,36.9-36.9,36.9c-20.4,0-36.9-16.5-36.9-36.9c0-20.4,16.5-36.9,36.9-36.9
		C388,480.3,404.5,496.9,404.5,517.3z"/>
	<g>
		<circle class="st4" cx="367.6" cy="470.5" r="2.5"/>
		<circle class="st4" cx="418" cy="520.8" r="2.5"/>
		<circle class="st4" cx="367.6" cy="571" r="2.5"/>
		<circle class="st4" cx="317.4" cy="520.8" r="2.5"/>
	</g>
	
		<path id="path4598-6_183_" sodipodi:ry="30.40559" sodipodi:cx="1163.1907" sodipodi:type="arc" sodipodi:cy="257.40527" sodipodi:rx="28.991377" class="st4" d="
		M537.7,517.3c0,20.4-16.5,36.9-36.9,36.9c-20.4,0-36.9-16.5-36.9-36.9c0-20.4,16.5-36.9,36.9-36.9
		C521.1,480.3,537.7,496.9,537.7,517.3z"/>
	<g>
		<circle class="st4" cx="500.7" cy="470.5" r="2.5"/>
		<circle class="st4" cx="551.1" cy="520.8" r="2.5"/>
		<circle class="st4" cx="500.7" cy="571.1" r="2.5"/>
		<circle class="st4" cx="450.6" cy="520.8" r="2.5"/>
	</g>
	
		<path id="path4598-6_184_" sodipodi:ry="30.40559" sodipodi:cx="1163.1907" sodipodi:type="arc" sodipodi:cy="257.40527" sodipodi:rx="28.991377" class="st4" d="
		M537.6,387c0,20.4-16.5,36.9-36.9,36.9c-20.4,0-36.9-16.5-36.9-36.9c0-20.4,16.5-36.9,36.9-36.9C521,350,537.6,366.6,537.6,387z"/>
	<g>
		<circle class="st4" cx="500.6" cy="340.2" r="2.5"/>
		<circle class="st4" cx="551" cy="390.5" r="2.5"/>
		<circle class="st4" cx="500.6" cy="440.7" r="2.5"/>
		<circle class="st4" cx="450.4" cy="390.5" r="2.5"/>
	</g>
	
		<path id="path4598-6_185_" sodipodi:ry="30.40559" sodipodi:cx="1163.1907" sodipodi:type="arc" sodipodi:cy="257.40527" sodipodi:rx="28.991377" class="st4" d="
		M537.7,256.6c0,20.4-16.5,36.9-36.9,36.9c-20.4,0-36.9-16.5-36.9-36.9c0-20.4,16.5-36.9,36.9-36.9
		C521.1,219.7,537.7,236.2,537.7,256.6z"/>
	<g>
		<circle class="st4" cx="500.7" cy="209.8" r="2.5"/>
		<circle class="st4" cx="551.1" cy="260.1" r="2.5"/>
		<circle class="st4" cx="500.7" cy="310.4" r="2.5"/>
		<circle class="st4" cx="450.6" cy="260.1" r="2.5"/>
	</g>
</g>
</svg>
