<svg xmlns="http://www.w3.org/2000/svg" version="1.1" width="422.7mm" height="342.7mm" viewBox = " 0 0 1497.7571369999998 1214.2923369999999" >
<!-- Front--> 
<g transform="translate(22.5000185, 22.5000185) " > 
<polygon style="stroke:#000000; fill:none; stroke-width:0.90000074" points="0, 0 33.661445, 0 33.661445, 10.62993 67.32289, 10.62993 67.32289, 0 88.58275, 0 88.58275, 10.62993 109.84261000000001, 10.62993 109.84261000000001, 0 131.10246999999998, 0 131.10246999999998, 10.62993 152.36233, 10.62993 152.36233, 0 173.62219, 0 173.62219, 10.62993 194.88205, 10.62993 194.88205, 0 216.14191, 0 216.14191, 10.62993 249.803355, 10.62993 249.803355, 0 283.46479999999997, 0 283.46479999999997, 33.661445 272.83486999999997, 33.661445 272.83486999999997, 67.32289 283.46479999999997, 67.32289 283.46479999999997, 88.58275 272.83486999999997, 88.58275 272.83486999999997, 109.84261000000001 283.46479999999997, 109.84261000000001 283.46479999999997, 131.10246999999998 272.83486999999997, 131.10246999999998 272.83486999999997, 152.36233 283.46479999999997, 152.36233 283.46479999999997, 173.62219 272.83486999999997, 173.62219 272.83486999999997, 194.88205 283.46479999999997, 194.88205 283.46479999999997, 216.14191 272.83486999999997, 216.14191 272.83486999999997, 249.803355 283.46479999999997, 249.803355 283.46479999999997, 283.46479999999997 249.803355, 283.46479999999997 249.803355, 272.83486999999997 216.14191, 272.83486999999997 216.14191, 283.46479999999997 194.88205, 283.46479999999997 194.88205, 272.83486999999997 173.62219, 272.83486999999997 173.62219, 283.46479999999997 152.36233, 283.46479999999997 152.36233, 272.83486999999997 131.10246999999998, 272.83486999999997 131.10246999999998, 283.46479999999997 109.84261000000001, 283.46479999999997 109.84261000000001, 272.83486999999997 88.58275, 272.83486999999997 88.58275, 283.46479999999997 67.32289, 283.46479999999997 67.32289, 272.83486999999997 33.661445, 272.83486999999997 33.661445, 283.46479999999997 0, 283.46479999999997 0, 249.803355 10.62993, 249.803355 10.62993, 216.14191 0, 216.14191 0, 194.88205 10.62993, 194.88205 10.62993, 173.62219 0, 173.62219 0, 152.36233 10.62993, 152.36233 10.62993, 131.10246999999998 0, 131.10246999999998 0, 109.84261000000001 10.62993, 109.84261000000001 10.62993, 88.58275 0, 88.58275 0, 67.32289 10.62993, 67.32289 10.62993, 33.661445 0, 33.661445 "/> 
</g>
<!-- Back--> 
<g transform="translate(305.9648185, 22.5000185) " > 
<polygon style="stroke:#000000; fill:none; stroke-width:0.90000074" points="0, 0 33.661445, 0 33.661445, 10.62993 67.32289, 10.62993 67.32289, 0 88.58275, 0 88.58275, 10.62993 109.84261000000001, 10.62993 109.84261000000001, 0 131.10246999999998, 0 131.10246999999998, 10.62993 152.36233, 10.62993 152.36233, 0 173.62219, 0 173.62219, 10.62993 194.88205, 10.62993 194.88205, 0 216.14191, 0 216.14191, 10.62993 249.803355, 10.62993 249.803355, 0 283.46479999999997, 0 283.46479999999997, 33.661445 272.83486999999997, 33.661445 272.83486999999997, 67.32289 283.46479999999997, 67.32289 283.46479999999997, 88.58275 272.83486999999997, 88.58275 272.83486999999997, 109.84261000000001 283.46479999999997, 109.84261000000001 283.46479999999997, 131.10246999999998 272.83486999999997, 131.10246999999998 272.83486999999997, 152.36233 283.46479999999997, 152.36233 283.46479999999997, 173.62219 272.83486999999997, 173.62219 272.83486999999997, 194.88205 283.46479999999997, 194.88205 283.46479999999997, 216.14191 272.83486999999997, 216.14191 272.83486999999997, 249.803355 283.46479999999997, 249.803355 283.46479999999997, 283.46479999999997 249.803355, 283.46479999999997 249.803355, 272.83486999999997 216.14191, 272.83486999999997 216.14191, 283.46479999999997 194.88205, 283.46479999999997 194.88205, 272.83486999999997 173.62219, 272.83486999999997 173.62219, 283.46479999999997 152.36233, 283.46479999999997 152.36233, 272.83486999999997 131.10246999999998, 272.83486999999997 131.10246999999998, 283.46479999999997 109.84261000000001, 283.46479999999997 109.84261000000001, 272.83486999999997 88.58275, 272.83486999999997 88.58275, 283.46479999999997 67.32289, 283.46479999999997 67.32289, 272.83486999999997 33.661445, 272.83486999999997 33.661445, 283.46479999999997 0, 283.46479999999997 0, 249.803355 10.62993, 249.803355 10.62993, 216.14191 0, 216.14191 0, 194.88205 10.62993, 194.88205 10.62993, 173.62219 0, 173.62219 0, 152.36233 10.62993, 152.36233 10.62993, 131.10246999999998 0, 131.10246999999998 0, 109.84261000000001 10.62993, 109.84261000000001 10.62993, 88.58275 0, 88.58275 0, 67.32289 10.62993, 67.32289 10.62993, 33.661445 0, 33.661445 "/> 
</g>
<!-- Left--> 
<g transform="translate(589.4296185, 22.5000185) " > 
<polygon style="stroke:#000000; fill:none; stroke-width:0.90000074" points="10.62993, 0 35.433099999999996, 0 35.433099999999996, 10.62993 70.86619999999999, 10.62993 70.86619999999999, 0 92.12606, 0 92.12606, 10.62993 113.38592, 10.62993 113.38592, 0 134.64578, 0 134.64578, 10.62993 155.90564, 10.62993 155.90564, 0 177.1655, 0 177.1655, 10.62993 198.42535999999998, 10.62993 198.42535999999998, 0 219.68522, 0 219.68522, 10.62993 240.94508, 10.62993 240.94508, 0 262.20493999999997, 0 262.20493999999997, 10.62993 283.46479999999997, 10.62993 283.46479999999997, 0 304.72466, 0 304.72466, 10.62993 325.98452, 10.62993 325.98452, 0 347.24438, 0 347.24438, 10.62993 368.50424, 10.62993 368.50424, 0 389.7641, 0 389.7641, 10.62993 411.02396, 10.62993 411.02396, 0 432.28382, 0 432.28382, 10.62993 453.54368, 10.62993 453.54368, 0 474.80354, 0 474.80354, 10.62993 496.0634, 10.62993 496.0634, 0 517.32326, 0 517.32326, 10.62993 538.58312, 10.62993 538.58312, 0 559.84298, 0 559.84298, 10.62993 581.10284, 10.62993 581.10284, 0 602.3626999999999, 0 602.3626999999999, 10.62993 623.62256, 10.62993 623.62256, 0 644.8824199999999, 0 644.8824199999999, 10.62993 666.14228, 10.62993 666.14228, 0 687.4021399999999, 0 687.4021399999999, 10.62993 708.662, 10.62993 708.662, 0 729.9218599999999, 0 729.9218599999999, 10.62993 751.18172, 10.62993 751.18172, 0 772.4415799999999, 0 772.4415799999999, 10.62993 793.70144, 10.62993 793.70144, 0 814.9612999999999, 0 814.9612999999999, 10.62993 850.3944, 10.62993 850.3944, 0 875.19757, 0 875.19757, 33.661445 885.8275, 33.661445 885.8275, 67.32289 875.19757, 67.32289 875.19757, 88.58275 885.8275, 88.58275 885.8275, 109.84261000000001 875.19757, 109.84261000000001 875.19757, 131.10246999999998 885.8275, 131.10246999999998 885.8275, 152.36233 875.19757, 152.36233 875.19757, 173.62219 885.8275, 173.62219 885.8275, 194.88205 875.19757, 194.88205 875.19757, 216.14191 885.8275, 216.14191 885.8275, 249.803355 875.19757, 249.803355 875.19757, 283.46479999999997 850.3944, 283.46479999999997 850.3944, 272.83486999999997 814.9612999999999, 272.83486999999997 814.9612999999999, 283.46479999999997 793.70144, 283.46479999999997 793.70144, 272.83486999999997 772.4415799999999, 272.83486999999997 772.4415799999999, 283.46479999999997 751.18172, 283.46479999999997 751.18172, 272.83486999999997 729.9218599999999, 272.83486999999997 729.9218599999999, 283.46479999999997 708.662, 283.46479999999997 708.662, 272.83486999999997 687.4021399999999, 272.83486999999997 687.4021399999999, 283.46479999999997 666.14228, 283.46479999999997 666.14228, 272.83486999999997 644.8824199999999, 272.83486999999997 644.8824199999999, 283.46479999999997 623.62256, 283.46479999999997 623.62256, 272.83486999999997 602.3626999999999, 272.83486999999997 602.3626999999999, 283.46479999999997 581.10284, 283.46479999999997 581.10284, 272.83486999999997 559.84298, 272.83486999999997 559.84298, 283.46479999999997 538.58312, 283.46479999999997 538.58312, 272.83486999999997 517.32326, 272.83486999999997 517.32326, 283.46479999999997 496.0634, 283.46479999999997 496.0634, 272.83486999999997 474.80354, 272.83486999999997 474.80354, 283.46479999999997 453.54368, 283.46479999999997 453.54368, 272.83486999999997 432.28382, 272.83486999999997 432.28382, 283.46479999999997 411.02396, 283.46479999999997 411.02396, 272.83486999999997 389.7641, 272.83486999999997 389.7641, 283.46479999999997 368.50424, 283.46479999999997 368.50424, 272.83486999999997 347.24438, 272.83486999999997 347.24438, 283.46479999999997 325.98452, 283.46479999999997 325.98452, 272.83486999999997 304.72466, 272.83486999999997 304.72466, 283.46479999999997 283.46479999999997, 283.46479999999997 283.46479999999997, 272.83486999999997 262.20493999999997, 272.83486999999997 262.20493999999997, 283.46479999999997 240.94508, 283.46479999999997 240.94508, 272.83486999999997 219.68522, 272.83486999999997 219.68522, 283.46479999999997 198.42535999999998, 283.46479999999997 198.42535999999998, 272.83486999999997 177.1655, 272.83486999999997 177.1655, 283.46479999999997 155.90564, 283.46479999999997 155.90564, 272.83486999999997 134.64578, 272.83486999999997 134.64578, 283.46479999999997 113.38592, 283.46479999999997 113.38592, 272.83486999999997 92.12606, 272.83486999999997 92.12606, 283.46479999999997 70.86619999999999, 283.46479999999997 70.86619999999999, 272.83486999999997 35.433099999999996, 272.83486999999997 35.433099999999996, 283.46479999999997 10.62993, 283.46479999999997 10.62993, 249.803355 0, 249.803355 0, 216.14191 10.62993, 216.14191 10.62993, 194.88205 0, 194.88205 0, 173.62219 10.62993, 173.62219 10.62993, 152.36233 0, 152.36233 0, 131.10246999999998 10.62993, 131.10246999999998 10.62993, 109.84261000000001 0, 109.84261000000001 0, 88.58275 10.62993, 88.58275 10.62993, 67.32289 0, 67.32289 0, 33.661445 10.62993, 33.661445 "/> 
</g>
<!-- Right--> 
<g transform="translate(589.4296185, 305.9648185) " > 
<polygon style="stroke:#000000; fill:none; stroke-width:0.90000074" points="10.62993, 0 35.433099999999996, 0 35.433099999999996, 10.62993 70.86619999999999, 10.62993 70.86619999999999, 0 92.12606, 0 92.12606, 10.62993 113.38592, 10.62993 113.38592, 0 134.64578, 0 134.64578, 10.62993 155.90564, 10.62993 155.90564, 0 177.1655, 0 177.1655, 10.62993 198.42535999999998, 10.62993 198.42535999999998, 0 219.68522, 0 219.68522, 10.62993 240.94508, 10.62993 240.94508, 0 262.20493999999997, 0 262.20493999999997, 10.62993 283.46479999999997, 10.62993 283.46479999999997, 0 304.72466, 0 304.72466, 10.62993 325.98452, 10.62993 325.98452, 0 347.24438, 0 347.24438, 10.62993 368.50424, 10.62993 368.50424, 0 389.7641, 0 389.7641, 10.62993 411.02396, 10.62993 411.02396, 0 432.28382, 0 432.28382, 10.62993 453.54368, 10.62993 453.54368, 0 474.80354, 0 474.80354, 10.62993 496.0634, 10.62993 496.0634, 0 517.32326, 0 517.32326, 10.62993 538.58312, 10.62993 538.58312, 0 559.84298, 0 559.84298, 10.62993 581.10284, 10.62993 581.10284, 0 602.3626999999999, 0 602.3626999999999, 10.62993 623.62256, 10.62993 623.62256, 0 644.8824199999999, 0 644.8824199999999, 10.62993 666.14228, 10.62993 666.14228, 0 687.4021399999999, 0 687.4021399999999, 10.62993 708.662, 10.62993 708.662, 0 729.9218599999999, 0 729.9218599999999, 10.62993 751.18172, 10.62993 751.18172, 0 772.4415799999999, 0 772.4415799999999, 10.62993 793.70144, 10.62993 793.70144, 0 814.9612999999999, 0 814.9612999999999, 10.62993 850.3944, 10.62993 850.3944, 0 875.19757, 0 875.19757, 33.661445 885.8275, 33.661445 885.8275, 67.32289 875.19757, 67.32289 875.19757, 88.58275 885.8275, 88.58275 885.8275, 109.84261000000001 875.19757, 109.84261000000001 875.19757, 131.10246999999998 885.8275, 131.10246999999998 885.8275, 152.36233 875.19757, 152.36233 875.19757, 173.62219 885.8275, 173.62219 885.8275, 194.88205 875.19757, 194.88205 875.19757, 216.14191 885.8275, 216.14191 885.8275, 249.803355 875.19757, 249.803355 875.19757, 283.46479999999997 850.3944, 283.46479999999997 850.3944, 272.83486999999997 814.9612999999999, 272.83486999999997 814.9612999999999, 283.46479999999997 793.70144, 283.46479999999997 793.70144, 272.83486999999997 772.4415799999999, 272.83486999999997 772.4415799999999, 283.46479999999997 751.18172, 283.46479999999997 751.18172, 272.83486999999997 729.9218599999999, 272.83486999999997 729.9218599999999, 283.46479999999997 708.662, 283.46479999999997 708.662, 272.83486999999997 687.4021399999999, 272.83486999999997 687.4021399999999, 283.46479999999997 666.14228, 283.46479999999997 666.14228, 272.83486999999997 644.8824199999999, 272.83486999999997 644.8824199999999, 283.46479999999997 623.62256, 283.46479999999997 623.62256, 272.83486999999997 602.3626999999999, 272.83486999999997 602.3626999999999, 283.46479999999997 581.10284, 283.46479999999997 581.10284, 272.83486999999997 559.84298, 272.83486999999997 559.84298, 283.46479999999997 538.58312, 283.46479999999997 538.58312, 272.83486999999997 517.32326, 272.83486999999997 517.32326, 283.46479999999997 496.0634, 283.46479999999997 496.0634, 272.83486999999997 474.80354, 272.83486999999997 474.80354, 283.46479999999997 453.54368, 283.46479999999997 453.54368, 272.83486999999997 432.28382, 272.83486999999997 432.28382, 283.46479999999997 411.02396, 283.46479999999997 411.02396, 272.83486999999997 389.7641, 272.83486999999997 389.7641, 283.46479999999997 368.50424, 283.46479999999997 368.50424, 272.83486999999997 347.24438, 272.83486999999997 347.24438, 283.46479999999997 325.98452, 283.46479999999997 325.98452, 272.83486999999997 304.72466, 272.83486999999997 304.72466, 283.46479999999997 283.46479999999997, 283.46479999999997 283.46479999999997, 272.83486999999997 262.20493999999997, 272.83486999999997 262.20493999999997, 283.46479999999997 240.94508, 283.46479999999997 240.94508, 272.83486999999997 219.68522, 272.83486999999997 219.68522, 283.46479999999997 198.42535999999998, 283.46479999999997 198.42535999999998, 272.83486999999997 177.1655, 272.83486999999997 177.1655, 283.46479999999997 155.90564, 283.46479999999997 155.90564, 272.83486999999997 134.64578, 272.83486999999997 134.64578, 283.46479999999997 113.38592, 283.46479999999997 113.38592, 272.83486999999997 92.12606, 272.83486999999997 92.12606, 283.46479999999997 70.86619999999999, 283.46479999999997 70.86619999999999, 272.83486999999997 35.433099999999996, 272.83486999999997 35.433099999999996, 283.46479999999997 10.62993, 283.46479999999997 10.62993, 249.803355 0, 249.803355 0, 216.14191 10.62993, 216.14191 10.62993, 194.88205 0, 194.88205 0, 173.62219 10.62993, 173.62219 10.62993, 152.36233 0, 152.36233 0, 131.10246999999998 10.62993, 131.10246999999998 10.62993, 109.84261000000001 0, 109.84261000000001 0, 88.58275 10.62993, 88.58275 10.62993, 67.32289 0, 67.32289 0, 33.661445 10.62993, 33.661445 "/> 
</g>
<!-- Top--> 
<g transform="translate(22.5000185, 305.9648185) " > 
<polygon style="stroke:#000000; fill:none; stroke-width:0.90000074" points="10.62993, 10.62993 33.661445, 10.62993 33.661445, 0 67.32289, 0 67.32289, 10.62993 88.58275, 10.62993 88.58275, 0 109.84261000000001, 0 109.84261000000001, 10.62993 131.10246999999998, 10.62993 131.10246999999998, 0 152.36233, 0 152.36233, 10.62993 173.62219, 10.62993 173.62219, 0 194.88205, 0 194.88205, 10.62993 216.14191, 10.62993 216.14191, 0 249.803355, 0 249.803355, 10.62993 272.83486999999997, 10.62993 272.83486999999997, 35.433099999999996 283.46479999999997, 35.433099999999996 283.46479999999997, 70.86619999999999 272.83486999999997, 70.86619999999999 272.83486999999997, 92.12606 283.46479999999997, 92.12606 283.46479999999997, 113.38592 272.83486999999997, 113.38592 272.83486999999997, 134.64578 283.46479999999997, 134.64578 283.46479999999997, 155.90564 272.83486999999997, 155.90564 272.83486999999997, 177.1655 283.46479999999997, 177.1655 283.46479999999997, 198.42535999999998 272.83486999999997, 198.42535999999998 272.83486999999997, 219.68522 283.46479999999997, 219.68522 283.46479999999997, 240.94508 272.83486999999997, 240.94508 272.83486999999997, 262.20493999999997 283.46479999999997, 262.20493999999997 283.46479999999997, 283.46479999999997 272.83486999999997, 283.46479999999997 272.83486999999997, 304.72466 283.46479999999997, 304.72466 283.46479999999997, 325.98452 272.83486999999997, 325.98452 272.83486999999997, 347.24438 283.46479999999997, 347.24438 283.46479999999997, 368.50424 272.83486999999997, 368.50424 272.83486999999997, 389.7641 283.46479999999997, 389.7641 283.46479999999997, 411.02396 272.83486999999997, 411.02396 272.83486999999997, 432.28382 283.46479999999997, 432.28382 283.46479999999997, 453.54368 272.83486999999997, 453.54368 272.83486999999997, 474.80354 283.46479999999997, 474.80354 283.46479999999997, 496.0634 272.83486999999997, 496.0634 272.83486999999997, 517.32326 283.46479999999997, 517.32326 283.46479999999997, 538.58312 272.83486999999997, 538.58312 272.83486999999997, 559.84298 283.46479999999997, 559.84298 283.46479999999997, 581.10284 272.83486999999997, 581.10284 272.83486999999997, 602.3626999999999 283.46479999999997, 602.3626999999999 283.46479999999997, 623.62256 272.83486999999997, 623.62256 272.83486999999997, 644.8824199999999 283.46479999999997, 644.8824199999999 283.46479999999997, 666.14228 272.83486999999997, 666.14228 272.83486999999997, 687.4021399999999 283.46479999999997, 687.4021399999999 283.46479999999997, 708.662 272.83486999999997, 708.662 272.83486999999997, 729.9218599999999 283.46479999999997, 729.9218599999999 283.46479999999997, 751.18172 272.83486999999997, 751.18172 272.83486999999997, 772.4415799999999 283.46479999999997, 772.4415799999999 283.46479999999997, 793.70144 272.83486999999997, 793.70144 272.83486999999997, 814.9612999999999 283.46479999999997, 814.9612999999999 283.46479999999997, 850.3944 272.83486999999997, 850.3944 272.83486999999997, 875.19757 249.803355, 875.19757 249.803355, 885.8275 216.14191, 885.8275 216.14191, 875.19757 194.88205, 875.19757 194.88205, 885.8275 173.62219, 885.8275 173.62219, 875.19757 152.36233, 875.19757 152.36233, 885.8275 131.10246999999998, 885.8275 131.10246999999998, 875.19757 109.84261000000001, 875.19757 109.84261000000001, 885.8275 88.58275, 885.8275 88.58275, 875.19757 67.32289, 875.19757 67.32289, 885.8275 33.661445, 885.8275 33.661445, 875.19757 10.62993, 875.19757 10.62993, 850.3944 0, 850.3944 0, 814.9612999999999 10.62993, 814.9612999999999 10.62993, 793.70144 0, 793.70144 0, 772.4415799999999 10.62993, 772.4415799999999 10.62993, 751.18172 0, 751.18172 0, 729.9218599999999 10.62993, 729.9218599999999 10.62993, 708.662 0, 708.662 0, 687.4021399999999 10.62993, 687.4021399999999 10.62993, 666.14228 0, 666.14228 0, 644.8824199999999 10.62993, 644.8824199999999 10.62993, 623.62256 0, 623.62256 0, 602.3626999999999 10.62993, 602.3626999999999 10.62993, 581.10284 0, 581.10284 0, 559.84298 10.62993, 559.84298 10.62993, 538.58312 0, 538.58312 0, 517.32326 10.62993, 517.32326 10.62993, 496.0634 0, 496.0634 0, 474.80354 10.62993, 474.80354 10.62993, 453.54368 0, 453.54368 0, 432.28382 10.62993, 432.28382 10.62993, 411.02396 0, 411.02396 0, 389.7641 10.62993, 389.7641 10.62993, 368.50424 0, 368.50424 0, 347.24438 10.62993, 347.24438 10.62993, 325.98452 0, 325.98452 0, 304.72466 10.62993, 304.72466 10.62993, 283.46479999999997 0, 283.46479999999997 0, 262.20493999999997 10.62993, 262.20493999999997 10.62993, 240.94508 0, 240.94508 0, 219.68522 10.62993, 219.68522 10.62993, 198.42535999999998 0, 198.42535999999998 0, 177.1655 10.62993, 177.1655 10.62993, 155.90564 0, 155.90564 0, 134.64578 10.62993, 134.64578 10.62993, 113.38592 0, 113.38592 0, 92.12606 10.62993, 92.12606 10.62993, 70.86619999999999 0, 70.86619999999999 0, 35.433099999999996 10.62993, 35.433099999999996 "/> 
</g>
<!-- Bottom--> 
<g transform="translate(305.9648185, 305.9648185) " > 
<polygon style="stroke:#000000; fill:none; stroke-width:0.90000074" points="10.62993, 10.62993 33.661445, 10.62993 33.661445, 0 67.32289, 0 67.32289, 10.62993 88.58275, 10.62993 88.58275, 0 109.84261000000001, 0 109.84261000000001, 10.62993 131.10246999999998, 10.62993 131.10246999999998, 0 152.36233, 0 152.36233, 10.62993 173.62219, 10.62993 173.62219, 0 194.88205, 0 194.88205, 10.62993 216.14191, 10.62993 216.14191, 0 249.803355, 0 249.803355, 10.62993 272.83486999999997, 10.62993 272.83486999999997, 35.433099999999996 283.46479999999997, 35.433099999999996 283.46479999999997, 70.86619999999999 272.83486999999997, 70.86619999999999 272.83486999999997, 92.12606 283.46479999999997, 92.12606 283.46479999999997, 113.38592 272.83486999999997, 113.38592 272.83486999999997, 134.64578 283.46479999999997, 134.64578 283.46479999999997, 155.90564 272.83486999999997, 155.90564 272.83486999999997, 177.1655 283.46479999999997, 177.1655 283.46479999999997, 198.42535999999998 272.83486999999997, 198.42535999999998 272.83486999999997, 219.68522 283.46479999999997, 219.68522 283.46479999999997, 240.94508 272.83486999999997, 240.94508 272.83486999999997, 262.20493999999997 283.46479999999997, 262.20493999999997 283.46479999999997, 283.46479999999997 272.83486999999997, 283.46479999999997 272.83486999999997, 304.72466 283.46479999999997, 304.72466 283.46479999999997, 325.98452 272.83486999999997, 325.98452 272.83486999999997, 347.24438 283.46479999999997, 347.24438 283.46479999999997, 368.50424 272.83486999999997, 368.50424 272.83486999999997, 389.7641 283.46479999999997, 389.7641 283.46479999999997, 411.02396 272.83486999999997, 411.02396 272.83486999999997, 432.28382 283.46479999999997, 432.28382 283.46479999999997, 453.54368 272.83486999999997, 453.54368 272.83486999999997, 474.80354 283.46479999999997, 474.80354 283.46479999999997, 496.0634 272.83486999999997, 496.0634 272.83486999999997, 517.32326 283.46479999999997, 517.32326 283.46479999999997, 538.58312 272.83486999999997, 538.58312 272.83486999999997, 559.84298 283.46479999999997, 559.84298 283.46479999999997, 581.10284 272.83486999999997, 581.10284 272.83486999999997, 602.3626999999999 283.46479999999997, 602.3626999999999 283.46479999999997, 623.62256 272.83486999999997, 623.62256 272.83486999999997, 644.8824199999999 283.46479999999997, 644.8824199999999 283.46479999999997, 666.14228 272.83486999999997, 666.14228 272.83486999999997, 687.4021399999999 283.46479999999997, 687.4021399999999 283.46479999999997, 708.662 272.83486999999997, 708.662 272.83486999999997, 729.9218599999999 283.46479999999997, 729.9218599999999 283.46479999999997, 751.18172 272.83486999999997, 751.18172 272.83486999999997, 772.4415799999999 283.46479999999997, 772.4415799999999 283.46479999999997, 793.70144 272.83486999999997, 793.70144 272.83486999999997, 814.9612999999999 283.46479999999997, 814.9612999999999 283.46479999999997, 850.3944 272.83486999999997, 850.3944 272.83486999999997, 875.19757 249.803355, 875.19757 249.803355, 885.8275 216.14191, 885.8275 216.14191, 875.19757 194.88205, 875.19757 194.88205, 885.8275 173.62219, 885.8275 173.62219, 875.19757 152.36233, 875.19757 152.36233, 885.8275 131.10246999999998, 885.8275 131.10246999999998, 875.19757 109.84261000000001, 875.19757 109.84261000000001, 885.8275 88.58275, 885.8275 88.58275, 875.19757 67.32289, 875.19757 67.32289, 885.8275 33.661445, 885.8275 33.661445, 875.19757 10.62993, 875.19757 10.62993, 850.3944 0, 850.3944 0, 814.9612999999999 10.62993, 814.9612999999999 10.62993, 793.70144 0, 793.70144 0, 772.4415799999999 10.62993, 772.4415799999999 10.62993, 751.18172 0, 751.18172 0, 729.9218599999999 10.62993, 729.9218599999999 10.62993, 708.662 0, 708.662 0, 687.4021399999999 10.62993, 687.4021399999999 10.62993, 666.14228 0, 666.14228 0, 644.8824199999999 10.62993, 644.8824199999999 10.62993, 623.62256 0, 623.62256 0, 602.3626999999999 10.62993, 602.3626999999999 10.62993, 581.10284 0, 581.10284 0, 559.84298 10.62993, 559.84298 10.62993, 538.58312 0, 538.58312 0, 517.32326 10.62993, 517.32326 10.62993, 496.0634 0, 496.0634 0, 474.80354 10.62993, 474.80354 10.62993, 453.54368 0, 453.54368 0, 432.28382 10.62993, 432.28382 10.62993, 411.02396 0, 411.02396 0, 389.7641 10.62993, 389.7641 10.62993, 368.50424 0, 368.50424 0, 347.24438 10.62993, 347.24438 10.62993, 325.98452 0, 325.98452 0, 304.72466 10.62993, 304.72466 10.62993, 283.46479999999997 0, 283.46479999999997 0, 262.20493999999997 10.62993, 262.20493999999997 10.62993, 240.94508 0, 240.94508 0, 219.68522 10.62993, 219.68522 10.62993, 198.42535999999998 0, 198.42535999999998 0, 177.1655 10.62993, 177.1655 10.62993, 155.90564 0, 155.90564 0, 134.64578 10.62993, 134.64578 10.62993, 113.38592 0, 113.38592 0, 92.12606 10.62993, 92.12606 10.62993, 70.86619999999999 0, 70.86619999999999 0, 35.433099999999996 10.62993, 35.433099999999996 "/> 
</g></svg>