<?xml version="1.0" encoding="utf-8"?>
<!-- Generator: Adobe Illustrator 16.0.0, SVG Export Plug-In . SVG Version: 6.00 Build 0)  -->
<!DOCTYPE svg PUBLIC "-//W3C//DTD SVG 1.1//EN" "http://www.w3.org/Graphics/SVG/1.1/DTD/svg11.dtd">
<svg version="1.1" id="Layer_1" xmlns="http://www.w3.org/2000/svg" xmlns:xlink="http://www.w3.org/1999/xlink" x="0px" y="0px"
	 width="1836px" height="828px" viewBox="0 0 1836 828" enable-background="new 0 0 1836 828" xml:space="preserve">
<g transform="translate(22.5, 22.5) ">
	<polygon fill="none" stroke="#FF0000" stroke-width="0.0072" points="-4.5,-4.5 22.5,-4.5 22.5,3.996 49.5,3.996 49.5,-4.5 
		71.1,-4.5 71.1,3.996 92.7,3.996 92.7,-4.5 114.3,-4.5 114.3,3.996 135.9,3.996 135.9,-4.5 157.5,-4.5 157.5,3.996 179.1,3.996 
		179.1,-4.5 200.7,-4.5 200.7,3.996 222.3,3.996 222.3,-4.5 243.9,-4.5 243.9,3.996 265.5,3.996 265.5,-4.5 287.1,-4.5 287.1,3.996 
		308.7,3.996 308.7,-4.5 330.3,-4.5 330.3,3.996 351.9,3.996 351.9,-4.5 373.5,-4.5 373.5,3.996 395.1,3.996 395.1,-4.5 416.7,-4.5 
		416.7,3.996 438.3,3.996 438.3,-4.5 459.9,-4.5 459.9,3.996 481.5,3.996 481.5,-4.5 503.1,-4.5 503.1,3.996 524.7,3.996 
		524.7,-4.5 546.3,-4.5 546.3,3.996 567.9,3.996 567.9,-4.5 589.5,-4.5 589.5,3.996 616.5,3.996 616.5,-4.5 643.5,-4.5 643.5,29.7 
		635.004,29.7 635.004,63.9 643.5,63.9 643.5,85.5 635.004,85.5 635.004,107.1 643.5,107.1 643.5,128.7 635.004,128.7 
		635.004,150.3 643.5,150.3 643.5,171.9 635.004,171.9 635.004,193.5 643.5,193.5 643.5,215.1 635.004,215.1 635.004,249.3 
		643.5,249.3 643.5,283.5 616.5,283.5 616.5,275.004 589.5,275.004 589.5,283.5 567.9,283.5 567.9,275.004 546.3,275.004 
		546.3,283.5 524.7,283.5 524.7,275.004 503.1,275.004 503.1,283.5 481.5,283.5 481.5,275.004 459.9,275.004 459.9,283.5 
		438.3,283.5 438.3,275.004 416.7,275.004 416.7,283.5 395.1,283.5 395.1,275.004 373.5,275.004 373.5,283.5 351.9,283.5 
		351.9,275.004 330.3,275.004 330.3,283.5 308.7,283.5 308.7,275.004 287.1,275.004 287.1,283.5 265.5,283.5 265.5,275.004 
		243.9,275.004 243.9,283.5 222.3,283.5 222.3,275.004 200.7,275.004 200.7,283.5 179.1,283.5 179.1,275.004 157.5,275.004 
		157.5,283.5 135.9,283.5 135.9,275.004 114.3,275.004 114.3,283.5 92.7,283.5 92.7,275.004 71.1,275.004 71.1,283.5 49.5,283.5 
		49.5,275.004 22.5,275.004 22.5,283.5 -4.5,283.5 -4.5,249.3 3.996,249.3 3.996,215.1 -4.5,215.1 -4.5,193.5 3.996,193.5 
		3.996,171.9 -4.5,171.9 -4.5,150.3 3.996,150.3 3.996,128.7 -4.5,128.7 -4.5,107.1 3.996,107.1 3.996,85.5 -4.5,85.5 -4.5,63.9 
		3.996,63.9 3.996,29.7 -4.5,29.7 	"/>
</g>
<g transform="translate(832.5, 22.5) ">
	<polygon fill="none" stroke="#FF0000" stroke-width="0.0072" points="-166.5,-4.5 -139.5,-4.5 -139.5,3.996 -112.5,3.996 
		-112.5,-4.5 -90.9,-4.5 -90.9,3.996 -69.3,3.996 -69.3,-4.5 -47.7,-4.5 -47.7,3.996 -26.1,3.996 -26.1,-4.5 -4.5,-4.5 -4.5,3.996 
		17.1,3.996 17.1,-4.5 38.7,-4.5 38.7,3.996 60.3,3.996 60.3,-4.5 81.9,-4.5 81.9,3.996 103.5,3.996 103.5,-4.5 125.1,-4.5 
		125.1,3.996 146.7,3.996 146.7,-4.5 168.3,-4.5 168.3,3.996 189.9,3.996 189.9,-4.5 211.5,-4.5 211.5,3.996 233.1,3.996 
		233.1,-4.5 254.7,-4.5 254.7,3.996 276.3,3.996 276.3,-4.5 297.9,-4.5 297.9,3.996 319.5,3.996 319.5,-4.5 341.1,-4.5 341.1,3.996 
		362.7,3.996 362.7,-4.5 384.3,-4.5 384.3,3.996 405.9,3.996 405.9,-4.5 427.5,-4.5 427.5,3.996 454.5,3.996 454.5,-4.5 481.5,-4.5 
		481.5,29.7 473.004,29.7 473.004,63.9 481.5,63.9 481.5,85.5 473.004,85.5 473.004,107.1 481.5,107.1 481.5,128.7 473.004,128.7 
		473.004,150.3 481.5,150.3 481.5,171.9 473.004,171.9 473.004,193.5 481.5,193.5 481.5,215.1 473.004,215.1 473.004,249.3 
		481.5,249.3 481.5,283.5 454.5,283.5 454.5,275.004 427.5,275.004 427.5,283.5 405.9,283.5 405.9,275.004 384.3,275.004 
		384.3,283.5 362.7,283.5 362.7,275.004 341.1,275.004 341.1,283.5 319.5,283.5 319.5,275.004 297.9,275.004 297.9,283.5 
		276.3,283.5 276.3,275.004 254.7,275.004 254.7,283.5 233.1,283.5 233.1,275.004 211.5,275.004 211.5,283.5 189.9,283.5 
		189.9,275.004 168.3,275.004 168.3,283.5 146.7,283.5 146.7,275.004 125.1,275.004 125.1,283.5 103.5,283.5 103.5,275.004 
		81.9,275.004 81.9,283.5 60.3,283.5 60.3,275.004 38.7,275.004 38.7,283.5 17.1,283.5 17.1,275.004 -4.5,275.004 -4.5,283.5 
		-26.1,283.5 -26.1,275.004 -47.7,275.004 -47.7,283.5 -69.3,283.5 -69.3,275.004 -90.9,275.004 -90.9,283.5 -112.5,283.5 
		-112.5,275.004 -139.5,275.004 -139.5,283.5 -166.5,283.5 -166.5,249.3 -158.004,249.3 -158.004,215.1 -166.5,215.1 -166.5,193.5 
		-158.004,193.5 -158.004,171.9 -166.5,171.9 -166.5,150.3 -158.004,150.3 -158.004,128.7 -166.5,128.7 -166.5,107.1 
		-158.004,107.1 -158.004,85.5 -166.5,85.5 -166.5,63.9 -158.004,63.9 -158.004,29.7 -166.5,29.7 	"/>
</g>
<g transform="translate(1642.5, 22.5) ">
	<polygon fill="none" stroke="#FF0000" stroke-width="0.0072" points="-328.5,491.004 -328.5,465.3 -320.004,465.3 -320.004,431.1 
		-328.5,431.1 -328.5,409.5 -320.004,409.5 -320.004,387.9 -328.5,387.9 -328.5,366.3 -320.004,366.3 -320.004,344.7 -328.5,344.7 
		-328.5,323.1 -320.004,323.1 -320.004,301.5 -328.5,301.5 -328.5,279.9 -320.004,279.9 -320.004,258.3 -328.5,258.3 -328.5,236.7 
		-320.004,236.7 -320.004,215.1 -328.5,215.1 -328.5,193.5 -320.004,193.5 -320.004,171.9 -328.5,171.9 -328.5,150.3 
		-320.004,150.3 -320.004,128.7 -328.5,128.7 -328.5,107.1 -320.004,107.1 -320.004,85.5 -328.5,85.5 -328.5,63.9 -320.004,63.9 
		-320.004,29.7 -328.5,29.7 -328.5,3.996 -294.3,3.996 -294.3,-4.5 -260.1,-4.5 -260.1,3.996 -238.5,3.996 -238.5,-4.5 -216.9,-4.5 
		-216.9,3.996 -195.3,3.996 -195.3,-4.5 -173.7,-4.5 -173.7,3.996 -152.1,3.996 -152.1,-4.5 -130.5,-4.5 -130.5,3.996 -108.9,3.996 
		-108.9,-4.5 -74.7,-4.5 -74.7,3.996 -40.5,3.996 -40.5,29.7 -48.996,29.7 -48.996,63.9 -40.5,63.9 -40.5,85.5 -48.996,85.5 
		-48.996,107.1 -40.5,107.1 -40.5,128.7 -48.996,128.7 -48.996,150.3 -40.5,150.3 -40.5,171.9 -48.996,171.9 -48.996,193.5 
		-40.5,193.5 -40.5,215.1 -48.996,215.1 -48.996,236.7 -40.5,236.7 -40.5,258.3 -48.996,258.3 -48.996,279.9 -40.5,279.9 
		-40.5,301.5 -48.996,301.5 -48.996,323.1 -40.5,323.1 -40.5,344.7 -48.996,344.7 -48.996,366.3 -40.5,366.3 -40.5,387.9 
		-48.996,387.9 -48.996,409.5 -40.5,409.5 -40.5,431.1 -48.996,431.1 -48.996,465.3 -40.5,465.3 -40.5,491.004 -74.7,491.004 
		-74.7,499.5 -108.9,499.5 -108.9,491.004 -130.5,491.004 -130.5,499.5 -152.1,499.5 -152.1,491.004 -173.7,491.004 -173.7,499.5 
		-195.3,499.5 -195.3,491.004 -216.9,491.004 -216.9,499.5 -238.5,499.5 -238.5,491.004 -260.1,491.004 -260.1,499.5 -294.3,499.5 
		-294.3,491.004 	"/>
</g>
<g transform="translate(22.5, 382.5) ">
	<polygon fill="none" stroke="#FF0000" stroke-width="0.0072" points="3.996,-68.004 22.5,-68.004 22.5,-76.5 49.5,-76.5 
		49.5,-68.004 71.1,-68.004 71.1,-76.5 92.7,-76.5 92.7,-68.004 114.3,-68.004 114.3,-76.5 135.9,-76.5 135.9,-68.004 
		157.5,-68.004 157.5,-76.5 179.1,-76.5 179.1,-68.004 200.7,-68.004 200.7,-76.5 222.3,-76.5 222.3,-68.004 243.9,-68.004 
		243.9,-76.5 265.5,-76.5 265.5,-68.004 287.1,-68.004 287.1,-76.5 308.7,-76.5 308.7,-68.004 330.3,-68.004 330.3,-76.5 
		351.9,-76.5 351.9,-68.004 373.5,-68.004 373.5,-76.5 395.1,-76.5 395.1,-68.004 416.7,-68.004 416.7,-76.5 438.3,-76.5 
		438.3,-68.004 459.9,-68.004 459.9,-76.5 481.5,-76.5 481.5,-68.004 503.1,-68.004 503.1,-76.5 524.7,-76.5 524.7,-68.004 
		546.3,-68.004 546.3,-76.5 567.9,-76.5 567.9,-68.004 589.5,-68.004 589.5,-76.5 616.5,-76.5 616.5,-68.004 635.004,-68.004 
		635.004,-42.3 643.5,-42.3 643.5,-8.1 635.004,-8.1 635.004,13.5 643.5,13.5 643.5,35.1 635.004,35.1 635.004,56.7 643.5,56.7 
		643.5,78.3 635.004,78.3 635.004,99.9 643.5,99.9 643.5,121.5 635.004,121.5 635.004,143.1 643.5,143.1 643.5,164.7 635.004,164.7 
		635.004,186.3 643.5,186.3 643.5,207.9 635.004,207.9 635.004,229.5 643.5,229.5 643.5,251.1 635.004,251.1 635.004,272.7 
		643.5,272.7 643.5,294.3 635.004,294.3 635.004,315.9 643.5,315.9 643.5,337.5 635.004,337.5 635.004,359.1 643.5,359.1 
		643.5,393.3 635.004,393.3 635.004,419.004 616.5,419.004 616.5,427.5 589.5,427.5 589.5,419.004 567.9,419.004 567.9,427.5 
		546.3,427.5 546.3,419.004 524.7,419.004 524.7,427.5 503.1,427.5 503.1,419.004 481.5,419.004 481.5,427.5 459.9,427.5 
		459.9,419.004 438.3,419.004 438.3,427.5 416.7,427.5 416.7,419.004 395.1,419.004 395.1,427.5 373.5,427.5 373.5,419.004 
		351.9,419.004 351.9,427.5 330.3,427.5 330.3,419.004 308.7,419.004 308.7,427.5 287.1,427.5 287.1,419.004 265.5,419.004 
		265.5,427.5 243.9,427.5 243.9,419.004 222.3,419.004 222.3,427.5 200.7,427.5 200.7,419.004 179.1,419.004 179.1,427.5 
		157.5,427.5 157.5,419.004 135.9,419.004 135.9,427.5 114.3,427.5 114.3,419.004 92.7,419.004 92.7,427.5 71.1,427.5 71.1,419.004 
		49.5,419.004 49.5,427.5 22.5,427.5 22.5,419.004 3.996,419.004 3.996,393.3 -4.5,393.3 -4.5,359.1 3.996,359.1 3.996,337.5 
		-4.5,337.5 -4.5,315.9 3.996,315.9 3.996,294.3 -4.5,294.3 -4.5,272.7 3.996,272.7 3.996,251.1 -4.5,251.1 -4.5,229.5 3.996,229.5 
		3.996,207.9 -4.5,207.9 -4.5,186.3 3.996,186.3 3.996,164.7 -4.5,164.7 -4.5,143.1 3.996,143.1 3.996,121.5 -4.5,121.5 -4.5,99.9 
		3.996,99.9 3.996,78.3 -4.5,78.3 -4.5,56.7 3.996,56.7 3.996,35.1 -4.5,35.1 -4.5,13.5 3.996,13.5 3.996,-8.1 -4.5,-8.1 
		-4.5,-42.3 3.996,-42.3 	"/>
</g>
<g transform="translate(832.5, 382.5) ">
	<polygon fill="none" stroke="#FF0000" stroke-width="0.0072" points="-158.004,-68.004 -139.5,-68.004 -139.5,-76.5 -112.5,-76.5 
		-112.5,-68.004 -90.9,-68.004 -90.9,-76.5 -69.3,-76.5 -69.3,-68.004 -47.7,-68.004 -47.7,-76.5 -26.1,-76.5 -26.1,-68.004 
		-4.5,-68.004 -4.5,-76.5 17.1,-76.5 17.1,-68.004 38.7,-68.004 38.7,-76.5 60.3,-76.5 60.3,-68.004 81.9,-68.004 81.9,-76.5 
		103.5,-76.5 103.5,-68.004 125.1,-68.004 125.1,-76.5 146.7,-76.5 146.7,-68.004 168.3,-68.004 168.3,-76.5 189.9,-76.5 
		189.9,-68.004 211.5,-68.004 211.5,-76.5 233.1,-76.5 233.1,-68.004 254.7,-68.004 254.7,-76.5 276.3,-76.5 276.3,-68.004 
		297.9,-68.004 297.9,-76.5 319.5,-76.5 319.5,-68.004 341.1,-68.004 341.1,-76.5 362.7,-76.5 362.7,-68.004 384.3,-68.004 
		384.3,-76.5 405.9,-76.5 405.9,-68.004 427.5,-68.004 427.5,-76.5 454.5,-76.5 454.5,-68.004 473.004,-68.004 473.004,-42.3 
		481.5,-42.3 481.5,-8.1 473.004,-8.1 473.004,13.5 481.5,13.5 481.5,35.1 473.004,35.1 473.004,56.7 481.5,56.7 481.5,78.3 
		473.004,78.3 473.004,99.9 481.5,99.9 481.5,121.5 473.004,121.5 473.004,143.1 481.5,143.1 481.5,164.7 473.004,164.7 
		473.004,186.3 481.5,186.3 481.5,207.9 473.004,207.9 473.004,229.5 481.5,229.5 481.5,251.1 473.004,251.1 473.004,272.7 
		481.5,272.7 481.5,294.3 473.004,294.3 473.004,315.9 481.5,315.9 481.5,337.5 473.004,337.5 473.004,359.1 481.5,359.1 
		481.5,393.3 473.004,393.3 473.004,419.004 454.5,419.004 454.5,427.5 427.5,427.5 427.5,419.004 405.9,419.004 405.9,427.5 
		384.3,427.5 384.3,419.004 362.7,419.004 362.7,427.5 341.1,427.5 341.1,419.004 319.5,419.004 319.5,427.5 297.9,427.5 
		297.9,419.004 276.3,419.004 276.3,427.5 254.7,427.5 254.7,419.004 233.1,419.004 233.1,427.5 211.5,427.5 211.5,419.004 
		189.9,419.004 189.9,427.5 168.3,427.5 168.3,419.004 146.7,419.004 146.7,427.5 125.1,427.5 125.1,419.004 103.5,419.004 
		103.5,427.5 81.9,427.5 81.9,419.004 60.3,419.004 60.3,427.5 38.7,427.5 38.7,419.004 17.1,419.004 17.1,427.5 -4.5,427.5 
		-4.5,419.004 -26.1,419.004 -26.1,427.5 -47.7,427.5 -47.7,419.004 -69.3,419.004 -69.3,427.5 -90.9,427.5 -90.9,419.004 
		-112.5,419.004 -112.5,427.5 -139.5,427.5 -139.5,419.004 -158.004,419.004 -158.004,393.3 -166.5,393.3 -166.5,359.1 
		-158.004,359.1 -158.004,337.5 -166.5,337.5 -166.5,315.9 -158.004,315.9 -158.004,294.3 -166.5,294.3 -166.5,272.7 
		-158.004,272.7 -158.004,251.1 -166.5,251.1 -166.5,229.5 -158.004,229.5 -158.004,207.9 -166.5,207.9 -166.5,186.3 
		-158.004,186.3 -158.004,164.7 -166.5,164.7 -166.5,143.1 -158.004,143.1 -158.004,121.5 -166.5,121.5 -166.5,99.9 -158.004,99.9 
		-158.004,78.3 -166.5,78.3 -166.5,56.7 -158.004,56.7 -158.004,35.1 -166.5,35.1 -166.5,13.5 -158.004,13.5 -158.004,-8.1 
		-166.5,-8.1 -166.5,-42.3 -158.004,-42.3 	"/>
</g>
<rect x="806.4" y="428.4" fill="none" stroke="#FF0000" stroke-width="0.0088" width="367.2" height="259.199"/>
</svg>
