<?xml version="1.0" encoding="UTF-8" standalone="no"?>
<svg
   xmlns:dc="http://purl.org/dc/elements/1.1/"
   xmlns:cc="http://creativecommons.org/ns#"
   xmlns:rdf="http://www.w3.org/1999/02/22-rdf-syntax-ns#"
   xmlns:svg="http://www.w3.org/2000/svg"
   xmlns="http://www.w3.org/2000/svg"
   xmlns:sodipodi="http://sodipodi.sourceforge.net/DTD/sodipodi-0.dtd"
   xmlns:inkscape="http://www.inkscape.org/namespaces/inkscape"
   version="1.1"
   width="22.5in"
   height="26.5in"
   viewBox=" 0 0 2025 2385"
   id="svg2"
   inkscape:version="0.48.2 r9819"
   sodipodi:docname="caseplans.svg">
  <metadata
     id="metadata32">
    <rdf:RDF>
      <cc:Work
         rdf:about="">
        <dc:format>image/svg+xml</dc:format>
        <dc:type
           rdf:resource="http://purl.org/dc/dcmitype/StillImage" />
      </cc:Work>
    </rdf:RDF>
  </metadata>
  <defs
     id="defs30" />
  <sodipodi:namedview
     pagecolor="#ffffff"
     bordercolor="#666666"
     borderopacity="1"
     objecttolerance="10"
     gridtolerance="10"
     guidetolerance="10"
     inkscape:pageopacity="0"
     inkscape:pageshadow="2"
     inkscape:window-width="1267"
     inkscape:window-height="739"
     id="namedview28"
     showgrid="false"
     inkscape:zoom="0.2798779"
     inkscape:cx="639.27271"
     inkscape:cy="860.19722"
     inkscape:window-x="0"
     inkscape:window-y="0"
     inkscape:window-maximized="0"
     inkscape:current-layer="svg2" />
  <!-- Front-->
  <g
     transform="translate(22.5, 22.5) "
     id="g4">
    <polygon
       style="stroke:#000000; fill:none; stroke-width:0.9"
       points="0, 0 56.25, 0 56.25, 21.24 112.5, 21.24 112.5, 0 157.5, 0 157.5, 21.24 202.5, 21.24 202.5, 0 247.5, 0 247.5, 21.24 292.5, 21.24 292.5, 0 337.5, 0 337.5, 21.24 382.5, 21.24 382.5, 0 427.5, 0 427.5, 21.24 483.75, 21.24 483.75, 0 540, 0 540, 56.25 518.76, 56.25 518.76, 112.5 540, 112.5 540, 157.5 518.76, 157.5 518.76, 202.5 540, 202.5 540, 247.5 518.76, 247.5 518.76, 292.5 540, 292.5 540, 337.5 518.76, 337.5 518.76, 382.5 540, 382.5 540, 427.5 518.76, 427.5 518.76, 472.5 540, 472.5 540, 517.5 518.76, 517.5 518.76, 562.5 540, 562.5 540, 607.5 518.76, 607.5 518.76, 652.5 540, 652.5 540, 697.5 518.76, 697.5 518.76, 742.5 540, 742.5 540, 787.5 518.76, 787.5 518.76, 832.5 540, 832.5 540, 877.5 518.76, 877.5 518.76, 922.5 540, 922.5 540, 967.5 518.76, 967.5 518.76, 1012.5 540, 1012.5 540, 1057.5 518.76, 1057.5 518.76, 1113.75 540, 1113.75 540, 1170 483.75, 1170 483.75, 1148.76 427.5, 1148.76 427.5, 1170 382.5, 1170 382.5, 1148.76 337.5, 1148.76 337.5, 1170 292.5, 1170 292.5, 1148.76 247.5, 1148.76 247.5, 1170 202.5, 1170 202.5, 1148.76 157.5, 1148.76 157.5, 1170 112.5, 1170 112.5, 1148.76 56.25, 1148.76 56.25, 1170 0, 1170 0, 1113.75 21.24, 1113.75 21.24, 1057.5 0, 1057.5 0, 1012.5 21.24, 1012.5 21.24, 967.5 0, 967.5 0, 922.5 21.24, 922.5 21.24, 877.5 0, 877.5 0, 832.5 21.24, 832.5 21.24, 787.5 0, 787.5 0, 742.5 21.24, 742.5 21.24, 697.5 0, 697.5 0, 652.5 21.24, 652.5 21.24, 607.5 0, 607.5 0, 562.5 21.24, 562.5 21.24, 517.5 0, 517.5 0, 472.5 21.24, 472.5 21.24, 427.5 0, 427.5 0, 382.5 21.24, 382.5 21.24, 337.5 0, 337.5 0, 292.5 21.24, 292.5 21.24, 247.5 0, 247.5 0, 202.5 21.24, 202.5 21.24, 157.5 0, 157.5 0, 112.5 21.24, 112.5 21.24, 56.25 0, 56.25 "
       id="polygon6" />
  </g>
  <!-- Back-->
  <g
     transform="translate(562.5, 22.5) "
     id="g8">
    <polygon
       style="stroke:#000000; fill:none; stroke-width:0.9"
       points="0, 0 56.25, 0 56.25, 21.24 112.5, 21.24 112.5, 0 157.5, 0 157.5, 21.24 202.5, 21.24 202.5, 0 247.5, 0 247.5, 21.24 292.5, 21.24 292.5, 0 337.5, 0 337.5, 21.24 382.5, 21.24 382.5, 0 427.5, 0 427.5, 21.24 483.75, 21.24 483.75, 0 540, 0 540, 56.25 518.76, 56.25 518.76, 112.5 540, 112.5 540, 157.5 518.76, 157.5 518.76, 202.5 540, 202.5 540, 247.5 518.76, 247.5 518.76, 292.5 540, 292.5 540, 337.5 518.76, 337.5 518.76, 382.5 540, 382.5 540, 427.5 518.76, 427.5 518.76, 472.5 540, 472.5 540, 517.5 518.76, 517.5 518.76, 562.5 540, 562.5 540, 607.5 518.76, 607.5 518.76, 652.5 540, 652.5 540, 697.5 518.76, 697.5 518.76, 742.5 540, 742.5 540, 787.5 518.76, 787.5 518.76, 832.5 540, 832.5 540, 877.5 518.76, 877.5 518.76, 922.5 540, 922.5 540, 967.5 518.76, 967.5 518.76, 1012.5 540, 1012.5 540, 1057.5 518.76, 1057.5 518.76, 1113.75 540, 1113.75 540, 1170 483.75, 1170 483.75, 1148.76 427.5, 1148.76 427.5, 1170 382.5, 1170 382.5, 1148.76 337.5, 1148.76 337.5, 1170 292.5, 1170 292.5, 1148.76 247.5, 1148.76 247.5, 1170 202.5, 1170 202.5, 1148.76 157.5, 1148.76 157.5, 1170 112.5, 1170 112.5, 1148.76 56.25, 1148.76 56.25, 1170 0, 1170 0, 1113.75 21.24, 1113.75 21.24, 1057.5 0, 1057.5 0, 1012.5 21.24, 1012.5 21.24, 967.5 0, 967.5 0, 922.5 21.24, 922.5 21.24, 877.5 0, 877.5 0, 832.5 21.24, 832.5 21.24, 787.5 0, 787.5 0, 742.5 21.24, 742.5 21.24, 697.5 0, 697.5 0, 652.5 21.24, 652.5 21.24, 607.5 0, 607.5 0, 562.5 21.24, 562.5 21.24, 517.5 0, 517.5 0, 472.5 21.24, 472.5 21.24, 427.5 0, 427.5 0, 382.5 21.24, 382.5 21.24, 337.5 0, 337.5 0, 292.5 21.24, 292.5 21.24, 247.5 0, 247.5 0, 202.5 21.24, 202.5 21.24, 157.5 0, 157.5 0, 112.5 21.24, 112.5 21.24, 56.25 0, 56.25 "
       id="polygon10" />
  </g>
  <!-- Left-->
  <g
     transform="translate(1102.5, 22.5) "
     id="g12">
    <polygon
       style="stroke:#000000; fill:none; stroke-width:0.9"
       points="21.24, 0 56.25, 0 56.25, 21.24 112.5, 21.24 112.5, 0 157.5, 0 157.5, 21.24 202.5, 21.24 202.5, 0 247.5, 0 247.5, 21.24 292.5, 21.24 292.5, 0 337.5, 0 337.5, 21.24 382.5, 21.24 382.5, 0 427.5, 0 427.5, 21.24 472.5, 21.24 472.5, 0 517.5, 0 517.5, 21.24 562.5, 21.24 562.5, 0 607.5, 0 607.5, 21.24 652.5, 21.24 652.5, 0 697.5, 0 697.5, 21.24 742.5, 21.24 742.5, 0 787.5, 0 787.5, 21.24 843.75, 21.24 843.75, 0 878.76, 0 878.76, 56.25 900, 56.25 900, 112.5 878.76, 112.5 878.76, 157.5 900, 157.5 900, 202.5 878.76, 202.5 878.76, 247.5 900, 247.5 900, 292.5 878.76, 292.5 878.76, 337.5 900, 337.5 900, 382.5 878.76, 382.5 878.76, 427.5 900, 427.5 900, 472.5 878.76, 472.5 878.76, 517.5 900, 517.5 900, 562.5 878.76, 562.5 878.76, 607.5 900, 607.5 900, 652.5 878.76, 652.5 878.76, 697.5 900, 697.5 900, 742.5 878.76, 742.5 878.76, 787.5 900, 787.5 900, 832.5 878.76, 832.5 878.76, 877.5 900, 877.5 900, 922.5 878.76, 922.5 878.76, 967.5 900, 967.5 900, 1012.5 878.76, 1012.5 878.76, 1057.5 900, 1057.5 900, 1113.75 878.76, 1113.75 878.76, 1170 843.75, 1170 843.75, 1148.76 787.5, 1148.76 787.5, 1170 742.5, 1170 742.5, 1148.76 697.5, 1148.76 697.5, 1170 652.5, 1170 652.5, 1148.76 607.5, 1148.76 607.5, 1170 562.5, 1170 562.5, 1148.76 517.5, 1148.76 517.5, 1170 472.5, 1170 472.5, 1148.76 427.5, 1148.76 427.5, 1170 382.5, 1170 382.5, 1148.76 337.5, 1148.76 337.5, 1170 292.5, 1170 292.5, 1148.76 247.5, 1148.76 247.5, 1170 202.5, 1170 202.5, 1148.76 157.5, 1148.76 157.5, 1170 112.5, 1170 112.5, 1148.76 56.25, 1148.76 56.25, 1170 21.24, 1170 21.24, 1113.75 0, 1113.75 0, 1057.5 21.24, 1057.5 21.24, 1012.5 0, 1012.5 0, 967.5 21.24, 967.5 21.24, 922.5 0, 922.5 0, 877.5 21.24, 877.5 21.24, 832.5 0, 832.5 0, 787.5 21.24, 787.5 21.24, 742.5 0, 742.5 0, 697.5 21.24, 697.5 21.24, 652.5 0, 652.5 0, 607.5 21.24, 607.5 21.24, 562.5 0, 562.5 0, 517.5 21.24, 517.5 21.24, 472.5 0, 472.5 0, 427.5 21.24, 427.5 21.24, 382.5 0, 382.5 0, 337.5 21.24, 337.5 21.24, 292.5 0, 292.5 0, 247.5 21.24, 247.5 21.24, 202.5 0, 202.5 0, 157.5 21.24, 157.5 21.24, 112.5 0, 112.5 0, 56.25 21.24, 56.25 "
       id="polygon14" />
  </g>
  <!-- Right-->
  <g
     transform="translate(1102.5, 1192.5) "
     id="g16">
    <polygon
       style="stroke:#000000; fill:none; stroke-width:0.9"
       points="21.24, 0 56.25, 0 56.25, 21.24 112.5, 21.24 112.5, 0 157.5, 0 157.5, 21.24 202.5, 21.24 202.5, 0 247.5, 0 247.5, 21.24 292.5, 21.24 292.5, 0 337.5, 0 337.5, 21.24 382.5, 21.24 382.5, 0 427.5, 0 427.5, 21.24 472.5, 21.24 472.5, 0 517.5, 0 517.5, 21.24 562.5, 21.24 562.5, 0 607.5, 0 607.5, 21.24 652.5, 21.24 652.5, 0 697.5, 0 697.5, 21.24 742.5, 21.24 742.5, 0 787.5, 0 787.5, 21.24 843.75, 21.24 843.75, 0 878.76, 0 878.76, 56.25 900, 56.25 900, 112.5 878.76, 112.5 878.76, 157.5 900, 157.5 900, 202.5 878.76, 202.5 878.76, 247.5 900, 247.5 900, 292.5 878.76, 292.5 878.76, 337.5 900, 337.5 900, 382.5 878.76, 382.5 878.76, 427.5 900, 427.5 900, 472.5 878.76, 472.5 878.76, 517.5 900, 517.5 900, 562.5 878.76, 562.5 878.76, 607.5 900, 607.5 900, 652.5 878.76, 652.5 878.76, 697.5 900, 697.5 900, 742.5 878.76, 742.5 878.76, 787.5 900, 787.5 900, 832.5 878.76, 832.5 878.76, 877.5 900, 877.5 900, 922.5 878.76, 922.5 878.76, 967.5 900, 967.5 900, 1012.5 878.76, 1012.5 878.76, 1057.5 900, 1057.5 900, 1113.75 878.76, 1113.75 878.76, 1170 843.75, 1170 843.75, 1148.76 787.5, 1148.76 787.5, 1170 742.5, 1170 742.5, 1148.76 697.5, 1148.76 697.5, 1170 652.5, 1170 652.5, 1148.76 607.5, 1148.76 607.5, 1170 562.5, 1170 562.5, 1148.76 517.5, 1148.76 517.5, 1170 472.5, 1170 472.5, 1148.76 427.5, 1148.76 427.5, 1170 382.5, 1170 382.5, 1148.76 337.5, 1148.76 337.5, 1170 292.5, 1170 292.5, 1148.76 247.5, 1148.76 247.5, 1170 202.5, 1170 202.5, 1148.76 157.5, 1148.76 157.5, 1170 112.5, 1170 112.5, 1148.76 56.25, 1148.76 56.25, 1170 21.24, 1170 21.24, 1113.75 0, 1113.75 0, 1057.5 21.24, 1057.5 21.24, 1012.5 0, 1012.5 0, 967.5 21.24, 967.5 21.24, 922.5 0, 922.5 0, 877.5 21.24, 877.5 21.24, 832.5 0, 832.5 0, 787.5 21.24, 787.5 21.24, 742.5 0, 742.5 0, 697.5 21.24, 697.5 21.24, 652.5 0, 652.5 0, 607.5 21.24, 607.5 21.24, 562.5 0, 562.5 0, 517.5 21.24, 517.5 21.24, 472.5 0, 472.5 0, 427.5 21.24, 427.5 21.24, 382.5 0, 382.5 0, 337.5 21.24, 337.5 21.24, 292.5 0, 292.5 0, 247.5 21.24, 247.5 21.24, 202.5 0, 202.5 0, 157.5 21.24, 157.5 21.24, 112.5 0, 112.5 0, 56.25 21.24, 56.25 "
       id="polygon18" />
  </g>
  <!-- Top-->
  <g
     transform="translate(22.5, 1192.5) "
     id="g20">
    <polygon
       style="stroke:#000000; fill:none; stroke-width:0.9"
       points="21.24, 21.24 56.25, 21.24 56.25, 0 112.5, 0 112.5, 21.24 157.5, 21.24 157.5, 0 202.5, 0 202.5, 21.24 247.5, 21.24 247.5, 0 292.5, 0 292.5, 21.24 337.5, 21.24 337.5, 0 382.5, 0 382.5, 21.24 427.5, 21.24 427.5, 0 483.75, 0 483.75, 21.24 518.76, 21.24 518.76, 56.25 540, 56.25 540, 112.5 518.76, 112.5 518.76, 157.5 540, 157.5 540, 202.5 518.76, 202.5 518.76, 247.5 540, 247.5 540, 292.5 518.76, 292.5 518.76, 337.5 540, 337.5 540, 382.5 518.76, 382.5 518.76, 427.5 540, 427.5 540, 472.5 518.76, 472.5 518.76, 517.5 540, 517.5 540, 562.5 518.76, 562.5 518.76, 607.5 540, 607.5 540, 652.5 518.76, 652.5 518.76, 697.5 540, 697.5 540, 742.5 518.76, 742.5 518.76, 787.5 540, 787.5 540, 843.75 518.76, 843.75 518.76, 878.76 483.75, 878.76 483.75, 900 427.5, 900 427.5, 878.76 382.5, 878.76 382.5, 900 337.5, 900 337.5, 878.76 292.5, 878.76 292.5, 900 247.5, 900 247.5, 878.76 202.5, 878.76 202.5, 900 157.5, 900 157.5, 878.76 112.5, 878.76 112.5, 900 56.25, 900 56.25, 878.76 21.24, 878.76 21.24, 843.75 0, 843.75 0, 787.5 21.24, 787.5 21.24, 742.5 0, 742.5 0, 697.5 21.24, 697.5 21.24, 652.5 0, 652.5 0, 607.5 21.24, 607.5 21.24, 562.5 0, 562.5 0, 517.5 21.24, 517.5 21.24, 472.5 0, 472.5 0, 427.5 21.24, 427.5 21.24, 382.5 0, 382.5 0, 337.5 21.24, 337.5 21.24, 292.5 0, 292.5 0, 247.5 21.24, 247.5 21.24, 202.5 0, 202.5 0, 157.5 21.24, 157.5 21.24, 112.5 0, 112.5 0, 56.25 21.24, 56.25 "
       id="polygon22" />
  </g>
  <!-- Bottom-->
  <g
     transform="translate(562.5, 1192.5) "
     id="g24">
    <polygon
       style="stroke:#000000; fill:none; stroke-width:0.9"
       points="21.24, 21.24 56.25, 21.24 56.25, 0 112.5, 0 112.5, 21.24 157.5, 21.24 157.5, 0 202.5, 0 202.5, 21.24 247.5, 21.24 247.5, 0 292.5, 0 292.5, 21.24 337.5, 21.24 337.5, 0 382.5, 0 382.5, 21.24 427.5, 21.24 427.5, 0 483.75, 0 483.75, 21.24 518.76, 21.24 518.76, 56.25 540, 56.25 540, 112.5 518.76, 112.5 518.76, 157.5 540, 157.5 540, 202.5 518.76, 202.5 518.76, 247.5 540, 247.5 540, 292.5 518.76, 292.5 518.76, 337.5 540, 337.5 540, 382.5 518.76, 382.5 518.76, 427.5 540, 427.5 540, 472.5 518.76, 472.5 518.76, 517.5 540, 517.5 540, 562.5 518.76, 562.5 518.76, 607.5 540, 607.5 540, 652.5 518.76, 652.5 518.76, 697.5 540, 697.5 540, 742.5 518.76, 742.5 518.76, 787.5 540, 787.5 540, 843.75 518.76, 843.75 518.76, 878.76 483.75, 878.76 483.75, 900 427.5, 900 427.5, 878.76 382.5, 878.76 382.5, 900 337.5, 900 337.5, 878.76 292.5, 878.76 292.5, 900 247.5, 900 247.5, 878.76 202.5, 878.76 202.5, 900 157.5, 900 157.5, 878.76 112.5, 878.76 112.5, 900 56.25, 900 56.25, 878.76 21.24, 878.76 21.24, 843.75 0, 843.75 0, 787.5 21.24, 787.5 21.24, 742.5 0, 742.5 0, 697.5 21.24, 697.5 21.24, 652.5 0, 652.5 0, 607.5 21.24, 607.5 21.24, 562.5 0, 562.5 0, 517.5 21.24, 517.5 21.24, 472.5 0, 472.5 0, 427.5 21.24, 427.5 21.24, 382.5 0, 382.5 0, 337.5 21.24, 337.5 21.24, 292.5 0, 292.5 0, 247.5 21.24, 247.5 21.24, 202.5 0, 202.5 0, 157.5 21.24, 157.5 21.24, 112.5 0, 112.5 0, 56.25 21.24, 56.25 "
       id="polygon26" />
  </g>
  <rect
     style="fill:none;stroke:#ff0000;stroke-width:1px;stroke-linecap:butt;stroke-linejoin:miter;stroke-opacity:1"
     id="rect3009"
     width="405"
     height="720"
     x="632.41864"
     y="1288.0931" />
  <rect
     style="fill:none;stroke:#ff0000"
     id="rect3011"
     width="35.433071"
     height="35.433071"
     x="285.8389"
     y="1634.6729" />
</svg>
