<?xml version="1.0" encoding="utf-8"?>
<!-- Generator: Adobe Illustrator 16.0.0, SVG Export Plug-In . SVG Version: 6.00 Build 0)  -->
<!DOCTYPE svg PUBLIC "-//W3C//DTD SVG 1.1//EN" "http://www.w3.org/Graphics/SVG/1.1/DTD/svg11.dtd">
<svg version="1.1" id="Layer_1" xmlns="http://www.w3.org/2000/svg" xmlns:xlink="http://www.w3.org/1999/xlink" x="0px" y="0px"
	 width="1116px" height="1620px" viewBox="0 0 1116 1620" enable-background="new 0 0 1116 1620" xml:space="preserve">
<g transform="translate(22.5, 22.5) ">
	<polygon fill="none" stroke="#FF0000" stroke-width="0.0072" points="-4.5,-4.5 40.5,-4.5 40.5,10.98 85.5,10.98 85.5,-4.5 
		121.5,-4.5 121.5,10.98 157.5,10.98 157.5,-4.5 193.5,-4.5 193.5,10.98 229.5,10.98 229.5,-4.5 265.5,-4.5 265.5,10.98 
		310.5,10.98 310.5,-4.5 355.5,-4.5 355.5,40.5 340.02,40.5 340.02,85.5 355.5,85.5 355.5,121.5 340.02,121.5 340.02,157.5 
		355.5,157.5 355.5,193.5 340.02,193.5 340.02,229.5 355.5,229.5 355.5,265.5 340.02,265.5 340.02,301.5 355.5,301.5 355.5,337.5 
		340.02,337.5 340.02,373.5 355.5,373.5 355.5,409.5 340.02,409.5 340.02,445.5 355.5,445.5 355.5,481.5 340.02,481.5 340.02,517.5 
		355.5,517.5 355.5,553.5 340.02,553.5 340.02,589.5 355.5,589.5 355.5,625.5 340.02,625.5 340.02,661.5 355.5,661.5 355.5,697.5 
		340.02,697.5 340.02,742.5 355.5,742.5 355.5,787.5 310.5,787.5 310.5,772.02 265.5,772.02 265.5,787.5 229.5,787.5 229.5,772.02 
		193.5,772.02 193.5,787.5 157.5,787.5 157.5,772.02 121.5,772.02 121.5,787.5 85.5,787.5 85.5,772.02 40.5,772.02 40.5,787.5 
		-4.5,787.5 -4.5,742.5 10.98,742.5 10.98,697.5 -4.5,697.5 -4.5,661.5 10.98,661.5 10.98,625.5 -4.5,625.5 -4.5,589.5 10.98,589.5 
		10.98,553.5 -4.5,553.5 -4.5,517.5 10.98,517.5 10.98,481.5 -4.5,481.5 -4.5,445.5 10.98,445.5 10.98,409.5 -4.5,409.5 -4.5,373.5 
		10.98,373.5 10.98,337.5 -4.5,337.5 -4.5,301.5 10.98,301.5 10.98,265.5 -4.5,265.5 -4.5,229.5 10.98,229.5 10.98,193.5 
		-4.5,193.5 -4.5,157.5 10.98,157.5 10.98,121.5 -4.5,121.5 -4.5,85.5 10.98,85.5 10.98,40.5 -4.5,40.5 	"/>
</g>
<g transform="translate(472.5, 22.5) ">
	<polygon fill="none" stroke="#FF0000" stroke-width="0.0072" points="-94.5,-4.5 -49.5,-4.5 -49.5,10.98 -4.5,10.98 -4.5,-4.5 
		31.5,-4.5 31.5,10.98 67.5,10.98 67.5,-4.5 103.5,-4.5 103.5,10.98 139.5,10.98 139.5,-4.5 175.5,-4.5 175.5,10.98 220.5,10.98 
		220.5,-4.5 265.5,-4.5 265.5,40.5 250.02,40.5 250.02,85.5 265.5,85.5 265.5,121.5 250.02,121.5 250.02,157.5 265.5,157.5 
		265.5,193.5 250.02,193.5 250.02,229.5 265.5,229.5 265.5,265.5 250.02,265.5 250.02,301.5 265.5,301.5 265.5,337.5 250.02,337.5 
		250.02,373.5 265.5,373.5 265.5,409.5 250.02,409.5 250.02,445.5 265.5,445.5 265.5,481.5 250.02,481.5 250.02,517.5 265.5,517.5 
		265.5,553.5 250.02,553.5 250.02,589.5 265.5,589.5 265.5,625.5 250.02,625.5 250.02,661.5 265.5,661.5 265.5,697.5 250.02,697.5 
		250.02,742.5 265.5,742.5 265.5,787.5 220.5,787.5 220.5,772.02 175.5,772.02 175.5,787.5 139.5,787.5 139.5,772.02 103.5,772.02 
		103.5,787.5 67.5,787.5 67.5,772.02 31.5,772.02 31.5,787.5 -4.5,787.5 -4.5,772.02 -49.5,772.02 -49.5,787.5 -94.5,787.5 
		-94.5,742.5 -79.02,742.5 -79.02,697.5 -94.5,697.5 -94.5,661.5 -79.02,661.5 -79.02,625.5 -94.5,625.5 -94.5,589.5 -79.02,589.5 
		-79.02,553.5 -94.5,553.5 -94.5,517.5 -79.02,517.5 -79.02,481.5 -94.5,481.5 -94.5,445.5 -79.02,445.5 -79.02,409.5 -94.5,409.5 
		-94.5,373.5 -79.02,373.5 -79.02,337.5 -94.5,337.5 -94.5,301.5 -79.02,301.5 -79.02,265.5 -94.5,265.5 -94.5,229.5 -79.02,229.5 
		-79.02,193.5 -94.5,193.5 -94.5,157.5 -79.02,157.5 -79.02,121.5 -94.5,121.5 -94.5,85.5 -79.02,85.5 -79.02,40.5 -94.5,40.5 	"/>
</g>
<g transform="translate(922.5, 22.5) ">
	<polygon fill="none" stroke="#FF0000" stroke-width="0.0072" points="-169.02,-4.5 -139.5,-4.5 -139.5,10.98 -94.5,10.98 
		-94.5,-4.5 -58.5,-4.5 -58.5,10.98 -22.5,10.98 -22.5,-4.5 13.5,-4.5 13.5,10.98 49.5,10.98 49.5,-4.5 85.5,-4.5 85.5,10.98 
		130.5,10.98 130.5,-4.5 160.02,-4.5 160.02,40.5 175.5,40.5 175.5,85.5 160.02,85.5 160.02,121.5 175.5,121.5 175.5,157.5 
		160.02,157.5 160.02,193.5 175.5,193.5 175.5,229.5 160.02,229.5 160.02,265.5 175.5,265.5 175.5,301.5 160.02,301.5 160.02,337.5 
		175.5,337.5 175.5,373.5 160.02,373.5 160.02,409.5 175.5,409.5 175.5,445.5 160.02,445.5 160.02,481.5 175.5,481.5 175.5,517.5 
		160.02,517.5 160.02,553.5 175.5,553.5 175.5,589.5 160.02,589.5 160.02,625.5 175.5,625.5 175.5,661.5 160.02,661.5 160.02,697.5 
		175.5,697.5 175.5,742.5 160.02,742.5 160.02,787.5 130.5,787.5 130.5,772.02 85.5,772.02 85.5,787.5 49.5,787.5 49.5,772.02 
		13.5,772.02 13.5,787.5 -22.5,787.5 -22.5,772.02 -58.5,772.02 -58.5,787.5 -94.5,787.5 -94.5,772.02 -139.5,772.02 -139.5,787.5 
		-169.02,787.5 -169.02,742.5 -184.5,742.5 -184.5,697.5 -169.02,697.5 -169.02,661.5 -184.5,661.5 -184.5,625.5 -169.02,625.5 
		-169.02,589.5 -184.5,589.5 -184.5,553.5 -169.02,553.5 -169.02,517.5 -184.5,517.5 -184.5,481.5 -169.02,481.5 -169.02,445.5 
		-184.5,445.5 -184.5,409.5 -169.02,409.5 -169.02,373.5 -184.5,373.5 -184.5,337.5 -169.02,337.5 -169.02,301.5 -184.5,301.5 
		-184.5,265.5 -169.02,265.5 -169.02,229.5 -184.5,229.5 -184.5,193.5 -169.02,193.5 -169.02,157.5 -184.5,157.5 -184.5,121.5 
		-169.02,121.5 -169.02,85.5 -184.5,85.5 -184.5,40.5 -169.02,40.5 	"/>
</g>
<g transform="translate(922.5, 1012.5) ">
	<polygon fill="none" stroke="#FF0000" stroke-width="0.0072" points="-169.02,-202.5 -139.5,-202.5 -139.5,-187.02 -94.5,-187.02 
		-94.5,-202.5 -58.5,-202.5 -58.5,-187.02 -22.5,-187.02 -22.5,-202.5 13.5,-202.5 13.5,-187.02 49.5,-187.02 49.5,-202.5 
		85.5,-202.5 85.5,-187.02 130.5,-187.02 130.5,-202.5 160.02,-202.5 160.02,-157.5 175.5,-157.5 175.5,-112.5 160.02,-112.5 
		160.02,-76.5 175.5,-76.5 175.5,-40.5 160.02,-40.5 160.02,-4.5 175.5,-4.5 175.5,31.5 160.02,31.5 160.02,67.5 175.5,67.5 
		175.5,103.5 160.02,103.5 160.02,139.5 175.5,139.5 175.5,175.5 160.02,175.5 160.02,211.5 175.5,211.5 175.5,247.5 160.02,247.5 
		160.02,283.5 175.5,283.5 175.5,319.5 160.02,319.5 160.02,355.5 175.5,355.5 175.5,391.5 160.02,391.5 160.02,427.5 175.5,427.5 
		175.5,463.5 160.02,463.5 160.02,499.5 175.5,499.5 175.5,544.5 160.02,544.5 160.02,589.5 130.5,589.5 130.5,574.02 85.5,574.02 
		85.5,589.5 49.5,589.5 49.5,574.02 13.5,574.02 13.5,589.5 -22.5,589.5 -22.5,574.02 -58.5,574.02 -58.5,589.5 -94.5,589.5 
		-94.5,574.02 -139.5,574.02 -139.5,589.5 -169.02,589.5 -169.02,544.5 -184.5,544.5 -184.5,499.5 -169.02,499.5 -169.02,463.5 
		-184.5,463.5 -184.5,427.5 -169.02,427.5 -169.02,391.5 -184.5,391.5 -184.5,355.5 -169.02,355.5 -169.02,319.5 -184.5,319.5 
		-184.5,283.5 -169.02,283.5 -169.02,247.5 -184.5,247.5 -184.5,211.5 -169.02,211.5 -169.02,175.5 -184.5,175.5 -184.5,139.5 
		-169.02,139.5 -169.02,103.5 -184.5,103.5 -184.5,67.5 -169.02,67.5 -169.02,31.5 -184.5,31.5 -184.5,-4.5 -169.02,-4.5 
		-169.02,-40.5 -184.5,-40.5 -184.5,-76.5 -169.02,-76.5 -169.02,-112.5 -184.5,-112.5 -184.5,-157.5 -169.02,-157.5 	"/>
</g>
<g transform="translate(22.5, 1012.5) ">
	<polygon fill="none" stroke="#FF0000" stroke-width="0.0072" points="10.98,-187.02 40.5,-187.02 40.5,-202.5 85.5,-202.5 
		85.5,-187.02 121.5,-187.02 121.5,-202.5 157.5,-202.5 157.5,-187.02 193.5,-187.02 193.5,-202.5 229.5,-202.5 229.5,-187.02 
		265.5,-187.02 265.5,-202.5 310.5,-202.5 310.5,-187.02 340.02,-187.02 340.02,-157.5 355.5,-157.5 355.5,-112.5 340.02,-112.5 
		340.02,-76.5 355.5,-76.5 355.5,-40.5 340.02,-40.5 340.02,-4.5 355.5,-4.5 355.5,31.5 340.02,31.5 340.02,67.5 355.5,67.5 
		355.5,112.5 340.02,112.5 340.02,142.02 310.5,142.02 310.5,157.5 265.5,157.5 265.5,142.02 229.5,142.02 229.5,157.5 193.5,157.5 
		193.5,142.02 157.5,142.02 157.5,157.5 121.5,157.5 121.5,142.02 85.5,142.02 85.5,157.5 40.5,157.5 40.5,142.02 10.98,142.02 
		10.98,112.5 -4.5,112.5 -4.5,67.5 10.98,67.5 10.98,31.5 -4.5,31.5 -4.5,-4.5 10.98,-4.5 10.98,-40.5 -4.5,-40.5 -4.5,-76.5 
		10.98,-76.5 10.98,-112.5 -4.5,-112.5 -4.5,-157.5 10.98,-157.5 	"/>
</g>
<g transform="translate(472.5, 1012.5) ">
	<polygon fill="none" stroke="#FF0000" stroke-width="0.0072" points="-79.02,-187.02 -49.5,-187.02 -49.5,-202.5 -4.5,-202.5 
		-4.5,-187.02 31.5,-187.02 31.5,-202.5 67.5,-202.5 67.5,-187.02 103.5,-187.02 103.5,-202.5 139.5,-202.5 139.5,-187.02 
		175.5,-187.02 175.5,-202.5 220.5,-202.5 220.5,-187.02 250.02,-187.02 250.02,-157.5 265.5,-157.5 265.5,-112.5 250.02,-112.5 
		250.02,-76.5 265.5,-76.5 265.5,-40.5 250.02,-40.5 250.02,-4.5 265.5,-4.5 265.5,31.5 250.02,31.5 250.02,67.5 265.5,67.5 
		265.5,112.5 250.02,112.5 250.02,142.02 220.5,142.02 220.5,157.5 175.5,157.5 175.5,142.02 139.5,142.02 139.5,157.5 103.5,157.5 
		103.5,142.02 67.5,142.02 67.5,157.5 31.5,157.5 31.5,142.02 -4.5,142.02 -4.5,157.5 -49.5,157.5 -49.5,142.02 -79.02,142.02 
		-79.02,112.5 -94.5,112.5 -94.5,67.5 -79.02,67.5 -79.02,31.5 -94.5,31.5 -94.5,-4.5 -79.02,-4.5 -79.02,-40.5 -94.5,-40.5 
		-94.5,-76.5 -79.02,-76.5 -79.02,-112.5 -94.5,-112.5 -94.5,-157.5 -79.02,-157.5 	"/>
</g>
<rect id="rect3923-4" x="396.57" y="828.41" fill="none" stroke="#FF0000" stroke-width="0.072" width="322.859" height="323.18"/>
<rect id="rect3923-4_1_" x="183.827" y="975.826" fill="none" stroke="#FF0000" stroke-width="0.072" width="28.347" height="28.347"/>
</svg>
