<?xml version="1.0" encoding="UTF-8" standalone="no"?>
<svg
   xmlns:dc="http://purl.org/dc/elements/1.1/"
   xmlns:cc="http://creativecommons.org/ns#"
   xmlns:rdf="http://www.w3.org/1999/02/22-rdf-syntax-ns#"
   xmlns:svg="http://www.w3.org/2000/svg"
   xmlns="http://www.w3.org/2000/svg"
   xmlns:sodipodi="http://sodipodi.sourceforge.net/DTD/sodipodi-0.dtd"
   xmlns:inkscape="http://www.inkscape.org/namespaces/inkscape"
   version="1.1"
   width="15.5in"
   height="22.5in"
   viewBox=" 0 0 1395 2025"
   id="svg3087"
   inkscape:version="0.48.2 r9819"
   sodipodi:docname="BlackBox.svg">
  <metadata
     id="metadata3117">
    <rdf:RDF>
      <cc:Work
         rdf:about="">
        <dc:format>image/svg+xml</dc:format>
        <dc:type
           rdf:resource="http://purl.org/dc/dcmitype/StillImage" />
      </cc:Work>
    </rdf:RDF>
  </metadata>
  <defs
     id="defs3115" />
  <sodipodi:namedview
     pagecolor="#ffffff"
     bordercolor="#666666"
     borderopacity="1"
     objecttolerance="10"
     gridtolerance="10"
     guidetolerance="10"
     inkscape:pageopacity="0"
     inkscape:pageshadow="2"
     inkscape:window-width="1103"
     inkscape:window-height="677"
     id="namedview3113"
     showgrid="false"
     inkscape:zoom="0.19903746"
     inkscape:cx="65.131579"
     inkscape:cy="1012.5"
     inkscape:window-x="186"
     inkscape:window-y="0"
     inkscape:window-maximized="0"
     inkscape:current-layer="svg3087" />
  <!-- Front-->
  <g
     transform="translate(22.5, 22.5) "
     id="g3089"
     style="stroke-width:0.09;stroke-miterlimit:4;stroke-dasharray:none;fill:none;stroke:#ff0000;stroke-opacity:1">
    <polygon
       style="stroke:#ff0000;fill:none;stroke-width:0.09;stroke-miterlimit:4;stroke-dasharray:none;stroke-opacity:1"
       points="0, 0 49.499999999999986, 0 49.499999999999986, 10.62 98.99999999999997, 10.62 98.99999999999997, 0 134.99999999999997, 0 134.99999999999997, 10.62 170.99999999999997, 10.62 170.99999999999997, 0 206.99999999999997, 0 206.99999999999997, 10.62 242.99999999999997, 10.62 242.99999999999997, 0 279, 0 279, 10.62 315, 10.62 315, 0 351, 0 351, 10.62 400.49999999999994, 10.62 400.49999999999994, 0 450, 0 450, 58.49999999999999 439.38, 58.49999999999999 439.38, 116.99999999999999 450, 116.99999999999999 450, 153 439.38, 153 439.38, 189 450, 189 450, 225 439.38, 225 439.38, 261 450, 261 450, 297 439.38, 297 439.38, 333 450, 333 450, 369 439.38, 369 439.38, 405 450, 405 450, 441 439.38, 441 439.38, 477 450, 477 450, 513 439.38, 513 439.38, 549 450, 549 450, 585 439.38, 585 439.38, 621 450, 621 450, 657 439.38, 657 439.38, 693 450, 693 450, 729 439.38, 729 439.38, 765 450, 765 450, 801 439.38, 801 439.38, 837 450, 837 450, 873 439.38, 873 439.38, 931.5 450, 931.5 449.99999999999994, 990 400.49999999999994, 990 400.49999999999994, 979.38 351, 979.38 351, 990 315, 990 315, 979.38 279, 979.38 279, 990 242.99999999999997, 990 242.99999999999997, 979.38 206.99999999999997, 979.38 206.99999999999997, 990 170.99999999999997, 990 170.99999999999997, 979.38 134.99999999999997, 979.38 134.99999999999997, 990 98.99999999999997, 990 98.99999999999997, 979.38 49.499999999999986, 979.38 49.499999999999986, 990 0, 990 0, 931.5 10.62, 931.5 10.62, 873 0, 873 0, 837 10.62, 837 10.62, 801 0, 801 0, 765 10.62, 765 10.62, 729 0, 729 0, 693 10.62, 693 10.62, 657 0, 657 0, 621 10.62, 621 10.62, 585 0, 585 0, 549 10.62, 549 10.62, 513 0, 513 0, 477 10.62, 477 10.62, 441 0, 441 0, 405 10.62, 405 10.62, 369 0, 369 0, 333 10.62, 333 10.62, 297 0, 297 0, 261 10.62, 261 10.62, 225 0, 225 0, 189 10.62, 189 10.62, 153 0, 153 0, 116.99999999999999 10.62, 116.99999999999999 10.62, 58.49999999999999 0, 58.49999999999999 "
       id="polygon3091" />
  </g>
  <!-- Back-->
  <g
     transform="translate(472.5, 22.5) "
     id="g3093"
     style="stroke-width:0.09;stroke-miterlimit:4;stroke-dasharray:none;fill:none;stroke:#ff0000;stroke-opacity:1">
    <polygon
       style="stroke:#ff0000;fill:none;stroke-width:0.09;stroke-miterlimit:4;stroke-dasharray:none;stroke-opacity:1"
       points="0, 0 49.499999999999986, 0 49.499999999999986, 10.62 98.99999999999997, 10.62 98.99999999999997, 0 134.99999999999997, 0 134.99999999999997, 10.62 170.99999999999997, 10.62 170.99999999999997, 0 206.99999999999997, 0 206.99999999999997, 10.62 242.99999999999997, 10.62 242.99999999999997, 0 279, 0 279, 10.62 315, 10.62 315, 0 351, 0 351, 10.62 400.49999999999994, 10.62 400.49999999999994, 0 450, 0 450, 58.49999999999999 439.38, 58.49999999999999 439.38, 116.99999999999999 450, 116.99999999999999 450, 153 439.38, 153 439.38, 189 450, 189 450, 225 439.38, 225 439.38, 261 450, 261 450, 297 439.38, 297 439.38, 333 450, 333 450, 369 439.38, 369 439.38, 405 450, 405 450, 441 439.38, 441 439.38, 477 450, 477 450, 513 439.38, 513 439.38, 549 450, 549 450, 585 439.38, 585 439.38, 621 450, 621 450, 657 439.38, 657 439.38, 693 450, 693 450, 729 439.38, 729 439.38, 765 450, 765 450, 801 439.38, 801 439.38, 837 450, 837 450, 873 439.38, 873 439.38, 931.5 450, 931.5 449.99999999999994, 990 400.49999999999994, 990 400.49999999999994, 979.38 351, 979.38 351, 990 315, 990 315, 979.38 279, 979.38 279, 990 242.99999999999997, 990 242.99999999999997, 979.38 206.99999999999997, 979.38 206.99999999999997, 990 170.99999999999997, 990 170.99999999999997, 979.38 134.99999999999997, 979.38 134.99999999999997, 990 98.99999999999997, 990 98.99999999999997, 979.38 49.499999999999986, 979.38 49.499999999999986, 990 0, 990 0, 931.5 10.62, 931.5 10.62, 873 0, 873 0, 837 10.62, 837 10.62, 801 0, 801 0, 765 10.62, 765 10.62, 729 0, 729 0, 693 10.62, 693 10.62, 657 0, 657 0, 621 10.62, 621 10.62, 585 0, 585 0, 549 10.62, 549 10.62, 513 0, 513 0, 477 10.62, 477 10.62, 441 0, 441 0, 405 10.62, 405 10.62, 369 0, 369 0, 333 10.62, 333 10.62, 297 0, 297 0, 261 10.62, 261 10.62, 225 0, 225 0, 189 10.62, 189 10.62, 153 0, 153 0, 116.99999999999999 10.62, 116.99999999999999 10.62, 58.49999999999999 0, 58.49999999999999 "
       id="polygon3095" />
  </g>
  <!-- Left-->
  <g
     transform="translate(922.5, 22.5) "
     id="g3097"
     style="stroke-width:0.09;stroke-miterlimit:4;stroke-dasharray:none;fill:none;stroke:#ff0000;stroke-opacity:1">
    <polygon
       style="stroke:#ff0000;fill:none;stroke-width:0.09;stroke-miterlimit:4;stroke-dasharray:none;stroke-opacity:1"
       points="10.62, 0 49.499999999999986, 0 49.499999999999986, 10.62 98.99999999999997, 10.62 98.99999999999997, 0 134.99999999999997, 0 134.99999999999997, 10.62 170.99999999999997, 10.62 170.99999999999997, 0 206.99999999999997, 0 206.99999999999997, 10.62 242.99999999999997, 10.62 242.99999999999997, 0 279, 0 279, 10.62 315, 10.62 315, 0 351, 0 351, 10.62 400.49999999999994, 10.62 400.49999999999994, 0 439.38, 0 439.38, 58.49999999999999 450, 58.49999999999999 450, 116.99999999999999 439.38, 116.99999999999999 439.38, 153 450, 153 450, 189 439.38, 189 439.38, 225 450, 225 450, 261 439.38, 261 439.38, 297 450, 297 450, 333 439.38, 333 439.38, 369 450, 369 450, 405 439.38, 405 439.38, 441 450, 441 450, 477 439.38, 477 439.38, 513 450, 513 450, 549 439.38, 549 439.38, 585 450, 585 450, 621 439.38, 621 439.38, 657 450, 657 450, 693 439.38, 693 439.38, 729 450, 729 450, 765 439.38, 765 439.38, 801 450, 801 450, 837 439.38, 837 439.38, 873 450, 873 450, 931.5 439.38, 931.5 439.37999999999994, 990 400.49999999999994, 990 400.49999999999994, 979.38 351, 979.38 351, 990 315, 990 315, 979.38 279, 979.38 279, 990 242.99999999999997, 990 242.99999999999997, 979.38 206.99999999999997, 979.38 206.99999999999997, 990 170.99999999999997, 990 170.99999999999997, 979.38 134.99999999999997, 979.38 134.99999999999997, 990 98.99999999999997, 990 98.99999999999997, 979.38 49.499999999999986, 979.38 49.499999999999986, 990 10.62, 990 10.62, 931.5 0, 931.5 0, 873 10.62, 873 10.62, 837 0, 837 0, 801 10.62, 801 10.62, 765 0, 765 0, 729 10.62, 729 10.62, 693 0, 693 0, 657 10.62, 657 10.62, 621 0, 621 0, 585 10.62, 585 10.62, 549 0, 549 0, 513 10.62, 513 10.62, 477 0, 477 0, 441 10.62, 441 10.62, 405 0, 405 0, 369 10.62, 369 10.62, 333 0, 333 0, 297 10.62, 297 10.62, 261 0, 261 0, 225 10.62, 225 10.62, 189 0, 189 0, 153 10.62, 153 10.62, 116.99999999999999 0, 116.99999999999999 0, 58.49999999999999 10.62, 58.49999999999999 "
       id="polygon3099" />
  </g>
  <!-- Right-->
  <g
     transform="translate(922.5, 1012.5) "
     id="g3101"
     style="stroke-width:0.09;stroke-miterlimit:4;stroke-dasharray:none;fill:none;stroke:#ff0000;stroke-opacity:1">
    <polygon
       style="stroke:#ff0000;fill:none;stroke-width:0.09;stroke-miterlimit:4;stroke-dasharray:none;stroke-opacity:1"
       points="10.62, 0 49.499999999999986, 0 49.499999999999986, 10.62 98.99999999999997, 10.62 98.99999999999997, 0 134.99999999999997, 0 134.99999999999997, 10.62 170.99999999999997, 10.62 170.99999999999997, 0 206.99999999999997, 0 206.99999999999997, 10.62 242.99999999999997, 10.62 242.99999999999997, 0 279, 0 279, 10.62 315, 10.62 315, 0 351, 0 351, 10.62 400.49999999999994, 10.62 400.49999999999994, 0 439.38, 0 439.38, 58.49999999999999 450, 58.49999999999999 450, 116.99999999999999 439.38, 116.99999999999999 439.38, 153 450, 153 450, 189 439.38, 189 439.38, 225 450, 225 450, 261 439.38, 261 439.38, 297 450, 297 450, 333 439.38, 333 439.38, 369 450, 369 450, 405 439.38, 405 439.38, 441 450, 441 450, 477 439.38, 477 439.38, 513 450, 513 450, 549 439.38, 549 439.38, 585 450, 585 450, 621 439.38, 621 439.38, 657 450, 657 450, 693 439.38, 693 439.38, 729 450, 729 450, 765 439.38, 765 439.38, 801 450, 801 450, 837 439.38, 837 439.38, 873 450, 873 450, 931.5 439.38, 931.5 439.37999999999994, 990 400.49999999999994, 990 400.49999999999994, 979.38 351, 979.38 351, 990 315, 990 315, 979.38 279, 979.38 279, 990 242.99999999999997, 990 242.99999999999997, 979.38 206.99999999999997, 979.38 206.99999999999997, 990 170.99999999999997, 990 170.99999999999997, 979.38 134.99999999999997, 979.38 134.99999999999997, 990 98.99999999999997, 990 98.99999999999997, 979.38 49.499999999999986, 979.38 49.499999999999986, 990 10.62, 990 10.62, 931.5 0, 931.5 0, 873 10.62, 873 10.62, 837 0, 837 0, 801 10.62, 801 10.62, 765 0, 765 0, 729 10.62, 729 10.62, 693 0, 693 0, 657 10.62, 657 10.62, 621 0, 621 0, 585 10.62, 585 10.62, 549 0, 549 0, 513 10.62, 513 10.62, 477 0, 477 0, 441 10.62, 441 10.62, 405 0, 405 0, 369 10.62, 369 10.62, 333 0, 333 0, 297 10.62, 297 10.62, 261 0, 261 0, 225 10.62, 225 10.62, 189 0, 189 0, 153 10.62, 153 10.62, 116.99999999999999 0, 116.99999999999999 0, 58.49999999999999 10.62, 58.49999999999999 "
       id="polygon3103" />
  </g>
  <!-- Top-->
  <g
     transform="translate(22.5, 1012.5) "
     id="g3105"
     style="stroke-width:0.09;stroke-miterlimit:4;stroke-dasharray:none;fill:none;stroke:#ff0000;stroke-opacity:1">
    <polygon
       style="stroke:#ff0000;fill:none;stroke-width:0.09;stroke-miterlimit:4;stroke-dasharray:none;stroke-opacity:1"
       points="10.62, 10.62 49.499999999999986, 10.62 49.499999999999986, 0 98.99999999999997, 0 98.99999999999997, 10.62 134.99999999999997, 10.62 134.99999999999997, 0 170.99999999999997, 0 170.99999999999997, 10.62 206.99999999999997, 10.62 206.99999999999997, 0 242.99999999999997, 0 242.99999999999997, 10.62 279, 10.62 279, 0 315, 0 315, 10.62 351, 10.62 351, 0 400.49999999999994, 0 400.49999999999994, 10.62 439.38, 10.62 439.38, 49.499999999999986 450, 49.499999999999986 450, 98.99999999999997 439.38, 98.99999999999997 439.38, 134.99999999999997 450, 134.99999999999997 450, 170.99999999999997 439.38, 170.99999999999997 439.38, 206.99999999999997 450, 206.99999999999997 450, 242.99999999999997 439.38, 242.99999999999997 439.38, 279 450, 279 450, 315 439.38, 315 439.38, 351 450, 351 450, 400.49999999999994 439.38, 400.49999999999994 439.37999999999994, 439.38 400.49999999999994, 439.38 400.49999999999994, 450 351, 450 351, 439.38 315, 439.38 315, 450 279, 450 279, 439.38 242.99999999999997, 439.38 242.99999999999997, 450 206.99999999999997, 450 206.99999999999997, 439.38 170.99999999999997, 439.38 170.99999999999997, 450 134.99999999999997, 450 134.99999999999997, 439.38 98.99999999999997, 439.38 98.99999999999997, 450 49.499999999999986, 450 49.499999999999986, 439.38 10.62, 439.37999999999994 10.62, 400.49999999999994 0, 400.49999999999994 0, 351 10.62, 351 10.62, 315 0, 315 0, 279 10.62, 279 10.62, 242.99999999999997 0, 242.99999999999997 0, 206.99999999999997 10.62, 206.99999999999997 10.62, 170.99999999999997 0, 170.99999999999997 0, 134.99999999999997 10.62, 134.99999999999997 10.62, 98.99999999999997 0, 98.99999999999997 0, 49.499999999999986 10.62, 49.499999999999986 "
       id="polygon3107" />
  </g>
  <!-- Bottom-->
  <g
     transform="translate(472.5, 1012.5) "
     id="g3109"
     style="stroke-width:0.09;stroke-miterlimit:4;stroke-dasharray:none;fill:none;stroke:#ff0000;stroke-opacity:1">
    <polygon
       style="stroke:#ff0000;fill:none;stroke-width:0.09;stroke-miterlimit:4;stroke-dasharray:none;stroke-opacity:1"
       points="10.62, 10.62 49.499999999999986, 10.62 49.499999999999986, 0 98.99999999999997, 0 98.99999999999997, 10.62 134.99999999999997, 10.62 134.99999999999997, 0 170.99999999999997, 0 170.99999999999997, 10.62 206.99999999999997, 10.62 206.99999999999997, 0 242.99999999999997, 0 242.99999999999997, 10.62 279, 10.62 279, 0 315, 0 315, 10.62 351, 10.62 351, 0 400.49999999999994, 0 400.49999999999994, 10.62 439.38, 10.62 439.38, 49.499999999999986 450, 49.499999999999986 450, 98.99999999999997 439.38, 98.99999999999997 439.38, 134.99999999999997 450, 134.99999999999997 450, 170.99999999999997 439.38, 170.99999999999997 439.38, 206.99999999999997 450, 206.99999999999997 450, 242.99999999999997 439.38, 242.99999999999997 439.38, 279 450, 279 450, 315 439.38, 315 439.38, 351 450, 351 450, 400.49999999999994 439.38, 400.49999999999994 439.37999999999994, 439.38 400.49999999999994, 439.38 400.49999999999994, 450 351, 450 351, 439.38 315, 439.38 315, 450 279, 450 279, 439.38 242.99999999999997, 439.38 242.99999999999997, 450 206.99999999999997, 450 206.99999999999997, 439.38 170.99999999999997, 439.38 170.99999999999997, 450 134.99999999999997, 450 134.99999999999997, 439.38 98.99999999999997, 439.38 98.99999999999997, 450 49.499999999999986, 450 49.499999999999986, 439.38 10.62, 439.37999999999994 10.62, 400.49999999999994 0, 400.49999999999994 0, 351 10.62, 351 10.62, 315 0, 315 0, 279 10.62, 279 10.62, 242.99999999999997 0, 242.99999999999997 0, 206.99999999999997 10.62, 206.99999999999997 10.62, 170.99999999999997 0, 170.99999999999997 0, 134.99999999999997 10.62, 134.99999999999997 10.62, 98.99999999999997 0, 98.99999999999997 0, 49.499999999999986 10.62, 49.499999999999986 "
       id="polygon3111" />
  </g>
  <rect
     style="fill:none;stroke:#ff0000;stroke-width:0.09;stroke-miterlimit:4;stroke-dasharray:none;stroke-opacity:1"
     id="rect3923"
     width="35.393036"
     height="35.40316"
     x="229.80348"
     y="1219.7985" />
  <rect
     style="fill:none;stroke:#ff0000;stroke-width:1.02659786;stroke-miterlimit:4;stroke-opacity:1;stroke-dasharray:none"
     id="rect3923-4"
     width="403.57361"
     height="403.97339"
     x="495.7132"
     y="1035.5133" />
</svg>
