<?xml version="1.0" encoding="utf-8"?>
<!-- Generator: Adobe Illustrator 16.0.0, SVG Export Plug-In . SVG Version: 6.00 Build 0)  -->
<!DOCTYPE svg PUBLIC "-//W3C//DTD SVG 1.1//EN" "http://www.w3.org/Graphics/SVG/1.1/DTD/svg11.dtd">
<svg version="1.1" id="Layer_1" xmlns="http://www.w3.org/2000/svg" xmlns:xlink="http://www.w3.org/1999/xlink" x="0px" y="0px"
	 width="1382.977px" height="861.984px" viewBox="0 0 1382.977 861.984" enable-background="new 0 0 1382.977 861.984"
	 xml:space="preserve">
<g transform="translate(22.5, 22.5) ">
	<polygon fill="none" stroke="#FF0000" stroke-width="0.0072" points="-4.5,-4.5 26.748,-4.5 26.748,3.996 57.996,3.996 
		57.996,-4.5 79.596,-4.5 79.596,3.996 101.196,3.996 101.196,-4.5 122.796,-4.5 122.796,3.996 144.396,3.996 144.396,-4.5 
		165.996,-4.5 165.996,3.996 187.596,3.996 187.596,-4.5 209.196,-4.5 209.196,3.996 230.796,3.996 230.796,-4.5 252.396,-4.5 
		252.396,3.996 273.996,3.996 273.996,-4.5 295.596,-4.5 295.596,3.996 317.196,3.996 317.196,-4.5 338.796,-4.5 338.796,3.996 
		360.396,3.996 360.396,-4.5 381.996,-4.5 381.996,3.996 413.244,3.996 413.244,-4.5 444.492,-4.5 444.492,30.348 435.996,30.348 
		435.996,65.196 444.492,65.196 444.492,86.796 435.996,86.796 435.996,108.396 444.492,108.396 444.492,129.996 435.996,129.996 
		435.996,151.595 444.492,151.595 444.492,173.196 435.996,173.196 435.996,194.796 444.492,194.796 444.492,216.396 
		435.996,216.396 435.996,237.996 444.492,237.996 444.492,259.595 435.996,259.595 435.996,281.196 444.492,281.196 
		444.492,302.796 435.996,302.796 435.996,337.644 444.492,337.644 444.492,372.492 413.244,372.492 413.244,363.996 
		381.996,363.996 381.996,372.492 360.396,372.492 360.396,363.996 338.796,363.996 338.796,372.492 317.196,372.492 
		317.196,363.996 295.596,363.996 295.596,372.492 273.996,372.492 273.996,363.996 252.396,363.996 252.396,372.492 
		230.796,372.492 230.796,363.996 209.196,363.996 209.196,372.492 187.596,372.492 187.596,363.996 165.996,363.996 
		165.996,372.492 144.396,372.492 144.396,363.996 122.796,363.996 122.796,372.492 101.196,372.492 101.196,363.996 
		79.596,363.996 79.596,372.492 57.996,372.492 57.996,363.996 26.748,363.996 26.748,372.492 -4.5,372.492 -4.5,337.644 
		3.996,337.644 3.996,302.796 -4.5,302.796 -4.5,281.196 3.996,281.196 3.996,259.595 -4.5,259.595 -4.5,237.996 3.996,237.996 
		3.996,216.396 -4.5,216.396 -4.5,194.796 3.996,194.796 3.996,173.196 -4.5,173.196 -4.5,151.595 3.996,151.595 3.996,129.996 
		-4.5,129.996 -4.5,108.396 3.996,108.396 3.996,86.796 -4.5,86.796 -4.5,65.196 3.996,65.196 3.996,30.348 -4.5,30.348 	"/>
</g>
<g transform="translate(583.74, 22.5) ">
	<polygon fill="none" stroke="#FF0000" stroke-width="0.0072" points="-116.748,-4.5 -85.5,-4.5 -85.5,3.996 -54.252,3.996 
		-54.252,-4.5 -32.652,-4.5 -32.652,3.996 -11.052,3.996 -11.052,-4.5 10.548,-4.5 10.548,3.996 32.148,3.996 32.148,-4.5 
		53.748,-4.5 53.748,3.996 75.348,3.996 75.348,-4.5 96.948,-4.5 96.948,3.996 118.548,3.996 118.548,-4.5 140.149,-4.5 
		140.149,3.996 161.748,3.996 161.748,-4.5 183.348,-4.5 183.348,3.996 204.948,3.996 204.948,-4.5 226.548,-4.5 226.548,3.996 
		248.149,3.996 248.149,-4.5 269.748,-4.5 269.748,3.996 300.996,3.996 300.996,-4.5 332.244,-4.5 332.244,30.348 323.748,30.348 
		323.748,65.196 332.244,65.196 332.244,86.796 323.748,86.796 323.748,108.396 332.244,108.396 332.244,129.996 323.748,129.996 
		323.748,151.595 332.244,151.595 332.244,173.196 323.748,173.196 323.748,194.796 332.244,194.796 332.244,216.396 
		323.748,216.396 323.748,237.996 332.244,237.996 332.244,259.595 323.748,259.595 323.748,281.196 332.244,281.196 
		332.244,302.796 323.748,302.796 323.748,337.644 332.244,337.644 332.244,372.492 300.996,372.492 300.996,363.996 
		269.748,363.996 269.748,372.492 248.149,372.492 248.149,363.996 226.548,363.996 226.548,372.492 204.948,372.492 
		204.948,363.996 183.348,363.996 183.348,372.492 161.748,372.492 161.748,363.996 140.149,363.996 140.149,372.492 
		118.548,372.492 118.548,363.996 96.948,363.996 96.948,372.492 75.348,372.492 75.348,363.996 53.748,363.996 53.748,372.492 
		32.148,372.492 32.148,363.996 10.548,363.996 10.548,372.492 -11.052,372.492 -11.052,363.996 -32.652,363.996 -32.652,372.492 
		-54.252,372.492 -54.252,363.996 -85.5,363.996 -85.5,372.492 -116.748,372.492 -116.748,337.644 -108.252,337.644 
		-108.252,302.796 -116.748,302.796 -116.748,281.196 -108.252,281.196 -108.252,259.595 -116.748,259.595 -116.748,237.996 
		-108.252,237.996 -108.252,216.396 -116.748,216.396 -116.748,194.796 -108.252,194.796 -108.252,173.196 -116.748,173.196 
		-116.748,151.595 -108.252,151.595 -108.252,129.996 -116.748,129.996 -116.748,108.396 -108.252,108.396 -108.252,86.796 
		-116.748,86.796 -116.748,65.196 -108.252,65.196 -108.252,30.348 -116.748,30.348 	"/>
</g>
<g transform="translate(1144.98, 22.5) ">
	<polygon fill="none" stroke="#FF0000" stroke-width="0.0072" points="-220.5,-4.5 -197.748,-4.5 -197.748,3.996 -166.5,3.996 
		-166.5,-4.5 -144.9,-4.5 -144.9,3.996 -123.3,3.996 -123.3,-4.5 -101.7,-4.5 -101.7,3.996 -80.1,3.996 -80.1,-4.5 -58.5,-4.5 
		-58.5,3.996 -36.9,3.996 -36.9,-4.5 -15.3,-4.5 -15.3,3.996 6.3,3.996 6.3,-4.5 27.9,-4.5 27.9,3.996 49.5,3.996 49.5,-4.5 
		71.1,-4.5 71.1,3.996 92.7,3.996 92.7,-4.5 114.3,-4.5 114.3,3.996 135.9,3.996 135.9,-4.5 157.5,-4.5 157.5,3.996 188.749,3.996 
		188.749,-4.5 211.5,-4.5 211.5,30.348 219.997,30.348 219.997,65.196 211.5,65.196 211.5,86.796 219.997,86.796 219.997,108.396 
		211.5,108.396 211.5,129.996 219.997,129.996 219.997,151.595 211.5,151.595 211.5,173.196 219.997,173.196 219.997,194.796 
		211.5,194.796 211.5,216.396 219.997,216.396 219.997,237.996 211.5,237.996 211.5,259.595 219.997,259.595 219.997,281.196 
		211.5,281.196 211.5,302.796 219.997,302.796 219.997,337.644 211.5,337.644 211.5,372.492 188.749,372.492 188.749,363.996 
		157.5,363.996 157.5,372.492 135.9,372.492 135.9,363.996 114.3,363.996 114.3,372.492 92.7,372.492 92.7,363.996 71.1,363.996 
		71.1,372.492 49.5,372.492 49.5,363.996 27.9,363.996 27.9,372.492 6.3,372.492 6.3,363.996 -15.3,363.996 -15.3,372.492 
		-36.9,372.492 -36.9,363.996 -58.5,363.996 -58.5,372.492 -80.1,372.492 -80.1,363.996 -101.7,363.996 -101.7,372.492 
		-123.3,372.492 -123.3,363.996 -144.9,363.996 -144.9,372.492 -166.5,372.492 -166.5,363.996 -197.748,363.996 -197.748,372.492 
		-220.5,372.492 -220.5,337.644 -228.996,337.644 -228.996,302.796 -220.5,302.796 -220.5,281.196 -228.996,281.196 
		-228.996,259.595 -220.5,259.595 -220.5,237.996 -228.996,237.996 -228.996,216.396 -220.5,216.396 -220.5,194.796 
		-228.996,194.796 -228.996,173.196 -220.5,173.196 -220.5,151.595 -228.996,151.595 -228.996,129.996 -220.5,129.996 
		-220.5,108.396 -228.996,108.396 -228.996,86.796 -220.5,86.796 -220.5,65.196 -228.996,65.196 -228.996,30.348 -220.5,30.348 	"/>
</g>
<g transform="translate(1144.98, 493.73999999999995) ">
	<polygon fill="none" stroke="#FF0000" stroke-width="0.0072" points="-220.5,-98.748 -197.748,-98.748 -197.748,-90.252 
		-166.5,-90.252 -166.5,-98.748 -144.9,-98.748 -144.9,-90.252 -123.3,-90.252 -123.3,-98.748 -101.7,-98.748 -101.7,-90.252 
		-80.1,-90.252 -80.1,-98.748 -58.5,-98.748 -58.5,-90.252 -36.9,-90.252 -36.9,-98.748 -15.3,-98.748 -15.3,-90.252 6.3,-90.252 
		6.3,-98.748 27.9,-98.748 27.9,-90.252 49.5,-90.252 49.5,-98.748 71.1,-98.748 71.1,-90.252 92.7,-90.252 92.7,-98.748 
		114.3,-98.748 114.3,-90.252 135.9,-90.252 135.9,-98.748 157.5,-98.748 157.5,-90.252 188.749,-90.252 188.749,-98.748 
		211.5,-98.748 211.5,-63.9 219.997,-63.9 219.997,-29.052 211.5,-29.052 211.5,-7.452 219.997,-7.452 219.997,14.147 211.5,14.147 
		211.5,35.748 219.997,35.748 219.997,57.348 211.5,57.348 211.5,78.948 219.997,78.948 219.997,100.548 211.5,100.548 
		211.5,122.147 219.997,122.147 219.997,143.748 211.5,143.748 211.5,165.348 219.997,165.348 219.997,186.948 211.5,186.948 
		211.5,208.548 219.997,208.548 219.997,243.396 211.5,243.396 211.5,278.244 188.749,278.244 188.749,269.748 157.5,269.748 
		157.5,278.244 135.9,278.244 135.9,269.748 114.3,269.748 114.3,278.244 92.7,278.244 92.7,269.748 71.1,269.748 71.1,278.244 
		49.5,278.244 49.5,269.748 27.9,269.748 27.9,278.244 6.3,278.244 6.3,269.748 -15.3,269.748 -15.3,278.244 -36.9,278.244 
		-36.9,269.748 -58.5,269.748 -58.5,278.244 -80.1,278.244 -80.1,269.748 -101.7,269.748 -101.7,278.244 -123.3,278.244 
		-123.3,269.748 -144.9,269.748 -144.9,278.244 -166.5,278.244 -166.5,269.748 -197.748,269.748 -197.748,278.244 -220.5,278.244 
		-220.5,243.396 -228.996,243.396 -228.996,208.548 -220.5,208.548 -220.5,186.948 -228.996,186.948 -228.996,165.348 
		-220.5,165.348 -220.5,143.748 -228.996,143.748 -228.996,122.147 -220.5,122.147 -220.5,100.548 -228.996,100.548 
		-228.996,78.948 -220.5,78.948 -220.5,57.348 -228.996,57.348 -228.996,35.748 -220.5,35.748 -220.5,14.147 -228.996,14.147 
		-228.996,-7.452 -220.5,-7.452 -220.5,-29.052 -228.996,-29.052 -228.996,-63.9 -220.5,-63.9 	"/>
</g>
<g transform="translate(22.5, 493.73999999999995) ">
	<polygon fill="none" stroke="#FF0000" stroke-width="0.0072" points="3.996,-90.252 26.748,-90.252 26.748,-98.748 57.996,-98.748 
		57.996,-90.252 79.596,-90.252 79.596,-98.748 101.196,-98.748 101.196,-90.252 122.796,-90.252 122.796,-98.748 144.396,-98.748 
		144.396,-90.252 165.996,-90.252 165.996,-98.748 187.596,-98.748 187.596,-90.252 209.196,-90.252 209.196,-98.748 
		230.796,-98.748 230.796,-90.252 252.396,-90.252 252.396,-98.748 273.996,-98.748 273.996,-90.252 295.596,-90.252 
		295.596,-98.748 317.196,-98.748 317.196,-90.252 338.796,-90.252 338.796,-98.748 360.396,-98.748 360.396,-90.252 
		381.996,-90.252 381.996,-98.748 413.244,-98.748 413.244,-90.252 435.996,-90.252 435.996,-67.5 444.492,-67.5 444.492,-36.252 
		435.996,-36.252 435.996,-14.652 444.492,-14.652 444.492,6.948 435.996,6.948 435.996,28.548 444.492,28.548 444.492,50.147 
		435.996,50.147 435.996,71.748 444.492,71.748 444.492,93.348 435.996,93.348 435.996,114.948 444.492,114.948 444.492,136.548 
		435.996,136.548 435.996,158.147 444.492,158.147 444.492,179.748 435.996,179.748 435.996,201.348 444.492,201.348 
		444.492,222.948 435.996,222.948 435.996,244.548 444.492,244.548 444.492,266.147 435.996,266.147 435.996,287.748 
		444.492,287.748 444.492,318.996 435.996,318.996 435.996,341.748 413.244,341.748 413.244,350.244 381.996,350.244 
		381.996,341.748 360.396,341.748 360.396,350.244 338.796,350.244 338.796,341.748 317.196,341.748 317.196,350.244 
		295.596,350.244 295.596,341.748 273.996,341.748 273.996,350.244 252.396,350.244 252.396,341.748 230.796,341.748 
		230.796,350.244 209.196,350.244 209.196,341.748 187.596,341.748 187.596,350.244 165.996,350.244 165.996,341.748 
		144.396,341.748 144.396,350.244 122.796,350.244 122.796,341.748 101.196,341.748 101.196,350.244 79.596,350.244 79.596,341.748 
		57.996,341.748 57.996,350.244 26.748,350.244 26.748,341.748 3.996,341.748 3.996,318.996 -4.5,318.996 -4.5,287.748 
		3.996,287.748 3.996,266.147 -4.5,266.147 -4.5,244.548 3.996,244.548 3.996,222.948 -4.5,222.948 -4.5,201.348 3.996,201.348 
		3.996,179.748 -4.5,179.748 -4.5,158.147 3.996,158.147 3.996,136.548 -4.5,136.548 -4.5,114.948 3.996,114.948 3.996,93.348 
		-4.5,93.348 -4.5,71.748 3.996,71.748 3.996,50.147 -4.5,50.147 -4.5,28.548 3.996,28.548 3.996,6.948 -4.5,6.948 -4.5,-14.652 
		3.996,-14.652 3.996,-36.252 -4.5,-36.252 -4.5,-67.5 3.996,-67.5 	"/>
</g>
<g transform="translate(583.74, 493.73999999999995) ">
	<polygon fill="none" stroke="#FF0000" stroke-width="0.0072" points="-108.252,-90.252 -85.5,-90.252 -85.5,-98.748 
		-54.252,-98.748 -54.252,-90.252 -32.652,-90.252 -32.652,-98.748 -11.052,-98.748 -11.052,-90.252 10.548,-90.252 10.548,-98.748 
		32.148,-98.748 32.148,-90.252 53.748,-90.252 53.748,-98.748 75.348,-98.748 75.348,-90.252 96.948,-90.252 96.948,-98.748 
		118.548,-98.748 118.548,-90.252 140.149,-90.252 140.149,-98.748 161.748,-98.748 161.748,-90.252 183.348,-90.252 
		183.348,-98.748 204.948,-98.748 204.948,-90.252 226.548,-90.252 226.548,-98.748 248.149,-98.748 248.149,-90.252 
		269.748,-90.252 269.748,-98.748 300.996,-98.748 300.996,-90.252 323.748,-90.252 323.748,-67.5 332.244,-67.5 332.244,-36.252 
		323.748,-36.252 323.748,-14.652 332.244,-14.652 332.244,6.948 323.748,6.948 323.748,28.548 332.244,28.548 332.244,50.147 
		323.748,50.147 323.748,71.748 332.244,71.748 332.244,93.348 323.748,93.348 323.748,114.948 332.244,114.948 332.244,136.548 
		323.748,136.548 323.748,158.147 332.244,158.147 332.244,179.748 323.748,179.748 323.748,201.348 332.244,201.348 
		332.244,222.948 323.748,222.948 323.748,244.548 332.244,244.548 332.244,266.147 323.748,266.147 323.748,287.748 
		332.244,287.748 332.244,318.996 323.748,318.996 323.748,341.748 300.996,341.748 300.996,350.244 269.748,350.244 
		269.748,341.748 248.149,341.748 248.149,350.244 226.548,350.244 226.548,341.748 204.948,341.748 204.948,350.244 
		183.348,350.244 183.348,341.748 161.748,341.748 161.748,350.244 140.149,350.244 140.149,341.748 118.548,341.748 
		118.548,350.244 96.948,350.244 96.948,341.748 75.348,341.748 75.348,350.244 53.748,350.244 53.748,341.748 32.148,341.748 
		32.148,350.244 10.548,350.244 10.548,341.748 -11.052,341.748 -11.052,350.244 -32.652,350.244 -32.652,341.748 -54.252,341.748 
		-54.252,350.244 -85.5,350.244 -85.5,341.748 -108.252,341.748 -108.252,318.996 -116.748,318.996 -116.748,287.748 
		-108.252,287.748 -108.252,266.147 -116.748,266.147 -116.748,244.548 -108.252,244.548 -108.252,222.948 -116.748,222.948 
		-116.748,201.348 -108.252,201.348 -108.252,179.748 -116.748,179.748 -116.748,158.147 -108.252,158.147 -108.252,136.548 
		-116.748,136.548 -116.748,114.948 -108.252,114.948 -108.252,93.348 -116.748,93.348 -116.748,71.748 -108.252,71.748 
		-108.252,50.147 -116.748,50.147 -116.748,28.548 -108.252,28.548 -108.252,6.948 -116.748,6.948 -116.748,-14.652 
		-108.252,-14.652 -108.252,-36.252 -116.748,-36.252 -116.748,-67.5 -108.252,-67.5 	"/>
</g>
</svg>
