<?xml version="1.0" encoding="utf-8"?>
<!-- Generator: Adobe Illustrator 16.0.0, SVG Export Plug-In . SVG Version: 6.00 Build 0)  -->
<!DOCTYPE svg PUBLIC "-//W3C//DTD SVG 1.1//EN" "http://www.w3.org/Graphics/SVG/1.1/DTD/svg11.dtd">
<svg version="1.1" id="Layer_1" xmlns="http://www.w3.org/2000/svg" xmlns:xlink="http://www.w3.org/1999/xlink" x="0px" y="0px"
	 width="1620px" height="1908px" viewBox="0 0 1620 1908" enable-background="new 0 0 1620 1908" xml:space="preserve">
<g transform="translate(22.5, 22.5) ">
	<polygon fill="none" stroke="#FF0000" stroke-width="0.0072" stroke-miterlimit="10" points="-148.204,1724.977 -148.204,1679.387 
		-139.708,1679.387 -139.708,1634.977 -148.204,1634.977 -148.204,1598.387 -139.708,1598.387 -139.708,1562.977 -148.204,1562.977 
		-148.204,1526.387 -139.708,1526.387 -139.708,1490.977 -148.204,1490.977 -148.204,1454.387 -139.708,1454.387 -139.708,1418.977 
		-148.204,1418.977 -148.204,1382.387 -139.708,1382.387 -139.708,1337.977 -148.204,1337.977 -148.204,1292.387 -102.614,1292.387 
		-102.614,1300.883 -58.204,1300.883 -58.204,1292.387 -21.614,1292.387 -21.614,1300.883 13.796,1300.883 13.796,1292.387 
		50.386,1292.387 50.386,1300.883 85.796,1300.883 85.796,1292.387 122.386,1292.387 122.386,1300.883 157.796,1300.883 
		157.796,1292.387 194.386,1292.387 194.386,1300.883 229.796,1300.883 229.796,1292.387 266.386,1292.387 266.386,1300.883 
		301.796,1300.883 301.796,1292.387 338.386,1292.387 338.386,1300.883 373.796,1300.883 373.796,1292.387 410.386,1292.387 
		410.386,1300.883 445.796,1300.883 445.796,1292.387 482.386,1292.387 482.386,1300.883 517.796,1300.883 517.796,1292.387 
		554.386,1292.387 554.386,1300.883 589.796,1300.883 589.796,1292.387 626.386,1292.387 626.386,1300.883 661.796,1300.883 
		661.796,1292.387 698.386,1292.387 698.386,1300.883 742.796,1300.883 742.796,1292.387 788.386,1292.387 788.386,1337.977 
		779.89,1337.977 779.89,1382.387 788.386,1382.387 788.386,1418.977 779.89,1418.977 779.89,1454.387 788.386,1454.387 
		788.386,1490.977 779.89,1490.977 779.89,1526.387 788.386,1526.387 788.386,1562.977 779.89,1562.977 779.89,1598.387 
		788.386,1598.387 788.386,1634.977 779.89,1634.977 779.89,1679.387 788.386,1679.387 788.386,1724.977 742.796,1724.977 
		742.796,1716.48 698.386,1716.48 698.386,1724.977 661.796,1724.977 661.796,1716.48 626.386,1716.48 626.386,1724.977 
		589.796,1724.977 589.796,1716.48 554.386,1716.48 554.386,1724.977 517.796,1724.977 517.796,1716.48 482.386,1716.48 
		482.386,1724.977 445.796,1724.977 445.796,1716.48 410.386,1716.48 410.386,1724.977 373.796,1724.977 373.796,1716.48 
		338.386,1716.48 338.386,1724.977 301.796,1724.977 301.796,1716.48 266.386,1716.48 266.386,1724.977 229.796,1724.977 
		229.796,1716.48 194.386,1716.48 194.386,1724.977 157.796,1724.977 157.796,1716.48 122.386,1716.48 122.386,1724.977 
		85.796,1724.977 85.796,1716.48 50.386,1716.48 50.386,1724.977 13.796,1724.977 13.796,1716.48 -21.614,1716.48 -21.614,1724.977 
		-58.204,1724.977 -58.204,1716.48 -102.614,1716.48 -102.614,1724.977 	"/>
</g>
<g transform="translate(563.238, 22.5) ">
	<polygon fill="none" stroke="#FF0000" stroke-width="0.0072" stroke-miterlimit="10" points="-688.942,1292.387 -688.942,1246.796 
		-680.446,1246.796 -680.446,1202.387 -688.942,1202.387 -688.942,1165.796 -680.446,1165.796 -680.446,1130.387 -688.942,1130.387 
		-688.942,1093.796 -680.446,1093.796 -680.446,1058.387 -688.942,1058.387 -688.942,1021.796 -680.446,1021.796 -680.446,986.387 
		-688.942,986.387 -688.942,949.796 -680.446,949.796 -680.446,905.387 -688.942,905.387 -688.942,859.796 -643.352,859.796 
		-643.352,868.292 -598.942,868.292 -598.942,859.796 -562.352,859.796 -562.352,868.292 -526.942,868.292 -526.942,859.796 
		-490.352,859.796 -490.352,868.292 -454.942,868.292 -454.942,859.796 -418.352,859.796 -418.352,868.292 -382.942,868.292 
		-382.942,859.796 -346.352,859.796 -346.352,868.292 -310.942,868.292 -310.942,859.796 -274.352,859.796 -274.352,868.292 
		-238.942,868.292 -238.942,859.796 -202.352,859.796 -202.352,868.292 -166.942,868.292 -166.942,859.796 -130.352,859.796 
		-130.352,868.292 -94.942,868.292 -94.942,859.796 -58.352,859.796 -58.352,868.292 -22.942,868.292 -22.942,859.796 
		13.648,859.796 13.648,868.292 49.058,868.292 49.058,859.796 85.648,859.796 85.648,868.292 121.058,868.292 121.058,859.796 
		157.648,859.796 157.648,868.292 202.058,868.292 202.058,859.796 247.648,859.796 247.648,905.387 239.152,905.387 
		239.152,949.796 247.648,949.796 247.648,986.387 239.152,986.387 239.152,1021.796 247.648,1021.796 247.648,1058.387 
		239.152,1058.387 239.152,1093.796 247.648,1093.796 247.648,1130.387 239.152,1130.387 239.152,1165.796 247.648,1165.796 
		247.648,1202.387 239.152,1202.387 239.152,1246.796 247.648,1246.796 247.648,1292.387 202.058,1292.387 202.058,1283.891 
		157.648,1283.891 157.648,1292.387 121.058,1292.387 121.058,1283.891 85.648,1283.891 85.648,1292.387 49.058,1292.387 
		49.058,1283.891 13.648,1283.891 13.648,1292.387 -22.942,1292.387 -22.942,1283.891 -58.352,1283.891 -58.352,1292.387 
		-94.942,1292.387 -94.942,1283.891 -130.352,1283.891 -130.352,1292.387 -166.942,1292.387 -166.942,1283.891 -202.352,1283.891 
		-202.352,1292.387 -238.942,1292.387 -238.942,1283.891 -274.352,1283.891 -274.352,1292.387 -310.942,1292.387 -310.942,1283.891 
		-346.352,1283.891 -346.352,1292.387 -382.942,1292.387 -382.942,1283.891 -418.352,1283.891 -418.352,1292.387 -454.942,1292.387 
		-454.942,1283.891 -490.352,1283.891 -490.352,1292.387 -526.942,1292.387 -526.942,1283.891 -562.352,1283.891 -562.352,1292.387 
		-598.942,1292.387 -598.942,1283.891 -643.352,1283.891 -643.352,1292.387 	"/>
</g>
<g transform="translate(1103.976, 22.5) ">
	<polygon fill="none" stroke="#FF0000" stroke-width="0.0072" stroke-miterlimit="10" points="-1229.68,851.3 -1229.68,814.205 
		-1221.184,814.205 -1221.184,769.796 -1229.68,769.796 -1229.68,733.205 -1221.184,733.205 -1221.184,697.796 -1229.68,697.796 
		-1229.68,661.205 -1221.184,661.205 -1221.184,625.796 -1229.68,625.796 -1229.68,589.205 -1221.184,589.205 -1221.184,553.796 
		-1229.68,553.796 -1229.68,517.205 -1221.184,517.205 -1221.184,481.796 -1229.68,481.796 -1229.68,445.205 -1221.184,445.205 
		-1221.184,409.796 -1229.68,409.796 -1229.68,373.205 -1221.184,373.205 -1221.184,337.796 -1229.68,337.796 -1229.68,301.205 
		-1221.184,301.205 -1221.184,265.796 -1229.68,265.796 -1229.68,229.205 -1221.184,229.205 -1221.184,184.796 -1229.68,184.796 
		-1229.68,147.701 -1184.68,147.701 -1184.68,139.205 -1139.09,139.205 -1139.09,147.701 -1103.68,147.701 -1103.68,139.205 
		-1067.09,139.205 -1067.09,147.701 -1031.68,147.701 -1031.68,139.205 -995.09,139.205 -995.09,147.701 -959.68,147.701 
		-959.68,139.205 -923.09,139.205 -923.09,147.701 -887.68,147.701 -887.68,139.205 -851.09,139.205 -851.09,147.701 
		-815.68,147.701 -815.68,139.205 -779.09,139.205 -779.09,147.701 -743.68,147.701 -743.68,139.205 -707.09,139.205 
		-707.09,147.701 -671.68,147.701 -671.68,139.205 -635.09,139.205 -635.09,147.701 -599.68,147.701 -599.68,139.205 
		-563.09,139.205 -563.09,147.701 -527.68,147.701 -527.68,139.205 -491.09,139.205 -491.09,147.701 -455.68,147.701 
		-455.68,139.205 -419.09,139.205 -419.09,147.701 -383.68,147.701 -383.68,139.205 -338.09,139.205 -338.09,147.701 
		-293.09,147.701 -293.09,184.796 -301.586,184.796 -301.586,229.205 -293.09,229.205 -293.09,265.796 -301.586,265.796 
		-301.586,301.205 -293.09,301.205 -293.09,337.796 -301.586,337.796 -301.586,373.205 -293.09,373.205 -293.09,409.796 
		-301.586,409.796 -301.586,445.205 -293.09,445.205 -293.09,481.796 -301.586,481.796 -301.586,517.205 -293.09,517.205 
		-293.09,553.796 -301.586,553.796 -301.586,589.205 -293.09,589.205 -293.09,625.796 -301.586,625.796 -301.586,661.205 
		-293.09,661.205 -293.09,697.796 -301.586,697.796 -301.586,733.205 -293.09,733.205 -293.09,769.796 -301.586,769.796 
		-301.586,814.205 -293.09,814.205 -293.09,851.3 -338.09,851.3 -338.09,859.796 -383.68,859.796 -383.68,851.3 -419.09,851.3 
		-419.09,859.796 -455.68,859.796 -455.68,851.3 -491.09,851.3 -491.09,859.796 -527.68,859.796 -527.68,851.3 -563.09,851.3 
		-563.09,859.796 -599.68,859.796 -599.68,851.3 -635.09,851.3 -635.09,859.796 -671.68,859.796 -671.68,851.3 -707.09,851.3 
		-707.09,859.796 -743.68,859.796 -743.68,851.3 -779.09,851.3 -779.09,859.796 -815.68,859.796 -815.68,851.3 -851.09,851.3 
		-851.09,859.796 -887.68,859.796 -887.68,851.3 -923.09,851.3 -923.09,859.796 -959.68,859.796 -959.68,851.3 -995.09,851.3 
		-995.09,859.796 -1031.68,859.796 -1031.68,851.3 -1067.09,851.3 -1067.09,859.796 -1103.68,859.796 -1103.68,851.3 
		-1139.09,851.3 -1139.09,859.796 -1184.68,859.796 -1184.68,851.3 	"/>
</g>
<g transform="translate(1103.976, 1193.238) ">
	<polygon fill="none" stroke="#FF0000" stroke-width="0.0072" stroke-miterlimit="10" points="-293.09,-319.438 -293.09,-356.533 
		-284.594,-356.533 -284.594,-400.942 -293.09,-400.942 -293.09,-437.533 -284.594,-437.533 -284.594,-472.942 -293.09,-472.942 
		-293.09,-509.533 -284.594,-509.533 -284.594,-544.942 -293.09,-544.942 -293.09,-581.533 -284.594,-581.533 -284.594,-616.942 
		-293.09,-616.942 -293.09,-653.533 -284.594,-653.533 -284.594,-688.942 -293.09,-688.942 -293.09,-725.533 -284.594,-725.533 
		-284.594,-760.942 -293.09,-760.942 -293.09,-797.533 -284.594,-797.533 -284.594,-832.942 -293.09,-832.942 -293.09,-869.533 
		-284.594,-869.533 -284.594,-904.942 -293.09,-904.942 -293.09,-941.533 -284.594,-941.533 -284.594,-985.942 -293.09,-985.942 
		-293.09,-1023.037 -248.09,-1023.037 -248.09,-1031.533 -202.499,-1031.533 -202.499,-1023.037 -167.09,-1023.037 
		-167.09,-1031.533 -130.499,-1031.533 -130.499,-1023.037 -95.089,-1023.037 -95.089,-1031.533 -58.499,-1031.533 
		-58.499,-1023.037 -23.089,-1023.037 -23.089,-1031.533 13.501,-1031.533 13.501,-1023.037 48.911,-1023.037 48.911,-1031.533 
		85.501,-1031.533 85.501,-1023.037 120.911,-1023.037 120.911,-1031.533 157.501,-1031.533 157.501,-1023.037 192.911,-1023.037 
		192.911,-1031.533 229.501,-1031.533 229.501,-1023.037 264.911,-1023.037 264.911,-1031.533 301.501,-1031.533 301.501,-1023.037 
		336.911,-1023.037 336.911,-1031.533 373.501,-1031.533 373.501,-1023.037 408.911,-1023.037 408.911,-1031.533 445.501,-1031.533 
		445.501,-1023.037 480.911,-1023.037 480.911,-1031.533 517.501,-1031.533 517.501,-1023.037 552.911,-1023.037 552.911,-1031.533 
		598.501,-1031.533 598.501,-1023.037 643.501,-1023.037 643.501,-985.942 635.005,-985.942 635.005,-941.533 643.501,-941.533 
		643.501,-904.942 635.005,-904.942 635.005,-869.533 643.501,-869.533 643.501,-832.942 635.005,-832.942 635.005,-797.533 
		643.501,-797.533 643.501,-760.942 635.005,-760.942 635.005,-725.533 643.501,-725.533 643.501,-688.942 635.005,-688.942 
		635.005,-653.533 643.501,-653.533 643.501,-616.942 635.005,-616.942 635.005,-581.533 643.501,-581.533 643.501,-544.942 
		635.005,-544.942 635.005,-509.533 643.501,-509.533 643.501,-472.942 635.005,-472.942 635.005,-437.533 643.501,-437.533 
		643.501,-400.942 635.005,-400.942 635.005,-356.533 643.501,-356.533 643.501,-319.438 598.501,-319.438 598.501,-310.942 
		552.911,-310.942 552.911,-319.438 517.501,-319.438 517.501,-310.942 480.911,-310.942 480.911,-319.438 445.501,-319.438 
		445.501,-310.942 408.911,-310.942 408.911,-319.438 373.501,-319.438 373.501,-310.942 336.911,-310.942 336.911,-319.438 
		301.501,-319.438 301.501,-310.942 264.911,-310.942 264.911,-319.438 229.501,-319.438 229.501,-310.942 192.911,-310.942 
		192.911,-319.438 157.501,-319.438 157.501,-310.942 120.911,-310.942 120.911,-319.438 85.501,-319.438 85.501,-310.942 
		48.911,-310.942 48.911,-319.438 13.501,-319.438 13.501,-310.942 -23.089,-310.942 -23.089,-319.438 -58.499,-319.438 
		-58.499,-310.942 -95.089,-310.942 -95.089,-319.438 -130.499,-319.438 -130.499,-310.942 -167.09,-310.942 -167.09,-319.438 
		-202.499,-319.438 -202.499,-310.942 -248.09,-310.942 -248.09,-319.438 	"/>
</g>
<g transform="translate(22.5, 1193.238) ">
	<polygon fill="none" stroke="#FF0000" stroke-width="0.0072" stroke-miterlimit="10" points="796.882,545.742 796.882,509.239 
		788.386,509.239 788.386,463.649 796.882,463.649 796.882,428.239 788.386,428.239 788.386,391.649 796.882,391.649 
		796.882,356.239 788.386,356.239 788.386,319.649 796.882,319.649 796.882,284.239 788.386,284.239 788.386,247.649 
		796.882,247.649 796.882,212.239 788.386,212.239 788.386,166.649 796.882,166.649 796.882,130.145 833.386,130.145 
		833.386,121.649 878.977,121.649 878.977,130.145 914.386,130.145 914.386,121.649 950.977,121.649 950.977,130.145 
		986.387,130.145 986.387,121.649 1022.977,121.649 1022.977,130.145 1058.387,130.145 1058.387,121.649 1094.977,121.649 
		1094.977,130.145 1130.387,130.145 1130.387,121.649 1166.977,121.649 1166.977,130.145 1202.387,130.145 1202.387,121.649 
		1238.977,121.649 1238.977,130.145 1274.387,130.145 1274.387,121.649 1310.977,121.649 1310.977,130.145 1346.387,130.145 
		1346.387,121.649 1382.977,121.649 1382.977,130.145 1418.387,130.145 1418.387,121.649 1463.977,121.649 1463.977,130.145 
		1500.48,130.145 1500.48,166.649 1508.977,166.649 1508.977,212.239 1500.48,212.239 1500.48,247.649 1508.977,247.649 
		1508.977,284.239 1500.48,284.239 1500.48,319.649 1508.977,319.649 1508.977,356.239 1500.48,356.239 1500.48,391.649 
		1508.977,391.649 1508.977,428.239 1500.48,428.239 1500.48,463.649 1508.977,463.649 1508.977,509.239 1500.48,509.239 
		1500.48,545.742 1463.977,545.742 1463.977,554.239 1418.387,554.239 1418.387,545.742 1382.977,545.742 1382.977,554.239 
		1346.387,554.239 1346.387,545.742 1310.977,545.742 1310.977,554.239 1274.387,554.239 1274.387,545.742 1238.977,545.742 
		1238.977,554.239 1202.387,554.239 1202.387,545.742 1166.977,545.742 1166.977,554.239 1130.387,554.239 1130.387,545.742 
		1094.977,545.742 1094.977,554.239 1058.387,554.239 1058.387,545.742 1022.977,545.742 1022.977,554.239 986.387,554.239 
		986.387,545.742 950.977,545.742 950.977,554.239 914.386,554.239 914.386,545.742 878.977,545.742 878.977,554.239 
		833.386,554.239 833.386,545.742 	"/>
</g>
<g transform="translate(563.238, 1193.238) ">
	<polygon fill="none" stroke="#FF0000" stroke-width="0.0072" stroke-miterlimit="10" points="256.144,113.153 256.144,76.649 
		247.648,76.649 247.648,31.058 256.144,31.058 256.144,-4.351 247.648,-4.351 247.648,-40.942 256.144,-40.942 256.144,-76.351 
		247.648,-76.351 247.648,-112.942 256.144,-112.942 256.144,-148.351 247.648,-148.351 247.648,-184.942 256.144,-184.942 
		256.144,-220.351 247.648,-220.351 247.648,-265.942 256.144,-265.942 256.144,-302.446 292.648,-302.446 292.648,-310.942 
		338.239,-310.942 338.239,-302.446 373.648,-302.446 373.648,-310.942 410.239,-310.942 410.239,-302.446 445.649,-302.446 
		445.649,-310.942 482.239,-310.942 482.239,-302.446 517.649,-302.446 517.649,-310.942 554.239,-310.942 554.239,-302.446 
		589.649,-302.446 589.649,-310.942 626.239,-310.942 626.239,-302.446 661.649,-302.446 661.649,-310.942 698.239,-310.942 
		698.239,-302.446 733.649,-302.446 733.649,-310.942 770.239,-310.942 770.239,-302.446 805.649,-302.446 805.649,-310.942 
		842.239,-310.942 842.239,-302.446 877.649,-302.446 877.649,-310.942 923.239,-310.942 923.239,-302.446 959.742,-302.446 
		959.742,-265.942 968.239,-265.942 968.239,-220.351 959.742,-220.351 959.742,-184.942 968.239,-184.942 968.239,-148.351 
		959.742,-148.351 959.742,-112.942 968.239,-112.942 968.239,-76.351 959.742,-76.351 959.742,-40.942 968.239,-40.942 
		968.239,-4.351 959.742,-4.351 959.742,31.058 968.239,31.058 968.239,76.649 959.742,76.649 959.742,113.153 923.239,113.153 
		923.239,121.649 877.649,121.649 877.649,113.153 842.239,113.153 842.239,121.649 805.649,121.649 805.649,113.153 
		770.239,113.153 770.239,121.649 733.649,121.649 733.649,113.153 698.239,113.153 698.239,121.649 661.649,121.649 
		661.649,113.153 626.239,113.153 626.239,121.649 589.649,121.649 589.649,113.153 554.239,113.153 554.239,121.649 
		517.649,121.649 517.649,113.153 482.239,113.153 482.239,121.649 445.649,121.649 445.649,113.153 410.239,113.153 
		410.239,121.649 373.648,121.649 373.648,113.153 338.239,113.153 338.239,121.649 292.648,121.649 292.648,113.153 	"/>
</g>
<rect x="883.181" y="1369.182" fill="none" stroke="#FF0000" stroke-width="0.0072" stroke-miterlimit="10" width="576" height="324"/>
<rect x="331.431" y="1517.213" fill="none" stroke="#FF0000" stroke-width="0.0072" stroke-miterlimit="10" width="22.32" height="22.32"/>
</svg>
