<svg xmlns="http://www.w3.org/2000/svg" version="1.1" width="26.5in" height="26.5in" viewBox = " 0 0 2385 2385" >
<!-- Front--> 
<g transform="translate(22.5, 22.5) " > 
<polygon style="stroke:#000000; fill:none; stroke-width:0.9" points="0, 0 42.75000000000001, 0 42.75000000000001, 10.62 85.50000000000001, 10.62 85.50000000000001, 0 112.50000000000001, 0 112.50000000000001, 10.62 139.5, 10.62 139.5, 0 166.5, 0 166.5, 10.62 193.5, 10.62 193.5, 0 220.5, 0 220.5, 10.62 247.5, 10.62 247.5, 0 274.5, 0 274.5, 10.62 301.5, 10.62 301.5, 0 328.5, 0 328.5, 10.62 355.5, 10.62 355.5, 0 382.5, 0 382.5, 10.62 409.5, 10.62 409.5, 0 436.5, 0 436.5, 10.62 463.5, 10.62 463.5, 0 490.5, 0 490.5, 10.62 517.5, 10.62 517.5, 0 544.5, 0 544.5, 10.62 571.5, 10.62 571.5, 0 598.5, 0 598.5, 10.62 625.5, 10.62 625.5, 0 652.5, 0 652.5, 10.62 679.5, 10.62 679.5, 0 706.5, 0 706.5, 10.62 733.5, 10.62 733.5, 0 760.5, 0 760.5, 10.62 787.5, 10.62 787.5, 0 814.5, 0 814.5, 10.62 857.25, 10.62 857.25, 0 900, 0 900, 42.75000000000001 889.38, 42.75000000000001 889.38, 85.50000000000001 900, 85.50000000000001 900, 112.50000000000001 889.38, 112.50000000000001 889.38, 139.5 900, 139.5 900, 166.5 889.38, 166.5 889.38, 193.5 900, 193.5 900, 220.5 889.38, 220.5 889.38, 247.5 900, 247.5 900, 274.5 889.38, 274.5 889.38, 301.5 900, 301.5 900, 328.5 889.38, 328.5 889.38, 355.5 900, 355.5 900, 382.5 889.38, 382.5 889.38, 409.5 900, 409.5 900, 436.5 889.38, 436.5 889.38, 463.5 900, 463.5 900, 490.5 889.38, 490.5 889.38, 517.5 900, 517.5 900, 544.5 889.38, 544.5 889.38, 571.5 900, 571.5 900, 598.5 889.38, 598.5 889.38, 625.5 900, 625.5 900, 652.5 889.38, 652.5 889.38, 679.5 900, 679.5 900, 706.5 889.38, 706.5 889.38, 733.5 900, 733.5 900, 760.5 889.38, 760.5 889.38, 787.5 900, 787.5 900, 814.5 889.38, 814.5 889.38, 841.5 900, 841.5 900, 868.5 889.38, 868.5 889.38, 895.5 900, 895.5 900, 922.5 889.38, 922.5 889.38, 949.5 900, 949.5 900, 976.5 889.38, 976.5 889.38, 1003.5 900, 1003.5 900, 1030.5 889.38, 1030.5 889.38, 1057.5 900, 1057.5 900, 1084.5 889.38, 1084.5 889.38, 1127.25 900, 1127.25 900, 1170 857.25, 1170 857.25, 1159.38 814.5, 1159.38 814.5, 1170 787.5, 1170 787.5, 1159.38 760.5, 1159.38 760.5, 1170 733.5, 1170 733.5, 1159.38 706.5, 1159.38 706.5, 1170 679.5, 1170 679.5, 1159.38 652.5, 1159.38 652.5, 1170 625.5, 1170 625.5, 1159.38 598.5, 1159.38 598.5, 1170 571.5, 1170 571.5, 1159.38 544.5, 1159.38 544.5, 1170 517.5, 1170 517.5, 1159.38 490.5, 1159.38 490.5, 1170 463.5, 1170 463.5, 1159.38 436.5, 1159.38 436.5, 1170 409.5, 1170 409.5, 1159.38 382.5, 1159.38 382.5, 1170 355.5, 1170 355.5, 1159.38 328.5, 1159.38 328.5, 1170 301.5, 1170 301.5, 1159.38 274.5, 1159.38 274.5, 1170 247.5, 1170 247.5, 1159.38 220.5, 1159.38 220.5, 1170 193.5, 1170 193.5, 1159.38 166.5, 1159.38 166.5, 1170 139.5, 1170 139.5, 1159.38 112.50000000000001, 1159.38 112.50000000000001, 1170 85.50000000000001, 1170 85.50000000000001, 1159.38 42.75000000000001, 1159.38 42.75000000000001, 1170 0, 1170 0, 1127.25 10.62, 1127.25 10.62, 1084.5 0, 1084.5 0, 1057.5 10.62, 1057.5 10.62, 1030.5 0, 1030.5 0, 1003.5 10.62, 1003.5 10.62, 976.5 0, 976.5 0, 949.5 10.62, 949.5 10.62, 922.5 0, 922.5 0, 895.5 10.62, 895.5 10.62, 868.5 0, 868.5 0, 841.5 10.62, 841.5 10.62, 814.5 0, 814.5 0, 787.5 10.62, 787.5 10.62, 760.5 0, 760.5 0, 733.5 10.62, 733.5 10.62, 706.5 0, 706.5 0, 679.5 10.62, 679.5 10.62, 652.5 0, 652.5 0, 625.5 10.62, 625.5 10.62, 598.5 0, 598.5 0, 571.5 10.62, 571.5 10.62, 544.5 0, 544.5 0, 517.5 10.62, 517.5 10.62, 490.5 0, 490.5 0, 463.5 10.62, 463.5 10.62, 436.5 0, 436.5 0, 409.5 10.62, 409.5 10.62, 382.5 0, 382.5 0, 355.5 10.62, 355.5 10.62, 328.5 0, 328.5 0, 301.5 10.62, 301.5 10.62, 274.5 0, 274.5 0, 247.5 10.62, 247.5 10.62, 220.5 0, 220.5 0, 193.5 10.62, 193.5 10.62, 166.5 0, 166.5 0, 139.5 10.62, 139.5 10.62, 112.50000000000001 0, 112.50000000000001 0, 85.50000000000001 10.62, 85.50000000000001 10.62, 42.75000000000001 0, 42.75000000000001 "/> 
</g>
<!-- Back--> 
<g transform="translate(922.5, 22.5) " > 
<polygon style="stroke:#000000; fill:none; stroke-width:0.9" points="0, 0 42.75000000000001, 0 42.75000000000001, 10.62 85.50000000000001, 10.62 85.50000000000001, 0 112.50000000000001, 0 112.50000000000001, 10.62 139.5, 10.62 139.5, 0 166.5, 0 166.5, 10.62 193.5, 10.62 193.5, 0 220.5, 0 220.5, 10.62 247.5, 10.62 247.5, 0 274.5, 0 274.5, 10.62 301.5, 10.62 301.5, 0 328.5, 0 328.5, 10.62 355.5, 10.62 355.5, 0 382.5, 0 382.5, 10.62 409.5, 10.62 409.5, 0 436.5, 0 436.5, 10.62 463.5, 10.62 463.5, 0 490.5, 0 490.5, 10.62 517.5, 10.62 517.5, 0 544.5, 0 544.5, 10.62 571.5, 10.62 571.5, 0 598.5, 0 598.5, 10.62 625.5, 10.62 625.5, 0 652.5, 0 652.5, 10.62 679.5, 10.62 679.5, 0 706.5, 0 706.5, 10.62 733.5, 10.62 733.5, 0 760.5, 0 760.5, 10.62 787.5, 10.62 787.5, 0 814.5, 0 814.5, 10.62 857.25, 10.62 857.25, 0 900, 0 900, 42.75000000000001 889.38, 42.75000000000001 889.38, 85.50000000000001 900, 85.50000000000001 900, 112.50000000000001 889.38, 112.50000000000001 889.38, 139.5 900, 139.5 900, 166.5 889.38, 166.5 889.38, 193.5 900, 193.5 900, 220.5 889.38, 220.5 889.38, 247.5 900, 247.5 900, 274.5 889.38, 274.5 889.38, 301.5 900, 301.5 900, 328.5 889.38, 328.5 889.38, 355.5 900, 355.5 900, 382.5 889.38, 382.5 889.38, 409.5 900, 409.5 900, 436.5 889.38, 436.5 889.38, 463.5 900, 463.5 900, 490.5 889.38, 490.5 889.38, 517.5 900, 517.5 900, 544.5 889.38, 544.5 889.38, 571.5 900, 571.5 900, 598.5 889.38, 598.5 889.38, 625.5 900, 625.5 900, 652.5 889.38, 652.5 889.38, 679.5 900, 679.5 900, 706.5 889.38, 706.5 889.38, 733.5 900, 733.5 900, 760.5 889.38, 760.5 889.38, 787.5 900, 787.5 900, 814.5 889.38, 814.5 889.38, 841.5 900, 841.5 900, 868.5 889.38, 868.5 889.38, 895.5 900, 895.5 900, 922.5 889.38, 922.5 889.38, 949.5 900, 949.5 900, 976.5 889.38, 976.5 889.38, 1003.5 900, 1003.5 900, 1030.5 889.38, 1030.5 889.38, 1057.5 900, 1057.5 900, 1084.5 889.38, 1084.5 889.38, 1127.25 900, 1127.25 900, 1170 857.25, 1170 857.25, 1159.38 814.5, 1159.38 814.5, 1170 787.5, 1170 787.5, 1159.38 760.5, 1159.38 760.5, 1170 733.5, 1170 733.5, 1159.38 706.5, 1159.38 706.5, 1170 679.5, 1170 679.5, 1159.38 652.5, 1159.38 652.5, 1170 625.5, 1170 625.5, 1159.38 598.5, 1159.38 598.5, 1170 571.5, 1170 571.5, 1159.38 544.5, 1159.38 544.5, 1170 517.5, 1170 517.5, 1159.38 490.5, 1159.38 490.5, 1170 463.5, 1170 463.5, 1159.38 436.5, 1159.38 436.5, 1170 409.5, 1170 409.5, 1159.38 382.5, 1159.38 382.5, 1170 355.5, 1170 355.5, 1159.38 328.5, 1159.38 328.5, 1170 301.5, 1170 301.5, 1159.38 274.5, 1159.38 274.5, 1170 247.5, 1170 247.5, 1159.38 220.5, 1159.38 220.5, 1170 193.5, 1170 193.5, 1159.38 166.5, 1159.38 166.5, 1170 139.5, 1170 139.5, 1159.38 112.50000000000001, 1159.38 112.50000000000001, 1170 85.50000000000001, 1170 85.50000000000001, 1159.38 42.75000000000001, 1159.38 42.75000000000001, 1170 0, 1170 0, 1127.25 10.62, 1127.25 10.62, 1084.5 0, 1084.5 0, 1057.5 10.62, 1057.5 10.62, 1030.5 0, 1030.5 0, 1003.5 10.62, 1003.5 10.62, 976.5 0, 976.5 0, 949.5 10.62, 949.5 10.62, 922.5 0, 922.5 0, 895.5 10.62, 895.5 10.62, 868.5 0, 868.5 0, 841.5 10.62, 841.5 10.62, 814.5 0, 814.5 0, 787.5 10.62, 787.5 10.62, 760.5 0, 760.5 0, 733.5 10.62, 733.5 10.62, 706.5 0, 706.5 0, 679.5 10.62, 679.5 10.62, 652.5 0, 652.5 0, 625.5 10.62, 625.5 10.62, 598.5 0, 598.5 0, 571.5 10.62, 571.5 10.62, 544.5 0, 544.5 0, 517.5 10.62, 517.5 10.62, 490.5 0, 490.5 0, 463.5 10.62, 463.5 10.62, 436.5 0, 436.5 0, 409.5 10.62, 409.5 10.62, 382.5 0, 382.5 0, 355.5 10.62, 355.5 10.62, 328.5 0, 328.5 0, 301.5 10.62, 301.5 10.62, 274.5 0, 274.5 0, 247.5 10.62, 247.5 10.62, 220.5 0, 220.5 0, 193.5 10.62, 193.5 10.62, 166.5 0, 166.5 0, 139.5 10.62, 139.5 10.62, 112.50000000000001 0, 112.50000000000001 0, 85.50000000000001 10.62, 85.50000000000001 10.62, 42.75000000000001 0, 42.75000000000001 "/> 
</g>
<!-- Left--> 
<g transform="translate(1822.5, 22.5) " > 
<polygon style="stroke:#000000; fill:none; stroke-width:0.9" points="10.62, 0 33.75, 0 33.75, 10.62 67.5, 10.62 67.5, 0 94.5, 0 94.5, 10.62 121.5, 10.62 121.5, 0 148.5, 0 148.5, 10.62 175.5, 10.62 175.5, 0 202.5, 0 202.5, 10.62 229.5, 10.62 229.5, 0 256.5, 0 256.5, 10.62 283.5, 10.62 283.5, 0 310.5, 0 310.5, 10.62 337.5, 10.62 337.5, 0 364.5, 0 364.5, 10.62 391.5, 10.62 391.5, 0 418.5, 0 418.5, 10.62 445.5, 10.62 445.5, 0 472.5, 0 472.5, 10.62 506.25, 10.62 506.25, 0 529.38, 0 529.38, 42.75000000000001 540, 42.75000000000001 540, 85.50000000000001 529.38, 85.50000000000001 529.38, 112.50000000000001 540, 112.50000000000001 540, 139.5 529.38, 139.5 529.38, 166.5 540, 166.5 540, 193.5 529.38, 193.5 529.38, 220.5 540, 220.5 540, 247.5 529.38, 247.5 529.38, 274.5 540, 274.5 540, 301.5 529.38, 301.5 529.38, 328.5 540, 328.5 540, 355.5 529.38, 355.5 529.38, 382.5 540, 382.5 540, 409.5 529.38, 409.5 529.38, 436.5 540, 436.5 540, 463.5 529.38, 463.5 529.38, 490.5 540, 490.5 540, 517.5 529.38, 517.5 529.38, 544.5 540, 544.5 540, 571.5 529.38, 571.5 529.38, 598.5 540, 598.5 540, 625.5 529.38, 625.5 529.38, 652.5 540, 652.5 540, 679.5 529.38, 679.5 529.38, 706.5 540, 706.5 540, 733.5 529.38, 733.5 529.38, 760.5 540, 760.5 540, 787.5 529.38, 787.5 529.38, 814.5 540, 814.5 540, 841.5 529.38, 841.5 529.38, 868.5 540, 868.5 540, 895.5 529.38, 895.5 529.38, 922.5 540, 922.5 540, 949.5 529.38, 949.5 529.38, 976.5 540, 976.5 540, 1003.5 529.38, 1003.5 529.38, 1030.5 540, 1030.5 540, 1057.5 529.38, 1057.5 529.38, 1084.5 540, 1084.5 540, 1127.25 529.38, 1127.25 529.38, 1170 506.25, 1170 506.25, 1159.38 472.5, 1159.38 472.5, 1170 445.5, 1170 445.5, 1159.38 418.5, 1159.38 418.5, 1170 391.5, 1170 391.5, 1159.38 364.5, 1159.38 364.5, 1170 337.5, 1170 337.5, 1159.38 310.5, 1159.38 310.5, 1170 283.5, 1170 283.5, 1159.38 256.5, 1159.38 256.5, 1170 229.5, 1170 229.5, 1159.38 202.5, 1159.38 202.5, 1170 175.5, 1170 175.5, 1159.38 148.5, 1159.38 148.5, 1170 121.5, 1170 121.5, 1159.38 94.5, 1159.38 94.5, 1170 67.5, 1170 67.5, 1159.38 33.75, 1159.38 33.75, 1170 10.62, 1170 10.62, 1127.25 0, 1127.25 0, 1084.5 10.62, 1084.5 10.62, 1057.5 0, 1057.5 0, 1030.5 10.62, 1030.5 10.62, 1003.5 0, 1003.5 0, 976.5 10.62, 976.5 10.62, 949.5 0, 949.5 0, 922.5 10.62, 922.5 10.62, 895.5 0, 895.5 0, 868.5 10.62, 868.5 10.62, 841.5 0, 841.5 0, 814.5 10.62, 814.5 10.62, 787.5 0, 787.5 0, 760.5 10.62, 760.5 10.62, 733.5 0, 733.5 0, 706.5 10.62, 706.5 10.62, 679.5 0, 679.5 0, 652.5 10.62, 652.5 10.62, 625.5 0, 625.5 0, 598.5 10.62, 598.5 10.62, 571.5 0, 571.5 0, 544.5 10.62, 544.5 10.62, 517.5 0, 517.5 0, 490.5 10.62, 490.5 10.62, 463.5 0, 463.5 0, 436.5 10.62, 436.5 10.62, 409.5 0, 409.5 0, 382.5 10.62, 382.5 10.62, 355.5 0, 355.5 0, 328.5 10.62, 328.5 10.62, 301.5 0, 301.5 0, 274.5 10.62, 274.5 10.62, 247.5 0, 247.5 0, 220.5 10.62, 220.5 10.62, 193.5 0, 193.5 0, 166.5 10.62, 166.5 10.62, 139.5 0, 139.5 0, 112.50000000000001 10.62, 112.50000000000001 10.62, 85.50000000000001 0, 85.50000000000001 0, 42.75000000000001 10.62, 42.75000000000001 "/> 
</g>
<!-- Right--> 
<g transform="translate(1822.5, 1192.5) " > 
<polygon style="stroke:#000000; fill:none; stroke-width:0.9" points="10.62, 0 33.75, 0 33.75, 10.62 67.5, 10.62 67.5, 0 94.5, 0 94.5, 10.62 121.5, 10.62 121.5, 0 148.5, 0 148.5, 10.62 175.5, 10.62 175.5, 0 202.5, 0 202.5, 10.62 229.5, 10.62 229.5, 0 256.5, 0 256.5, 10.62 283.5, 10.62 283.5, 0 310.5, 0 310.5, 10.62 337.5, 10.62 337.5, 0 364.5, 0 364.5, 10.62 391.5, 10.62 391.5, 0 418.5, 0 418.5, 10.62 445.5, 10.62 445.5, 0 472.5, 0 472.5, 10.62 506.25, 10.62 506.25, 0 529.38, 0 529.38, 42.75000000000001 540, 42.75000000000001 540, 85.50000000000001 529.38, 85.50000000000001 529.38, 112.50000000000001 540, 112.50000000000001 540, 139.5 529.38, 139.5 529.38, 166.5 540, 166.5 540, 193.5 529.38, 193.5 529.38, 220.5 540, 220.5 540, 247.5 529.38, 247.5 529.38, 274.5 540, 274.5 540, 301.5 529.38, 301.5 529.38, 328.5 540, 328.5 540, 355.5 529.38, 355.5 529.38, 382.5 540, 382.5 540, 409.5 529.38, 409.5 529.38, 436.5 540, 436.5 540, 463.5 529.38, 463.5 529.38, 490.5 540, 490.5 540, 517.5 529.38, 517.5 529.38, 544.5 540, 544.5 540, 571.5 529.38, 571.5 529.38, 598.5 540, 598.5 540, 625.5 529.38, 625.5 529.38, 652.5 540, 652.5 540, 679.5 529.38, 679.5 529.38, 706.5 540, 706.5 540, 733.5 529.38, 733.5 529.38, 760.5 540, 760.5 540, 787.5 529.38, 787.5 529.38, 814.5 540, 814.5 540, 841.5 529.38, 841.5 529.38, 868.5 540, 868.5 540, 895.5 529.38, 895.5 529.38, 922.5 540, 922.5 540, 949.5 529.38, 949.5 529.38, 976.5 540, 976.5 540, 1003.5 529.38, 1003.5 529.38, 1030.5 540, 1030.5 540, 1057.5 529.38, 1057.5 529.38, 1084.5 540, 1084.5 540, 1127.25 529.38, 1127.25 529.38, 1170 506.25, 1170 506.25, 1159.38 472.5, 1159.38 472.5, 1170 445.5, 1170 445.5, 1159.38 418.5, 1159.38 418.5, 1170 391.5, 1170 391.5, 1159.38 364.5, 1159.38 364.5, 1170 337.5, 1170 337.5, 1159.38 310.5, 1159.38 310.5, 1170 283.5, 1170 283.5, 1159.38 256.5, 1159.38 256.5, 1170 229.5, 1170 229.5, 1159.38 202.5, 1159.38 202.5, 1170 175.5, 1170 175.5, 1159.38 148.5, 1159.38 148.5, 1170 121.5, 1170 121.5, 1159.38 94.5, 1159.38 94.5, 1170 67.5, 1170 67.5, 1159.38 33.75, 1159.38 33.75, 1170 10.62, 1170 10.62, 1127.25 0, 1127.25 0, 1084.5 10.62, 1084.5 10.62, 1057.5 0, 1057.5 0, 1030.5 10.62, 1030.5 10.62, 1003.5 0, 1003.5 0, 976.5 10.62, 976.5 10.62, 949.5 0, 949.5 0, 922.5 10.62, 922.5 10.62, 895.5 0, 895.5 0, 868.5 10.62, 868.5 10.62, 841.5 0, 841.5 0, 814.5 10.62, 814.5 10.62, 787.5 0, 787.5 0, 760.5 10.62, 760.5 10.62, 733.5 0, 733.5 0, 706.5 10.62, 706.5 10.62, 679.5 0, 679.5 0, 652.5 10.62, 652.5 10.62, 625.5 0, 625.5 0, 598.5 10.62, 598.5 10.62, 571.5 0, 571.5 0, 544.5 10.62, 544.5 10.62, 517.5 0, 517.5 0, 490.5 10.62, 490.5 10.62, 463.5 0, 463.5 0, 436.5 10.62, 436.5 10.62, 409.5 0, 409.5 0, 382.5 10.62, 382.5 10.62, 355.5 0, 355.5 0, 328.5 10.62, 328.5 10.62, 301.5 0, 301.5 0, 274.5 10.62, 274.5 10.62, 247.5 0, 247.5 0, 220.5 10.62, 220.5 10.62, 193.5 0, 193.5 0, 166.5 10.62, 166.5 10.62, 139.5 0, 139.5 0, 112.50000000000001 10.62, 112.50000000000001 10.62, 85.50000000000001 0, 85.50000000000001 0, 42.75000000000001 10.62, 42.75000000000001 "/> 
</g>
<!-- Top--> 
<g transform="translate(22.5, 1192.5) " > 
<polygon style="stroke:#000000; fill:none; stroke-width:0.9" points="10.62, 10.62 42.75000000000001, 10.62 42.75000000000001, 0 85.50000000000001, 0 85.50000000000001, 10.62 112.50000000000001, 10.62 112.50000000000001, 0 139.5, 0 139.5, 10.62 166.5, 10.62 166.5, 0 193.5, 0 193.5, 10.62 220.5, 10.62 220.5, 0 247.5, 0 247.5, 10.62 274.5, 10.62 274.5, 0 301.5, 0 301.5, 10.62 328.5, 10.62 328.5, 0 355.5, 0 355.5, 10.62 382.5, 10.62 382.5, 0 409.5, 0 409.5, 10.62 436.5, 10.62 436.5, 0 463.5, 0 463.5, 10.62 490.5, 10.62 490.5, 0 517.5, 0 517.5, 10.62 544.5, 10.62 544.5, 0 571.5, 0 571.5, 10.62 598.5, 10.62 598.5, 0 625.5, 0 625.5, 10.62 652.5, 10.62 652.5, 0 679.5, 0 679.5, 10.62 706.5, 10.62 706.5, 0 733.5, 0 733.5, 10.62 760.5, 10.62 760.5, 0 787.5, 0 787.5, 10.62 814.5, 10.62 814.5, 0 857.25, 0 857.25, 10.62 889.38, 10.62 889.38, 33.75 900, 33.75 900, 67.5 889.38, 67.5 889.38, 94.5 900, 94.5 900, 121.5 889.38, 121.5 889.38, 148.5 900, 148.5 900, 175.5 889.38, 175.5 889.38, 202.5 900, 202.5 900, 229.5 889.38, 229.5 889.38, 256.5 900, 256.5 900, 283.5 889.38, 283.5 889.38, 310.5 900, 310.5 900, 337.5 889.38, 337.5 889.38, 364.5 900, 364.5 900, 391.5 889.38, 391.5 889.38, 418.5 900, 418.5 900, 445.5 889.38, 445.5 889.38, 472.5 900, 472.5 900, 506.25 889.38, 506.25 889.38, 529.38 857.25, 529.38 857.25, 540 814.5, 540 814.5, 529.38 787.5, 529.38 787.5, 540 760.5, 540 760.5, 529.38 733.5, 529.38 733.5, 540 706.5, 540 706.5, 529.38 679.5, 529.38 679.5, 540 652.5, 540 652.5, 529.38 625.5, 529.38 625.5, 540 598.5, 540 598.5, 529.38 571.5, 529.38 571.5, 540 544.5, 540 544.5, 529.38 517.5, 529.38 517.5, 540 490.5, 540 490.5, 529.38 463.5, 529.38 463.5, 540 436.5, 540 436.5, 529.38 409.5, 529.38 409.5, 540 382.5, 540 382.5, 529.38 355.5, 529.38 355.5, 540 328.5, 540 328.5, 529.38 301.5, 529.38 301.5, 540 274.5, 540 274.5, 529.38 247.5, 529.38 247.5, 540 220.5, 540 220.5, 529.38 193.5, 529.38 193.5, 540 166.5, 540 166.5, 529.38 139.5, 529.38 139.5, 540 112.50000000000001, 540 112.50000000000001, 529.38 85.50000000000001, 529.38 85.50000000000001, 540 42.75000000000001, 540 42.75000000000001, 529.38 10.62, 529.38 10.62, 506.25 0, 506.25 0, 472.5 10.62, 472.5 10.62, 445.5 0, 445.5 0, 418.5 10.62, 418.5 10.62, 391.5 0, 391.5 0, 364.5 10.62, 364.5 10.62, 337.5 0, 337.5 0, 310.5 10.62, 310.5 10.62, 283.5 0, 283.5 0, 256.5 10.62, 256.5 10.62, 229.5 0, 229.5 0, 202.5 10.62, 202.5 10.62, 175.5 0, 175.5 0, 148.5 10.62, 148.5 10.62, 121.5 0, 121.5 0, 94.5 10.62, 94.5 10.62, 67.5 0, 67.5 0, 33.75 10.62, 33.75 "/> 
</g>
<!-- Bottom--> 
<g transform="translate(922.5, 1192.5) " > 
<polygon style="stroke:#000000; fill:none; stroke-width:0.9" points="10.62, 10.62 42.75000000000001, 10.62 42.75000000000001, 0 85.50000000000001, 0 85.50000000000001, 10.62 112.50000000000001, 10.62 112.50000000000001, 0 139.5, 0 139.5, 10.62 166.5, 10.62 166.5, 0 193.5, 0 193.5, 10.62 220.5, 10.62 220.5, 0 247.5, 0 247.5, 10.62 274.5, 10.62 274.5, 0 301.5, 0 301.5, 10.62 328.5, 10.62 328.5, 0 355.5, 0 355.5, 10.62 382.5, 10.62 382.5, 0 409.5, 0 409.5, 10.62 436.5, 10.62 436.5, 0 463.5, 0 463.5, 10.62 490.5, 10.62 490.5, 0 517.5, 0 517.5, 10.62 544.5, 10.62 544.5, 0 571.5, 0 571.5, 10.62 598.5, 10.62 598.5, 0 625.5, 0 625.5, 10.62 652.5, 10.62 652.5, 0 679.5, 0 679.5, 10.62 706.5, 10.62 706.5, 0 733.5, 0 733.5, 10.62 760.5, 10.62 760.5, 0 787.5, 0 787.5, 10.62 814.5, 10.62 814.5, 0 857.25, 0 857.25, 10.62 889.38, 10.62 889.38, 33.75 900, 33.75 900, 67.5 889.38, 67.5 889.38, 94.5 900, 94.5 900, 121.5 889.38, 121.5 889.38, 148.5 900, 148.5 900, 175.5 889.38, 175.5 889.38, 202.5 900, 202.5 900, 229.5 889.38, 229.5 889.38, 256.5 900, 256.5 900, 283.5 889.38, 283.5 889.38, 310.5 900, 310.5 900, 337.5 889.38, 337.5 889.38, 364.5 900, 364.5 900, 391.5 889.38, 391.5 889.38, 418.5 900, 418.5 900, 445.5 889.38, 445.5 889.38, 472.5 900, 472.5 900, 506.25 889.38, 506.25 889.38, 529.38 857.25, 529.38 857.25, 540 814.5, 540 814.5, 529.38 787.5, 529.38 787.5, 540 760.5, 540 760.5, 529.38 733.5, 529.38 733.5, 540 706.5, 540 706.5, 529.38 679.5, 529.38 679.5, 540 652.5, 540 652.5, 529.38 625.5, 529.38 625.5, 540 598.5, 540 598.5, 529.38 571.5, 529.38 571.5, 540 544.5, 540 544.5, 529.38 517.5, 529.38 517.5, 540 490.5, 540 490.5, 529.38 463.5, 529.38 463.5, 540 436.5, 540 436.5, 529.38 409.5, 529.38 409.5, 540 382.5, 540 382.5, 529.38 355.5, 529.38 355.5, 540 328.5, 540 328.5, 529.38 301.5, 529.38 301.5, 540 274.5, 540 274.5, 529.38 247.5, 529.38 247.5, 540 220.5, 540 220.5, 529.38 193.5, 529.38 193.5, 540 166.5, 540 166.5, 529.38 139.5, 529.38 139.5, 540 112.50000000000001, 540 112.50000000000001, 529.38 85.50000000000001, 529.38 85.50000000000001, 540 42.75000000000001, 540 42.75000000000001, 529.38 10.62, 529.38 10.62, 506.25 0, 506.25 0, 472.5 10.62, 472.5 10.62, 445.5 0, 445.5 0, 418.5 10.62, 418.5 10.62, 391.5 0, 391.5 0, 364.5 10.62, 364.5 10.62, 337.5 0, 337.5 0, 310.5 10.62, 310.5 10.62, 283.5 0, 283.5 0, 256.5 10.62, 256.5 10.62, 229.5 0, 229.5 0, 202.5 10.62, 202.5 10.62, 175.5 0, 175.5 0, 148.5 10.62, 148.5 10.62, 121.5 0, 121.5 0, 94.5 10.62, 94.5 10.62, 67.5 0, 67.5 0, 33.75 10.62, 33.75 "/> 
</g></svg>