<?xml version="1.0" encoding="UTF-8" standalone="no"?>
<svg
   xmlns:dc="http://purl.org/dc/elements/1.1/"
   xmlns:cc="http://creativecommons.org/ns#"
   xmlns:rdf="http://www.w3.org/1999/02/22-rdf-syntax-ns#"
   xmlns:svg="http://www.w3.org/2000/svg"
   xmlns="http://www.w3.org/2000/svg"
   xmlns:sodipodi="http://sodipodi.sourceforge.net/DTD/sodipodi-0.dtd"
   xmlns:inkscape="http://www.inkscape.org/namespaces/inkscape"
   version="1.1"
   width="21.5in"
   height="13in"
   viewBox=" 0 0 1935 1170"
   id="svg3119"
   inkscape:version="0.48.2 r9819"
   sodipodi:docname="GrayBox.svg">
  <metadata
     id="metadata3149">
    <rdf:RDF>
      <cc:Work
         rdf:about="">
        <dc:format>image/svg+xml</dc:format>
        <dc:type
           rdf:resource="http://purl.org/dc/dcmitype/StillImage" />
      </cc:Work>
    </rdf:RDF>
  </metadata>
  <defs
     id="defs3147" />
  <sodipodi:namedview
     pagecolor="#ffffff"
     bordercolor="#666666"
     borderopacity="1"
     objecttolerance="10"
     gridtolerance="10"
     guidetolerance="10"
     inkscape:pageopacity="0"
     inkscape:pageshadow="2"
     inkscape:window-width="1200"
     inkscape:window-height="722"
     id="namedview3145"
     showgrid="false"
     showguides="true"
     inkscape:guide-bbox="true"
     inkscape:zoom="0.36950904"
     inkscape:cx="569.38042"
     inkscape:cy="801.5035"
     inkscape:window-x="0"
     inkscape:window-y="0"
     inkscape:window-maximized="0"
     inkscape:current-layer="svg3119" />
  <!-- Front-->
  <g
     transform="translate(22.5, 22.5) "
     id="g3121"
     style="stroke-width:0.09000000000000000;stroke-miterlimit:4;stroke-dasharray:none;fill:none;stroke:#ff0000;stroke-opacity:1">
    <polygon
       style="stroke:#ff0000;fill:none;stroke-width:0.09000000000000000;stroke-miterlimit:4;stroke-dasharray:none;stroke-opacity:1"
       points="0, 0 42.75000000000001, 0 42.75000000000001, 10.62 85.50000000000001, 10.62 85.50000000000001, 0 112.50000000000001, 0 112.50000000000001, 10.62 139.5, 10.62 139.5, 0 166.5, 0 166.5, 10.62 193.5, 10.62 193.5, 0 220.5, 0 220.5, 10.62 247.5, 10.62 247.5, 0 274.5, 0 274.5, 10.62 301.5, 10.62 301.5, 0 328.5, 0 328.5, 10.62 355.5, 10.62 355.5, 0 382.5, 0 382.5, 10.62 409.5, 10.62 409.5, 0 436.5, 0 436.5, 10.62 463.5, 10.62 463.5, 0 490.5, 0 490.5, 10.62 517.5, 10.62 517.5, 0 544.5, 0 544.5, 10.62 587.25, 10.62 587.25, 0 630, 0 630, 36.000000000000014 619.38, 36.000000000000014 619.38, 72.00000000000003 630, 72.00000000000003 630, 99.00000000000003 619.38, 99.00000000000003 619.38, 126.00000000000003 630, 126.00000000000003 630, 153.00000000000003 619.38, 153.00000000000003 619.38, 180.00000000000003 630, 180.00000000000003 630, 207.00000000000003 619.38, 207.00000000000003 619.38, 234.00000000000003 630, 234.00000000000003 630, 261 619.38, 261 619.38, 288 630, 288 630, 315 619.38, 315 619.38, 342 630, 342 630, 369 619.38, 369 619.38, 396 630, 396 630, 423 619.38, 423 619.38, 459.00000000000006 630, 459.00000000000006 630, 495 587.25, 495 587.25, 484.38 544.5, 484.38 544.5, 495 517.5, 495 517.5, 484.38 490.5, 484.38 490.5, 495 463.5, 495 463.5, 484.38 436.5, 484.38 436.5, 495 409.5, 495 409.5, 484.38 382.5, 484.38 382.5, 495 355.5, 495 355.5, 484.38 328.5, 484.38 328.5, 495 301.5, 495 301.5, 484.38 274.5, 484.38 274.5, 495 247.5, 495 247.5, 484.38 220.5, 484.38 220.5, 495 193.5, 495 193.5, 484.38 166.5, 484.38 166.5, 495 139.5, 495 139.5, 484.38 112.50000000000001, 484.38 112.50000000000001, 495 85.50000000000001, 495 85.50000000000001, 484.38 42.75000000000001, 484.38 42.75000000000001, 495 0, 495.00000000000006 0, 459.00000000000006 10.62, 459.00000000000006 10.62, 423 0, 423 0, 396 10.62, 396 10.62, 369 0, 369 0, 342 10.62, 342 10.62, 315 0, 315 0, 288 10.62, 288 10.62, 261 0, 261 0, 234.00000000000003 10.62, 234.00000000000003 10.62, 207.00000000000003 0, 207.00000000000003 0, 180.00000000000003 10.62, 180.00000000000003 10.62, 153.00000000000003 0, 153.00000000000003 0, 126.00000000000003 10.62, 126.00000000000003 10.62, 99.00000000000003 0, 99.00000000000003 0, 72.00000000000003 10.62, 72.00000000000003 10.62, 36.000000000000014 0, 36.000000000000014 "
       id="polygon3123" />
  </g>
  <!-- Back-->
  <g
     transform="translate(652.5, 22.5) "
     id="g3125"
     style="stroke-width:0.09000000000000000;stroke-miterlimit:4;stroke-dasharray:none;fill:none;stroke:#ff0000;stroke-opacity:1">
    <polygon
       style="stroke:#ff0000;fill:none;stroke-width:0.09000000000000000;stroke-miterlimit:4;stroke-dasharray:none;stroke-opacity:1"
       points="0, 0 42.75000000000001, 0 42.75000000000001, 10.62 85.50000000000001, 10.62 85.50000000000001, 0 112.50000000000001, 0 112.50000000000001, 10.62 139.5, 10.62 139.5, 0 166.5, 0 166.5, 10.62 193.5, 10.62 193.5, 0 220.5, 0 220.5, 10.62 247.5, 10.62 247.5, 0 274.5, 0 274.5, 10.62 301.5, 10.62 301.5, 0 328.5, 0 328.5, 10.62 355.5, 10.62 355.5, 0 382.5, 0 382.5, 10.62 409.5, 10.62 409.5, 0 436.5, 0 436.5, 10.62 463.5, 10.62 463.5, 0 490.5, 0 490.5, 10.62 517.5, 10.62 517.5, 0 544.5, 0 544.5, 10.62 587.25, 10.62 587.25, 0 630, 0 630, 36.000000000000014 619.38, 36.000000000000014 619.38, 72.00000000000003 630, 72.00000000000003 630, 99.00000000000003 619.38, 99.00000000000003 619.38, 126.00000000000003 630, 126.00000000000003 630, 153.00000000000003 619.38, 153.00000000000003 619.38, 180.00000000000003 630, 180.00000000000003 630, 207.00000000000003 619.38, 207.00000000000003 619.38, 234.00000000000003 630, 234.00000000000003 630, 261 619.38, 261 619.38, 288 630, 288 630, 315 619.38, 315 619.38, 342 630, 342 630, 369 619.38, 369 619.38, 396 630, 396 630, 423 619.38, 423 619.38, 459.00000000000006 630, 459.00000000000006 630, 495 587.25, 495 587.25, 484.38 544.5, 484.38 544.5, 495 517.5, 495 517.5, 484.38 490.5, 484.38 490.5, 495 463.5, 495 463.5, 484.38 436.5, 484.38 436.5, 495 409.5, 495 409.5, 484.38 382.5, 484.38 382.5, 495 355.5, 495 355.5, 484.38 328.5, 484.38 328.5, 495 301.5, 495 301.5, 484.38 274.5, 484.38 274.5, 495 247.5, 495 247.5, 484.38 220.5, 484.38 220.5, 495 193.5, 495 193.5, 484.38 166.5, 484.38 166.5, 495 139.5, 495 139.5, 484.38 112.50000000000001, 484.38 112.50000000000001, 495 85.50000000000001, 495 85.50000000000001, 484.38 42.75000000000001, 484.38 42.75000000000001, 495 0, 495.00000000000006 0, 459.00000000000006 10.62, 459.00000000000006 10.62, 423 0, 423 0, 396 10.62, 396 10.62, 369 0, 369 0, 342 10.62, 342 10.62, 315 0, 315 0, 288 10.62, 288 10.62, 261 0, 261 0, 234.00000000000003 10.62, 234.00000000000003 10.62, 207.00000000000003 0, 207.00000000000003 0, 180.00000000000003 10.62, 180.00000000000003 10.62, 153.00000000000003 0, 153.00000000000003 0, 126.00000000000003 10.62, 126.00000000000003 10.62, 99.00000000000003 0, 99.00000000000003 0, 72.00000000000003 10.62, 72.00000000000003 10.62, 36.000000000000014 0, 36.000000000000014 "
       id="polygon3127" />
  </g>
  <!-- Left-->
  <g
     transform="translate(1282.5, 22.5) "
     id="g3129"
     style="stroke-width:0.09000000000000000;stroke-miterlimit:4;stroke-dasharray:none;fill:none;stroke:#ff0000;stroke-opacity:1">
    <polygon
       style="stroke:#ff0000;fill:none;stroke-width:0.09000000000000000;stroke-miterlimit:4;stroke-dasharray:none;stroke-opacity:1"
       points="10.62, 0 42.75000000000001, 0 42.75000000000001, 10.62 85.50000000000001, 10.62 85.50000000000001, 0 112.50000000000001, 0 112.50000000000001, 10.62 139.5, 10.62 139.5, 0 166.5, 0 166.5, 10.62 193.5, 10.62 193.5, 0 220.5, 0 220.5, 10.62 247.5, 10.62 247.5, 0 274.5, 0 274.5, 10.62 301.5, 10.62 301.5, 0 328.5, 0 328.5, 10.62 355.5, 10.62 355.5, 0 382.5, 0 382.5, 10.62 409.5, 10.62 409.5, 0 436.5, 0 436.5, 10.62 463.5, 10.62 463.5, 0 490.5, 0 490.5, 10.62 517.5, 10.62 517.5, 0 544.5, 0 544.5, 10.62 587.25, 10.62 587.25, 0 619.38, 0 619.38, 36.000000000000014 630, 36.000000000000014 630, 72.00000000000003 619.38, 72.00000000000003 619.38, 99.00000000000003 630, 99.00000000000003 630, 126.00000000000003 619.38, 126.00000000000003 619.38, 153.00000000000003 630, 153.00000000000003 630, 180.00000000000003 619.38, 180.00000000000003 619.38, 207.00000000000003 630, 207.00000000000003 630, 234.00000000000003 619.38, 234.00000000000003 619.38, 261 630, 261 630, 288 619.38, 288 619.38, 315 630, 315 630, 342 619.38, 342 619.38, 369 630, 369 630, 396 619.38, 396 619.38, 423 630, 423 630, 459.00000000000006 619.38, 459.00000000000006 619.38, 495 587.25, 495 587.25, 484.38 544.5, 484.38 544.5, 495 517.5, 495 517.5, 484.38 490.5, 484.38 490.5, 495 463.5, 495 463.5, 484.38 436.5, 484.38 436.5, 495 409.5, 495 409.5, 484.38 382.5, 484.38 382.5, 495 355.5, 495 355.5, 484.38 328.5, 484.38 328.5, 495 301.5, 495 301.5, 484.38 274.5, 484.38 274.5, 495 247.5, 495 247.5, 484.38 220.5, 484.38 220.5, 495 193.5, 495 193.5, 484.38 166.5, 484.38 166.5, 495 139.5, 495 139.5, 484.38 112.50000000000001, 484.38 112.50000000000001, 495 85.50000000000001, 495 85.50000000000001, 484.38 42.75000000000001, 484.38 42.75000000000001, 495 10.62, 495.00000000000006 10.62, 459.00000000000006 0, 459.00000000000006 0, 423 10.62, 423 10.62, 396 0, 396 0, 369 10.62, 369 10.62, 342 0, 342 0, 315 10.62, 315 10.62, 288 0, 288 0, 261 10.62, 261 10.62, 234.00000000000003 0, 234.00000000000003 0, 207.00000000000003 10.62, 207.00000000000003 10.62, 180.00000000000003 0, 180.00000000000003 0, 153.00000000000003 10.62, 153.00000000000003 10.62, 126.00000000000003 0, 126.00000000000003 0, 99.00000000000003 10.62, 99.00000000000003 10.62, 72.00000000000003 0, 72.00000000000003 0, 36.000000000000014 10.62, 36.000000000000014 "
       id="polygon3131" />
  </g>
  <!-- Right-->
  <g
     transform="translate(1282.5, 517.5) "
     id="g3133"
     style="stroke-width:0.09000000000000000;stroke-miterlimit:4;stroke-dasharray:none;fill:none;stroke:#ff0000;stroke-opacity:1">
    <polygon
       style="stroke:#ff0000;fill:none;stroke-width:0.09000000000000000;stroke-miterlimit:4;stroke-dasharray:none;stroke-opacity:1"
       points="10.62, 0 42.75000000000001, 0 42.75000000000001, 10.62 85.50000000000001, 10.62 85.50000000000001, 0 112.50000000000001, 0 112.50000000000001, 10.62 139.5, 10.62 139.5, 0 166.5, 0 166.5, 10.62 193.5, 10.62 193.5, 0 220.5, 0 220.5, 10.62 247.5, 10.62 247.5, 0 274.5, 0 274.5, 10.62 301.5, 10.62 301.5, 0 328.5, 0 328.5, 10.62 355.5, 10.62 355.5, 0 382.5, 0 382.5, 10.62 409.5, 10.62 409.5, 0 436.5, 0 436.5, 10.62 463.5, 10.62 463.5, 0 490.5, 0 490.5, 10.62 517.5, 10.62 517.5, 0 544.5, 0 544.5, 10.62 587.25, 10.62 587.25, 0 619.38, 0 619.38, 36.000000000000014 630, 36.000000000000014 630, 72.00000000000003 619.38, 72.00000000000003 619.38, 99.00000000000003 630, 99.00000000000003 630, 126.00000000000003 619.38, 126.00000000000003 619.38, 153.00000000000003 630, 153.00000000000003 630, 180.00000000000003 619.38, 180.00000000000003 619.38, 207.00000000000003 630, 207.00000000000003 630, 234.00000000000003 619.38, 234.00000000000003 619.38, 261 630, 261 630, 288 619.38, 288 619.38, 315 630, 315 630, 342 619.38, 342 619.38, 369 630, 369 630, 396 619.38, 396 619.38, 423 630, 423 630, 459.00000000000006 619.38, 459.00000000000006 619.38, 495 587.25, 495 587.25, 484.38 544.5, 484.38 544.5, 495 517.5, 495 517.5, 484.38 490.5, 484.38 490.5, 495 463.5, 495 463.5, 484.38 436.5, 484.38 436.5, 495 409.5, 495 409.5, 484.38 382.5, 484.38 382.5, 495 355.5, 495 355.5, 484.38 328.5, 484.38 328.5, 495 301.5, 495 301.5, 484.38 274.5, 484.38 274.5, 495 247.5, 495 247.5, 484.38 220.5, 484.38 220.5, 495 193.5, 495 193.5, 484.38 166.5, 484.38 166.5, 495 139.5, 495 139.5, 484.38 112.50000000000001, 484.38 112.50000000000001, 495 85.50000000000001, 495 85.50000000000001, 484.38 42.75000000000001, 484.38 42.75000000000001, 495 10.62, 495.00000000000006 10.62, 459.00000000000006 0, 459.00000000000006 0, 423 10.62, 423 10.62, 396 0, 396 0, 369 10.62, 369 10.62, 342 0, 342 0, 315 10.62, 315 10.62, 288 0, 288 0, 261 10.62, 261 10.62, 234.00000000000003 0, 234.00000000000003 0, 207.00000000000003 10.62, 207.00000000000003 10.62, 180.00000000000003 0, 180.00000000000003 0, 153.00000000000003 10.62, 153.00000000000003 10.62, 126.00000000000003 0, 126.00000000000003 0, 99.00000000000003 10.62, 99.00000000000003 10.62, 72.00000000000003 0, 72.00000000000003 0, 36.000000000000014 10.62, 36.000000000000014 "
       id="polygon3135" />
  </g>
  <!-- Top-->
  <g
     transform="translate(22.5, 517.5) "
     id="g3137"
     style="stroke-width:0.09000000000000000;stroke-miterlimit:4;stroke-dasharray:none;fill:none;stroke:#ff0000;stroke-opacity:1">
    <polygon
       style="stroke:#ff0000;fill:none;stroke-width:0.09000000000000000;stroke-miterlimit:4;stroke-dasharray:none;stroke-opacity:1"
       points="10.62, 10.62 42.75000000000001, 10.62 42.75000000000001, 0 85.50000000000001, 0 85.50000000000001, 10.62 112.50000000000001, 10.62 112.50000000000001, 0 139.5, 0 139.5, 10.62 166.5, 10.62 166.5, 0 193.5, 0 193.5, 10.62 220.5, 10.62 220.5, 0 247.5, 0 247.5, 10.62 274.5, 10.62 274.5, 0 301.5, 0 301.5, 10.62 328.5, 10.62 328.5, 0 355.5, 0 355.5, 10.62 382.5, 10.62 382.5, 0 409.5, 0 409.5, 10.62 436.5, 10.62 436.5, 0 463.5, 0 463.5, 10.62 490.5, 10.62 490.5, 0 517.5, 0 517.5, 10.62 544.5, 10.62 544.5, 0 587.25, 0 587.25, 10.62 619.38, 10.62 619.38, 42.75000000000001 630, 42.75000000000001 630, 85.50000000000001 619.38, 85.50000000000001 619.38, 112.50000000000001 630, 112.50000000000001 630, 139.5 619.38, 139.5 619.38, 166.5 630, 166.5 630, 193.5 619.38, 193.5 619.38, 220.5 630, 220.5 630, 247.5 619.38, 247.5 619.38, 274.5 630, 274.5 630, 301.5 619.38, 301.5 619.38, 328.5 630, 328.5 630, 355.5 619.38, 355.5 619.38, 382.5 630, 382.5 630, 409.5 619.38, 409.5 619.38, 436.5 630, 436.5 630, 463.5 619.38, 463.5 619.38, 490.5 630, 490.5 630, 517.5 619.38, 517.5 619.38, 544.5 630, 544.5 630, 587.25 619.38, 587.25 619.38, 619.38 587.25, 619.38 587.25, 630 544.5, 630 544.5, 619.38 517.5, 619.38 517.5, 630 490.5, 630 490.5, 619.38 463.5, 619.38 463.5, 630 436.5, 630 436.5, 619.38 409.5, 619.38 409.5, 630 382.5, 630 382.5, 619.38 355.5, 619.38 355.5, 630 328.5, 630 328.5, 619.38 301.5, 619.38 301.5, 630 274.5, 630 274.5, 619.38 247.5, 619.38 247.5, 630 220.5, 630 220.5, 619.38 193.5, 619.38 193.5, 630 166.5, 630 166.5, 619.38 139.5, 619.38 139.5, 630 112.50000000000001, 630 112.50000000000001, 619.38 85.50000000000001, 619.38 85.50000000000001, 630 42.75000000000001, 630 42.75000000000001, 619.38 10.62, 619.38 10.62, 587.25 0, 587.25 0, 544.5 10.62, 544.5 10.62, 517.5 0, 517.5 0, 490.5 10.62, 490.5 10.62, 463.5 0, 463.5 0, 436.5 10.62, 436.5 10.62, 409.5 0, 409.5 0, 382.5 10.62, 382.5 10.62, 355.5 0, 355.5 0, 328.5 10.62, 328.5 10.62, 301.5 0, 301.5 0, 274.5 10.62, 274.5 10.62, 247.5 0, 247.5 0, 220.5 10.62, 220.5 10.62, 193.5 0, 193.5 0, 166.5 10.62, 166.5 10.62, 139.5 0, 139.5 0, 112.50000000000001 10.62, 112.50000000000001 10.62, 85.50000000000001 0, 85.50000000000001 0, 42.75000000000001 10.62, 42.75000000000001 "
       id="polygon3139" />
  </g>
  <!-- Bottom-->
  <rect
     style="fill:none;stroke:#ff0000;stroke-width:0.09000000000000000;stroke-miterlimit:4;stroke-dasharray:none;stroke-opacity:1"
     id="rect3151"
     width="449.90201"
     height="449.89362"
     x="112.549"
     y="607.55322" />
</svg>
