<?xml version="1.0" encoding="utf-8"?>
<!-- Generator: Adobe Illustrator 16.0.0, SVG Export Plug-In . SVG Version: 6.00 Build 0)  -->
<!DOCTYPE svg PUBLIC "-//W3C//DTD SVG 1.1//EN" "http://www.w3.org/Graphics/SVG/1.1/DTD/svg11.dtd">
<svg version="1.1" id="Layer_1" xmlns="http://www.w3.org/2000/svg" xmlns:xlink="http://www.w3.org/1999/xlink" x="0px" y="0px"
	 width="1404px" height="972px" viewBox="0 0 1404 972" enable-background="new 0 0 1404 972" xml:space="preserve">
<g transform="translate(652.5, 607.5) ">
	<polygon fill="none" stroke="#FF0000" stroke-width="0.0072" points="-138.996,-90.9 -130.5,-90.9 -130.5,-60.3 -138.996,-60.3 
		-138.996,-38.7 -130.5,-38.7 -130.5,-17.1 -138.996,-17.1 -138.996,4.5 -130.5,4.5 -130.5,26.1 -138.996,26.1 -138.996,47.7 
		-130.5,47.7 -130.5,69.3 -138.996,69.3 -138.996,90.9 -130.5,90.9 -130.5,112.5 -138.996,112.5 -138.996,134.1 -130.5,134.1 
		-130.5,155.7 -138.996,155.7 -138.996,177.3 -130.5,177.3 -130.5,207.9 -138.996,207.9 -138.996,230.004 -164.7,230.004 
		-164.7,238.5 -198.9,238.5 -198.9,230.004 -220.5,230.004 -220.5,238.5 -242.1,238.5 -242.1,230.004 -263.7,230.004 -263.7,238.5 
		-285.3,238.5 -285.3,230.004 -306.9,230.004 -306.9,238.5 -328.5,238.5 -328.5,230.004 -350.1,230.004 -350.1,238.5 -371.7,238.5 
		-371.7,230.004 -393.3,230.004 -393.3,238.5 -414.9,238.5 -414.9,230.004 -436.5,230.004 -436.5,238.5 -458.1,238.5 
		-458.1,230.004 -479.7,230.004 -479.7,238.5 -501.3,238.5 -501.3,230.004 -522.9,230.004 -522.9,238.5 -544.5,238.5 
		-544.5,230.004 -566.1,230.004 -566.1,238.5 -600.3,238.5 -600.3,230.004 -626.004,230.004 -626.004,207.9 -634.5,207.9 
		-634.5,177.3 -626.004,177.3 -626.004,155.7 -634.5,155.7 -634.5,134.1 -626.004,134.1 -626.004,112.5 -634.5,112.5 -634.5,90.9 
		-626.004,90.9 -626.004,69.3 -634.5,69.3 -634.5,47.7 -626.004,47.7 -626.004,26.1 -634.5,26.1 -634.5,4.5 -626.004,4.5 
		-626.004,-17.1 -634.5,-17.1 -634.5,-38.7 -626.004,-38.7 -626.004,-60.3 -634.5,-60.3 -634.5,-90.9 -626.004,-90.9 
		-626.004,-113.004 -600.3,-113.004 -600.3,-121.5 -566.1,-121.5 -566.1,-113.004 -544.5,-113.004 -544.5,-121.5 -522.9,-121.5 
		-522.9,-113.004 -501.3,-113.004 -501.3,-121.5 -479.7,-121.5 -479.7,-113.004 -458.1,-113.004 -458.1,-121.5 -436.5,-121.5 
		-436.5,-113.004 -414.9,-113.004 -414.9,-121.5 -393.3,-121.5 -393.3,-113.004 -371.7,-113.004 -371.7,-121.5 -350.1,-121.5 
		-350.1,-113.004 -328.5,-113.004 -328.5,-121.5 -306.9,-121.5 -306.9,-113.004 -285.3,-113.004 -285.3,-121.5 -263.7,-121.5 
		-263.7,-113.004 -242.1,-113.004 -242.1,-121.5 -220.5,-121.5 -220.5,-113.004 -198.9,-113.004 -198.9,-121.5 -164.7,-121.5 
		-164.7,-113.004 -138.996,-113.004 	"/>
</g>
<rect x="258.84" y="654.84" fill="none" stroke="#FF0000" stroke-width="0.0061" width="22.32" height="22.319"/>
<polygon fill="none" stroke="#FF0000" stroke-width="0.0072" points="378,54 378,18 412.2,18 412.2,26.496 446.4,26.496 446.4,18 
	468,18 468,26.496 489.6,26.496 489.6,18 511.2,18 511.2,26.496 532.8,26.496 532.8,18 554.4,18 554.4,26.496 576,26.496 576,18 
	597.6,18 597.6,26.496 619.2,26.496 619.2,18 640.8,18 640.8,26.496 662.4,26.496 662.4,18 684,18 684,26.496 705.6,26.496 
	705.6,18 727.2,18 727.2,26.496 748.8,26.496 748.8,18 770.4,18 770.4,26.496 792,26.496 792,18 813.6,18 813.6,26.496 
	847.8,26.496 847.8,18 882,18 882,54 873.504,54 873.504,90 882,90 882,111.6 873.504,111.6 873.504,133.2 882,133.2 882,154.8 
	873.504,154.8 873.504,176.4 882,176.4 882,198 873.504,198 873.504,219.6 882,219.6 882,241.2 873.504,241.2 873.504,262.8 
	882,262.8 882,284.4 873.504,284.4 873.504,306 882,306 882,327.6 873.504,327.6 873.504,349.2 882,349.2 882,370.8 873.504,370.8 
	873.504,392.4 882,392.4 882,414 873.504,414 873.504,450 882,450 882,486 847.8,486 813.6,486 792,486 770.4,486 748.8,486 
	727.2,486 705.6,486 684,486 662.4,486 640.8,486 619.2,486 597.6,486 576,486 554.4,486 532.8,486 511.2,486 489.6,486 468,486 
	446.4,486 412.2,486 378,486 378,477.504 378,450 386.496,450 386.496,414 378,414 378,392.4 386.496,392.4 386.496,370.8 
	378,370.8 378,349.2 386.496,349.2 386.496,327.6 378,327.6 378,306 386.496,306 386.496,284.4 378,284.4 378,262.8 386.496,262.8 
	386.496,241.2 378,241.2 378,219.6 386.496,219.6 386.496,198 378,198 378,176.4 386.496,176.4 386.496,154.8 378,154.8 378,133.2 
	386.496,133.2 386.496,111.6 378,111.6 378,90 386.496,90 386.496,54 "/>
<polygon fill="none" stroke="#FF0000" stroke-width="0.0072" points="18,90 18,54 26.496,54 26.496,18 48.6,18 48.6,26.496 
	79.2,26.496 79.2,18 100.8,18 100.8,26.496 122.4,26.496 122.4,18 144,18 144,26.496 165.6,26.496 165.6,18 187.2,18 187.2,26.496 
	208.8,26.496 208.8,18 230.4,18 230.4,26.496 252,26.496 252,18 273.6,18 273.6,26.496 295.2,26.496 295.2,18 316.8,18 
	316.8,26.496 347.4,26.496 347.4,18 369.504,18 369.504,54 378,54 378,90 369.504,90 369.504,111.6 378,111.6 378,133.2 
	369.504,133.2 369.504,154.8 378,154.8 378,176.4 369.504,176.4 369.504,198 378,198 378,219.6 369.504,219.6 369.504,241.2 
	378,241.2 378,262.8 369.504,262.8 369.504,284.4 378,284.4 378,306 369.504,306 369.504,327.6 378,327.6 378,349.2 369.504,349.2 
	369.504,370.8 378,370.8 378,392.4 369.504,392.4 369.504,414 378,414 378,450 369.504,450 369.504,486 347.4,486 316.8,486 
	295.2,486 273.6,486 252,486 230.4,486 208.8,486 187.2,486 165.6,486 144,486 122.4,486 100.8,486 79.2,486 48.6,486 26.496,486 
	26.496,450 18,450 18,414 26.496,414 26.496,392.4 18,392.4 18,370.8 26.496,370.8 26.496,349.2 18,349.2 18,327.6 26.496,327.6 
	26.496,306 18,306 18,284.4 26.496,284.4 26.496,262.8 18,262.8 18,241.2 26.496,241.2 26.496,219.6 18,219.6 18,198 26.496,198 
	26.496,176.4 18,176.4 18,154.8 26.496,154.8 26.496,133.2 18,133.2 18,111.6 26.496,111.6 26.496,90 "/>
<polygon fill="none" stroke="#FF0000" stroke-width="0.0072" points="594,846 558,846 558,837.504 522,837.504 522,815.4 
	530.496,815.4 530.496,784.8 522,784.8 522,763.2 530.496,763.2 530.496,741.6 522,741.6 522,720 530.496,720 530.496,698.4 
	522,698.4 522,676.8 530.496,676.8 530.496,655.2 522,655.2 522,633.6 530.496,633.6 530.496,612 522,612 522,590.4 530.496,590.4 
	530.496,568.8 522,568.8 522,547.2 530.496,547.2 530.496,516.6 522,516.6 522,494.496 558,494.496 558,486 594,486 594,494.496 
	615.6,494.496 615.6,486 637.2,486 637.2,494.496 658.8,494.496 658.8,486 680.4,486 680.4,494.496 702,494.496 702,486 723.6,486 
	723.6,494.496 745.2,494.496 745.2,486 766.8,486 766.8,494.496 788.4,494.496 788.4,486 810,486 810,494.496 831.6,494.496 
	831.6,486 853.2,486 853.2,494.496 874.8,494.496 874.8,486 896.4,486 896.4,494.496 918,494.496 918,486 954,486 954,494.496 
	990,494.496 990,516.6 990,547.2 990,568.8 990,590.4 990,612 990,633.6 990,655.2 990,676.8 990,698.4 990,720 990,741.6 
	990,763.2 990,784.8 990,815.4 990,837.504 954,837.504 954,846 918,846 918,837.504 896.4,837.504 896.4,846 874.8,846 
	874.8,837.504 853.2,837.504 853.2,846 831.6,846 831.6,837.504 810,837.504 810,846 788.4,846 788.4,837.504 766.8,837.504 
	766.8,846 745.2,846 745.2,837.504 723.6,837.504 723.6,846 702,846 702,837.504 680.4,837.504 680.4,846 658.8,846 658.8,837.504 
	637.2,837.504 637.2,846 615.6,846 615.6,837.504 594,837.504 "/>
</svg>
