<svg xmlns="http://www.w3.org/2000/svg" version="1.1" width="26.5in" height="10in" viewBox = " 0 0 2385 900" >
<!-- Front--> 
<g transform="translate(22.5, 22.5) " > 
<polygon style="stroke:#000000; fill:none; stroke-width:0.9" points="0, 0 28.125, 0 28.125, 19.8 56.25, 19.8 56.25, 0 78.75, 0 78.75, 19.8 101.25, 19.8 101.25, 0 123.75, 0 123.75, 19.8 146.25, 19.8 146.25, 0 168.75, 0 168.75, 19.8 191.25, 19.8 191.25, 0 213.75, 0 213.75, 19.8 236.25, 19.8 236.25, 0 258.75, 0 258.75, 19.8 281.25, 19.8 281.25, 0 303.75, 0 303.75, 19.8 326.25, 19.8 326.25, 0 348.75, 0 348.75, 19.8 371.25, 19.8 371.25, 0 393.75, 0 393.75, 19.8 416.25, 19.8 416.25, 0 438.75, 0 438.75, 19.8 461.25, 19.8 461.25, 0 483.75, 0 483.75, 19.8 506.25, 19.8 506.25, 0 528.75, 0 528.75, 19.8 551.25, 19.8 551.25, 0 573.75, 0 573.75, 19.8 596.25, 19.8 596.25, 0 618.75, 0 618.75, 19.8 641.25, 19.8 641.25, 0 663.75, 0 663.75, 19.8 686.25, 19.8 686.25, 0 708.75, 0 708.75, 19.8 731.25, 19.8 731.25, 0 753.75, 0 753.75, 19.8 776.25, 19.8 776.25, 0 798.75, 0 798.75, 19.8 821.25, 19.8 821.25, 0 843.75, 0 843.75, 19.8 871.875, 19.8 871.875, 0 900, 0 900, 28.125 880.2, 28.125 880.2, 56.25 900, 56.25 900, 78.75 880.2, 78.75 880.2, 101.25 900, 101.25 900, 123.75 880.2, 123.75 880.2, 146.25 900, 146.25 900, 168.75 880.2, 168.75 880.2, 191.25 900, 191.25 900, 213.75 880.2, 213.75 880.2, 236.25 900, 236.25 900, 258.75 880.2, 258.75 880.2, 286.875 900, 286.875 900, 315 871.875, 315 871.875, 295.2 843.75, 295.2 843.75, 315 821.25, 315 821.25, 295.2 798.75, 295.2 798.75, 315 776.25, 315 776.25, 295.2 753.75, 295.2 753.75, 315 731.25, 315 731.25, 295.2 708.75, 295.2 708.75, 315 686.25, 315 686.25, 295.2 663.75, 295.2 663.75, 315 641.25, 315 641.25, 295.2 618.75, 295.2 618.75, 315 596.25, 315 596.25, 295.2 573.75, 295.2 573.75, 315 551.25, 315 551.25, 295.2 528.75, 295.2 528.75, 315 506.25, 315 506.25, 295.2 483.75, 295.2 483.75, 315 461.25, 315 461.25, 295.2 438.75, 295.2 438.75, 315 416.25, 315 416.25, 295.2 393.75, 295.2 393.75, 315 371.25, 315 371.25, 295.2 348.75, 295.2 348.75, 315 326.25, 315 326.25, 295.2 303.75, 295.2 303.75, 315 281.25, 315 281.25, 295.2 258.75, 295.2 258.75, 315 236.25, 315 236.25, 295.2 213.75, 295.2 213.75, 315 191.25, 315 191.25, 295.2 168.75, 295.2 168.75, 315 146.25, 315 146.25, 295.2 123.75, 295.2 123.75, 315 101.25, 315 101.25, 295.2 78.75, 295.2 78.75, 315 56.25, 315 56.25, 295.2 28.125, 295.2 28.125, 315 0, 315 0, 286.875 19.8, 286.875 19.8, 258.75 0, 258.75 0, 236.25 19.8, 236.25 19.8, 213.75 0, 213.75 0, 191.25 19.8, 191.25 19.8, 168.75 0, 168.75 0, 146.25 19.8, 146.25 19.8, 123.75 0, 123.75 0, 101.25 19.8, 101.25 19.8, 78.75 0, 78.75 0, 56.25 19.8, 56.25 19.8, 28.125 0, 28.125 "/> 
</g>
<!-- Back--> 
<g transform="translate(922.5, 22.5) " > 
<polygon style="stroke:#000000; fill:none; stroke-width:0.9" points="0, 0 28.125, 0 28.125, 19.8 56.25, 19.8 56.25, 0 78.75, 0 78.75, 19.8 101.25, 19.8 101.25, 0 123.75, 0 123.75, 19.8 146.25, 19.8 146.25, 0 168.75, 0 168.75, 19.8 191.25, 19.8 191.25, 0 213.75, 0 213.75, 19.8 236.25, 19.8 236.25, 0 258.75, 0 258.75, 19.8 281.25, 19.8 281.25, 0 303.75, 0 303.75, 19.8 326.25, 19.8 326.25, 0 348.75, 0 348.75, 19.8 371.25, 19.8 371.25, 0 393.75, 0 393.75, 19.8 416.25, 19.8 416.25, 0 438.75, 0 438.75, 19.8 461.25, 19.8 461.25, 0 483.75, 0 483.75, 19.8 506.25, 19.8 506.25, 0 528.75, 0 528.75, 19.8 551.25, 19.8 551.25, 0 573.75, 0 573.75, 19.8 596.25, 19.8 596.25, 0 618.75, 0 618.75, 19.8 641.25, 19.8 641.25, 0 663.75, 0 663.75, 19.8 686.25, 19.8 686.25, 0 708.75, 0 708.75, 19.8 731.25, 19.8 731.25, 0 753.75, 0 753.75, 19.8 776.25, 19.8 776.25, 0 798.75, 0 798.75, 19.8 821.25, 19.8 821.25, 0 843.75, 0 843.75, 19.8 871.875, 19.8 871.875, 0 900, 0 900, 28.125 880.2, 28.125 880.2, 56.25 900, 56.25 900, 78.75 880.2, 78.75 880.2, 101.25 900, 101.25 900, 123.75 880.2, 123.75 880.2, 146.25 900, 146.25 900, 168.75 880.2, 168.75 880.2, 191.25 900, 191.25 900, 213.75 880.2, 213.75 880.2, 236.25 900, 236.25 900, 258.75 880.2, 258.75 880.2, 286.875 900, 286.875 900, 315 871.875, 315 871.875, 295.2 843.75, 295.2 843.75, 315 821.25, 315 821.25, 295.2 798.75, 295.2 798.75, 315 776.25, 315 776.25, 295.2 753.75, 295.2 753.75, 315 731.25, 315 731.25, 295.2 708.75, 295.2 708.75, 315 686.25, 315 686.25, 295.2 663.75, 295.2 663.75, 315 641.25, 315 641.25, 295.2 618.75, 295.2 618.75, 315 596.25, 315 596.25, 295.2 573.75, 295.2 573.75, 315 551.25, 315 551.25, 295.2 528.75, 295.2 528.75, 315 506.25, 315 506.25, 295.2 483.75, 295.2 483.75, 315 461.25, 315 461.25, 295.2 438.75, 295.2 438.75, 315 416.25, 315 416.25, 295.2 393.75, 295.2 393.75, 315 371.25, 315 371.25, 295.2 348.75, 295.2 348.75, 315 326.25, 315 326.25, 295.2 303.75, 295.2 303.75, 315 281.25, 315 281.25, 295.2 258.75, 295.2 258.75, 315 236.25, 315 236.25, 295.2 213.75, 295.2 213.75, 315 191.25, 315 191.25, 295.2 168.75, 295.2 168.75, 315 146.25, 315 146.25, 295.2 123.75, 295.2 123.75, 315 101.25, 315 101.25, 295.2 78.75, 295.2 78.75, 315 56.25, 315 56.25, 295.2 28.125, 295.2 28.125, 315 0, 315 0, 286.875 19.8, 286.875 19.8, 258.75 0, 258.75 0, 236.25 19.8, 236.25 19.8, 213.75 0, 213.75 0, 191.25 19.8, 191.25 19.8, 168.75 0, 168.75 0, 146.25 19.8, 146.25 19.8, 123.75 0, 123.75 0, 101.25 19.8, 101.25 19.8, 78.75 0, 78.75 0, 56.25 19.8, 56.25 19.8, 28.125 0, 28.125 "/> 
</g>
<!-- Left--> 
<g transform="translate(1822.5, 22.5) " > 
<polygon style="stroke:#000000; fill:none; stroke-width:0.9" points="19.8, 0 28.125, 0 28.125, 19.8 56.25, 19.8 56.25, 0 78.75, 0 78.75, 19.8 101.25, 19.8 101.25, 0 123.75, 0 123.75, 19.8 146.25, 19.8 146.25, 0 168.75, 0 168.75, 19.8 191.25, 19.8 191.25, 0 213.75, 0 213.75, 19.8 236.25, 19.8 236.25, 0 258.75, 0 258.75, 19.8 281.25, 19.8 281.25, 0 303.75, 0 303.75, 19.8 326.25, 19.8 326.25, 0 348.75, 0 348.75, 19.8 371.25, 19.8 371.25, 0 393.75, 0 393.75, 19.8 416.25, 19.8 416.25, 0 438.75, 0 438.75, 19.8 461.25, 19.8 461.25, 0 483.75, 0 483.75, 19.8 511.875, 19.8 511.875, 0 520.2, 0 520.2, 28.125 540, 28.125 540, 56.25 520.2, 56.25 520.2, 78.75 540, 78.75 540, 101.25 520.2, 101.25 520.2, 123.75 540, 123.75 540, 146.25 520.2, 146.25 520.2, 168.75 540, 168.75 540, 191.25 520.2, 191.25 520.2, 213.75 540, 213.75 540, 236.25 520.2, 236.25 520.2, 258.75 540, 258.75 540, 286.875 520.2, 286.875 520.2, 315 511.875, 315 511.875, 295.2 483.75, 295.2 483.75, 315 461.25, 315 461.25, 295.2 438.75, 295.2 438.75, 315 416.25, 315 416.25, 295.2 393.75, 295.2 393.75, 315 371.25, 315 371.25, 295.2 348.75, 295.2 348.75, 315 326.25, 315 326.25, 295.2 303.75, 295.2 303.75, 315 281.25, 315 281.25, 295.2 258.75, 295.2 258.75, 315 236.25, 315 236.25, 295.2 213.75, 295.2 213.75, 315 191.25, 315 191.25, 295.2 168.75, 295.2 168.75, 315 146.25, 315 146.25, 295.2 123.75, 295.2 123.75, 315 101.25, 315 101.25, 295.2 78.75, 295.2 78.75, 315 56.25, 315 56.25, 295.2 28.125, 295.2 28.125, 315 19.8, 315 19.8, 286.875 0, 286.875 0, 258.75 19.8, 258.75 19.8, 236.25 0, 236.25 0, 213.75 19.8, 213.75 19.8, 191.25 0, 191.25 0, 168.75 19.8, 168.75 19.8, 146.25 0, 146.25 0, 123.75 19.8, 123.75 19.8, 101.25 0, 101.25 0, 78.75 19.8, 78.75 19.8, 56.25 0, 56.25 0, 28.125 19.8, 28.125 "/> 
</g>
<!-- Right--> 
<g transform="translate(1822.5, 337.5) " > 
<polygon style="stroke:#000000; fill:none; stroke-width:0.9" points="19.8, 0 28.125, 0 28.125, 19.8 56.25, 19.8 56.25, 0 78.75, 0 78.75, 19.8 101.25, 19.8 101.25, 0 123.75, 0 123.75, 19.8 146.25, 19.8 146.25, 0 168.75, 0 168.75, 19.8 191.25, 19.8 191.25, 0 213.75, 0 213.75, 19.8 236.25, 19.8 236.25, 0 258.75, 0 258.75, 19.8 281.25, 19.8 281.25, 0 303.75, 0 303.75, 19.8 326.25, 19.8 326.25, 0 348.75, 0 348.75, 19.8 371.25, 19.8 371.25, 0 393.75, 0 393.75, 19.8 416.25, 19.8 416.25, 0 438.75, 0 438.75, 19.8 461.25, 19.8 461.25, 0 483.75, 0 483.75, 19.8 511.875, 19.8 511.875, 0 520.2, 0 520.2, 28.125 540, 28.125 540, 56.25 520.2, 56.25 520.2, 78.75 540, 78.75 540, 101.25 520.2, 101.25 520.2, 123.75 540, 123.75 540, 146.25 520.2, 146.25 520.2, 168.75 540, 168.75 540, 191.25 520.2, 191.25 520.2, 213.75 540, 213.75 540, 236.25 520.2, 236.25 520.2, 258.75 540, 258.75 540, 286.875 520.2, 286.875 520.2, 315 511.875, 315 511.875, 295.2 483.75, 295.2 483.75, 315 461.25, 315 461.25, 295.2 438.75, 295.2 438.75, 315 416.25, 315 416.25, 295.2 393.75, 295.2 393.75, 315 371.25, 315 371.25, 295.2 348.75, 295.2 348.75, 315 326.25, 315 326.25, 295.2 303.75, 295.2 303.75, 315 281.25, 315 281.25, 295.2 258.75, 295.2 258.75, 315 236.25, 315 236.25, 295.2 213.75, 295.2 213.75, 315 191.25, 315 191.25, 295.2 168.75, 295.2 168.75, 315 146.25, 315 146.25, 295.2 123.75, 295.2 123.75, 315 101.25, 315 101.25, 295.2 78.75, 295.2 78.75, 315 56.25, 315 56.25, 295.2 28.125, 295.2 28.125, 315 19.8, 315 19.8, 286.875 0, 286.875 0, 258.75 19.8, 258.75 19.8, 236.25 0, 236.25 0, 213.75 19.8, 213.75 19.8, 191.25 0, 191.25 0, 168.75 19.8, 168.75 19.8, 146.25 0, 146.25 0, 123.75 19.8, 123.75 19.8, 101.25 0, 101.25 0, 78.75 19.8, 78.75 19.8, 56.25 0, 56.25 0, 28.125 19.8, 28.125 "/> 
</g>
<!-- Top--> 
<g transform="translate(22.5, 337.5) " > 
<polygon style="stroke:#000000; fill:none; stroke-width:0.9" points="19.8, 19.8 28.125, 19.8 28.125, 0 56.25, 0 56.25, 19.8 78.75, 19.8 78.75, 0 101.25, 0 101.25, 19.8 123.75, 19.8 123.75, 0 146.25, 0 146.25, 19.8 168.75, 19.8 168.75, 0 191.25, 0 191.25, 19.8 213.75, 19.8 213.75, 0 236.25, 0 236.25, 19.8 258.75, 19.8 258.75, 0 281.25, 0 281.25, 19.8 303.75, 19.8 303.75, 0 326.25, 0 326.25, 19.8 348.75, 19.8 348.75, 0 371.25, 0 371.25, 19.8 393.75, 19.8 393.75, 0 416.25, 0 416.25, 19.8 438.75, 19.8 438.75, 0 461.25, 0 461.25, 19.8 483.75, 19.8 483.75, 0 506.25, 0 506.25, 19.8 528.75, 19.8 528.75, 0 551.25, 0 551.25, 19.8 573.75, 19.8 573.75, 0 596.25, 0 596.25, 19.8 618.75, 19.8 618.75, 0 641.25, 0 641.25, 19.8 663.75, 19.8 663.75, 0 686.25, 0 686.25, 19.8 708.75, 19.8 708.75, 0 731.25, 0 731.25, 19.8 753.75, 19.8 753.75, 0 776.25, 0 776.25, 19.8 798.75, 19.8 798.75, 0 821.25, 0 821.25, 19.8 843.75, 19.8 843.75, 0 871.875, 0 871.875, 19.8 880.2, 19.8 880.2, 28.125 900, 28.125 900, 56.25 880.2, 56.25 880.2, 78.75 900, 78.75 900, 101.25 880.2, 101.25 880.2, 123.75 900, 123.75 900, 146.25 880.2, 146.25 880.2, 168.75 900, 168.75 900, 191.25 880.2, 191.25 880.2, 213.75 900, 213.75 900, 236.25 880.2, 236.25 880.2, 258.75 900, 258.75 900, 281.25 880.2, 281.25 880.2, 303.75 900, 303.75 900, 326.25 880.2, 326.25 880.2, 348.75 900, 348.75 900, 371.25 880.2, 371.25 880.2, 393.75 900, 393.75 900, 416.25 880.2, 416.25 880.2, 438.75 900, 438.75 900, 461.25 880.2, 461.25 880.2, 483.75 900, 483.75 900, 511.875 880.2, 511.875 880.2, 520.2 871.875, 520.2 871.875, 540 843.75, 540 843.75, 520.2 821.25, 520.2 821.25, 540 798.75, 540 798.75, 520.2 776.25, 520.2 776.25, 540 753.75, 540 753.75, 520.2 731.25, 520.2 731.25, 540 708.75, 540 708.75, 520.2 686.25, 520.2 686.25, 540 663.75, 540 663.75, 520.2 641.25, 520.2 641.25, 540 618.75, 540 618.75, 520.2 596.25, 520.2 596.25, 540 573.75, 540 573.75, 520.2 551.25, 520.2 551.25, 540 528.75, 540 528.75, 520.2 506.25, 520.2 506.25, 540 483.75, 540 483.75, 520.2 461.25, 520.2 461.25, 540 438.75, 540 438.75, 520.2 416.25, 520.2 416.25, 540 393.75, 540 393.75, 520.2 371.25, 520.2 371.25, 540 348.75, 540 348.75, 520.2 326.25, 520.2 326.25, 540 303.75, 540 303.75, 520.2 281.25, 520.2 281.25, 540 258.75, 540 258.75, 520.2 236.25, 520.2 236.25, 540 213.75, 540 213.75, 520.2 191.25, 520.2 191.25, 540 168.75, 540 168.75, 520.2 146.25, 520.2 146.25, 540 123.75, 540 123.75, 520.2 101.25, 520.2 101.25, 540 78.75, 540 78.75, 520.2 56.25, 520.2 56.25, 540 28.125, 540 28.125, 520.2 19.8, 520.2 19.8, 511.875 0, 511.875 0, 483.75 19.8, 483.75 19.8, 461.25 0, 461.25 0, 438.75 19.8, 438.75 19.8, 416.25 0, 416.25 0, 393.75 19.8, 393.75 19.8, 371.25 0, 371.25 0, 348.75 19.8, 348.75 19.8, 326.25 0, 326.25 0, 303.75 19.8, 303.75 19.8, 281.25 0, 281.25 0, 258.75 19.8, 258.75 19.8, 236.25 0, 236.25 0, 213.75 19.8, 213.75 19.8, 191.25 0, 191.25 0, 168.75 19.8, 168.75 19.8, 146.25 0, 146.25 0, 123.75 19.8, 123.75 19.8, 101.25 0, 101.25 0, 78.75 19.8, 78.75 19.8, 56.25 0, 56.25 0, 28.125 19.8, 28.125 "/> 
</g>
<!-- Bottom--> 
<g transform="translate(922.5, 337.5) " > 
<polygon style="stroke:#000000; fill:none; stroke-width:0.9" points="19.8, 19.8 28.125, 19.8 28.125, 0 56.25, 0 56.25, 19.8 78.75, 19.8 78.75, 0 101.25, 0 101.25, 19.8 123.75, 19.8 123.75, 0 146.25, 0 146.25, 19.8 168.75, 19.8 168.75, 0 191.25, 0 191.25, 19.8 213.75, 19.8 213.75, 0 236.25, 0 236.25, 19.8 258.75, 19.8 258.75, 0 281.25, 0 281.25, 19.8 303.75, 19.8 303.75, 0 326.25, 0 326.25, 19.8 348.75, 19.8 348.75, 0 371.25, 0 371.25, 19.8 393.75, 19.8 393.75, 0 416.25, 0 416.25, 19.8 438.75, 19.8 438.75, 0 461.25, 0 461.25, 19.8 483.75, 19.8 483.75, 0 506.25, 0 506.25, 19.8 528.75, 19.8 528.75, 0 551.25, 0 551.25, 19.8 573.75, 19.8 573.75, 0 596.25, 0 596.25, 19.8 618.75, 19.8 618.75, 0 641.25, 0 641.25, 19.8 663.75, 19.8 663.75, 0 686.25, 0 686.25, 19.8 708.75, 19.8 708.75, 0 731.25, 0 731.25, 19.8 753.75, 19.8 753.75, 0 776.25, 0 776.25, 19.8 798.75, 19.8 798.75, 0 821.25, 0 821.25, 19.8 843.75, 19.8 843.75, 0 871.875, 0 871.875, 19.8 880.2, 19.8 880.2, 28.125 900, 28.125 900, 56.25 880.2, 56.25 880.2, 78.75 900, 78.75 900, 101.25 880.2, 101.25 880.2, 123.75 900, 123.75 900, 146.25 880.2, 146.25 880.2, 168.75 900, 168.75 900, 191.25 880.2, 191.25 880.2, 213.75 900, 213.75 900, 236.25 880.2, 236.25 880.2, 258.75 900, 258.75 900, 281.25 880.2, 281.25 880.2, 303.75 900, 303.75 900, 326.25 880.2, 326.25 880.2, 348.75 900, 348.75 900, 371.25 880.2, 371.25 880.2, 393.75 900, 393.75 900, 416.25 880.2, 416.25 880.2, 438.75 900, 438.75 900, 461.25 880.2, 461.25 880.2, 483.75 900, 483.75 900, 511.875 880.2, 511.875 880.2, 520.2 871.875, 520.2 871.875, 540 843.75, 540 843.75, 520.2 821.25, 520.2 821.25, 540 798.75, 540 798.75, 520.2 776.25, 520.2 776.25, 540 753.75, 540 753.75, 520.2 731.25, 520.2 731.25, 540 708.75, 540 708.75, 520.2 686.25, 520.2 686.25, 540 663.75, 540 663.75, 520.2 641.25, 520.2 641.25, 540 618.75, 540 618.75, 520.2 596.25, 520.2 596.25, 540 573.75, 540 573.75, 520.2 551.25, 520.2 551.25, 540 528.75, 540 528.75, 520.2 506.25, 520.2 506.25, 540 483.75, 540 483.75, 520.2 461.25, 520.2 461.25, 540 438.75, 540 438.75, 520.2 416.25, 520.2 416.25, 540 393.75, 540 393.75, 520.2 371.25, 520.2 371.25, 540 348.75, 540 348.75, 520.2 326.25, 520.2 326.25, 540 303.75, 540 303.75, 520.2 281.25, 520.2 281.25, 540 258.75, 540 258.75, 520.2 236.25, 520.2 236.25, 540 213.75, 540 213.75, 520.2 191.25, 520.2 191.25, 540 168.75, 540 168.75, 520.2 146.25, 520.2 146.25, 540 123.75, 540 123.75, 520.2 101.25, 520.2 101.25, 540 78.75, 540 78.75, 520.2 56.25, 520.2 56.25, 540 28.125, 540 28.125, 520.2 19.8, 520.2 19.8, 511.875 0, 511.875 0, 483.75 19.8, 483.75 19.8, 461.25 0, 461.25 0, 438.75 19.8, 438.75 19.8, 416.25 0, 416.25 0, 393.75 19.8, 393.75 19.8, 371.25 0, 371.25 0, 348.75 19.8, 348.75 19.8, 326.25 0, 326.25 0, 303.75 19.8, 303.75 19.8, 281.25 0, 281.25 0, 258.75 19.8, 258.75 19.8, 236.25 0, 236.25 0, 213.75 19.8, 213.75 19.8, 191.25 0, 191.25 0, 168.75 19.8, 168.75 19.8, 146.25 0, 146.25 0, 123.75 19.8, 123.75 19.8, 101.25 0, 101.25 0, 78.75 19.8, 78.75 19.8, 56.25 0, 56.25 0, 28.125 19.8, 28.125 "/> 
</g></svg>